<svg width="112" height="124" fill="none" xmlns="http://www.w3.org/2000/svg"><path d="M100.747 29.291c4.205 9.143 5.098 11.03 8.322 20.328 1.851 5.84-1.857 14.492-17.144 7.138-10.887-5.19-18.764-8.866-12.277-17.517a83.258 83.258 0 0 1 10.69-11.677c4.203-3.67 6.806-5.984 10.409 1.728ZM97.123 87.85c8.006-7.874 19.13.935 11.36 11.504-15.656 21.403-42.988 29.938-67.479 21.338C16.514 112.092-.004 88.578.001 61.68c-.062-16.115 5.283-29.563 15.497-41.676C25.329 9.004 39.966.188 54.401 0c20.29 0 29.356 17.75 22.21 27.648C68.625 38.654 59.34 37.76 52.434 33.04c0 0-9.5-6.739-12.306-8.987-4.32-3.366-9.07-3.366-10.795 2.025-3.02 9.658-4.53 15.725-6.906 25.384a69.471 69.471 0 0 0-1.725 14.825c.05 9.192 4.099 17.866 11.011 23.588 4.773 4.484 9.9 8.541 15.326 12.13 4.369 2.981 9.458 4.617 14.681 4.72h.43c5.223-.103 10.312-1.739 14.681-4.72A184.391 184.391 0 0 0 97.123 87.85ZM40.037 76.72c-2.88-1.055-9.398-6.744-7.483-10.963.769-2.32 6.332-2.95 8.056-2.95 10.172-.21 10.554 17.922-.573 13.913Zm17.89 19.318c-1.299-1.165-3.682-3.494-5.849-5.437-.6-.651-.716-1.559-.295-2.315.422-.756 1.3-1.218 2.241-1.18 3.823-.194 7.655-.194 11.478 0 .886.066 1.654.58 1.976 1.323.323.743.143 1.587-.462 2.172-2.161 1.943-4.544 4.272-5.628 5.437-.47.39-1.09.599-1.73.585a2.63 2.63 0 0 1-1.73-.585ZM80.742 76.72c-11.127 4.009-10.745-14.123-.573-13.913 1.724 0 7.096.63 8.056 2.95 1.915 4.219-4.604 9.908-7.483 10.963Z" fill="#25B135"/></svg>