<svg width="48" height="48" fill="none" xmlns="http://www.w3.org/2000/svg"><g clip-path="url(#a)"><path d="M47.282 29.804c-3.207 12.864-16.24 20.684-29.085 17.477C5.332 44.074-2.488 31.04.718 18.196 3.926 5.332 16.94-2.488 29.804.72 42.65 3.907 50.49 16.939 47.282 29.804Z" fill="url(#b)"/><path d="M35.427 21.009c.469-3.188-1.95-4.913-5.287-6.056l1.087-4.332-2.625-.656-1.05 4.219a69.91 69.91 0 0 0-2.119-.487l1.05-4.238-2.625-.656-1.068 4.312a117.76 117.76 0 0 1-1.688-.393v-.02l-3.637-.9-.694 2.813s1.95.45 1.912.469c1.07.263 1.257.975 1.22 1.538l-1.238 4.93c.075.02.168.038.28.095-.093-.02-.187-.038-.28-.075l-1.725 6.9c-.132.318-.47.806-1.2.618.018.038-1.913-.468-1.913-.468l-1.312 3.018 3.43.863c.638.169 1.257.319 1.876.487l-1.088 4.369 2.625.656 1.088-4.331c.712.188 1.425.375 2.1.544l-1.069 4.312 2.625.657 1.088-4.37c4.5.845 7.875.507 9.28-3.562 1.145-3.262-.055-5.156-2.418-6.393 1.744-.394 3.038-1.538 3.375-3.863Zm-6.019 8.438c-.806 3.262-6.318 1.5-8.1 1.05l1.444-5.794c1.781.45 7.519 1.331 6.656 4.744Zm.825-8.494c-.75 2.981-5.325 1.462-6.806 1.087l1.313-5.25c1.48.375 6.262 1.069 5.493 4.163Z" fill="#fff"/></g><defs><linearGradient id="b" x1="23.987" y1="-.012" x2="23.987" y2="47.995" gradientUnits="userSpaceOnUse"><stop stop-color="#F9AA4B"/><stop offset="1" stop-color="#F7931A"/></linearGradient><clipPath id="a"><path fill="#fff" d="M0 0h48v48H0z"/></clipPath></defs></svg>