<svg width="43" height="48" fill="none" xmlns="http://www.w3.org/2000/svg"><path d="m42.324 0-3.856 43.195L21.136 48 3.852 43.202 0 0h42.324Z" fill="#264DE4"/><path d="m35.167 40.443 3.295-36.912h-17.3v40.795l14.005-3.883Z" fill="#2965F1"/><path d="m8.83 19.556.475 5.298h11.857v-5.298H8.83ZM21.162 8.831H7.876l.482 5.299h12.804v-5.3Zm0 29.998v-5.513l-.023.006-5.901-1.593-.378-4.226H9.541l.743 8.32 10.853 3.012.025-.006Z" fill="#EBEBEB"/><path d="m27.668 24.854-.615 6.872-5.91 1.595v5.512l10.863-3.01.08-.896 1.245-13.949.129-1.423.956-10.724H21.144v5.299h7.466l-.482 5.425h-6.984v5.299h6.524Z" fill="#1E2235"/></svg>