<svg width="43" height="48" viewBox="0 0 43 48" fill="none" xmlns="http://www.w3.org/2000/svg">
<path d="M42.324 0L38.4681 43.195L21.1361 48L3.85174 43.2018L0 0H42.324Z" fill="#264DE4"/>
<path d="M35.1673 40.4433L38.4623 3.53125H21.1621V44.3261L35.1673 40.4433Z" fill="#2965F1"/>
<path d="M8.83008 19.5557L9.30497 24.8541H21.162V19.5557H8.83008Z" fill="#EBEBEB"/>
<path d="M21.1621 8.83105H21.1438H7.87598L8.35763 14.1296H21.1621V8.83105Z" fill="#EBEBEB"/>
<path d="M21.1618 38.8286V33.3159L21.1386 33.3221L15.2376 31.7287L14.8604 27.5029H11.993H9.5415L10.2838 35.8224L21.1374 38.8354L21.1618 38.8286Z" fill="#EBEBEB"/>
<path d="M27.6681 24.8538L27.0531 31.7256L21.1436 33.3206V38.8331L32.0058 35.8226L32.0855 34.9274L33.3306 20.9782L33.4599 19.5554L34.4164 8.83105H21.1436V14.1296H28.6097L28.1276 19.5554H21.1436V24.8538H27.6681Z" fill="#1E2235"/>
</svg>
