<svg width="48" height="48" fill="none" xmlns="http://www.w3.org/2000/svg"><path d="M40.483 10.371a39.224 39.224 0 0 0-9.681-3.002.147.147 0 0 0-.156.073A27.32 27.32 0 0 0 29.44 9.92a36.21 36.21 0 0 0-10.874 0 25.06 25.06 0 0 0-1.224-2.477.153.153 0 0 0-.155-.073 39.115 39.115 0 0 0-9.682 3.002.138.138 0 0 0-.064.055C1.275 19.64-.414 28.625.414 37.5a.163.163 0 0 0 .062.111c4.069 2.988 8.01 4.802 11.877 6.004a.154.154 0 0 0 .167-.055 28.195 28.195 0 0 0 2.43-3.952.15.15 0 0 0-.083-.21 25.967 25.967 0 0 1-3.71-1.768.153.153 0 0 1-.015-.253c.25-.187.499-.381.737-.577a.147.147 0 0 1 .154-.021c7.784 3.554 16.211 3.554 23.904 0a.147.147 0 0 1 .155.019c.238.196.488.392.739.58a.152.152 0 0 1-.013.252 24.359 24.359 0 0 1-3.712 1.767.152.152 0 0 0-.081.211 31.548 31.548 0 0 0 2.428 3.95.15.15 0 0 0 .167.057c3.886-1.202 7.827-3.016 11.895-6.004a.152.152 0 0 0 .062-.11c.992-10.259-1.66-19.171-7.032-27.072a.121.121 0 0 0-.062-.057Zm-24.37 21.724c-2.344 0-4.275-2.151-4.275-4.794 0-2.642 1.893-4.793 4.274-4.793 2.4 0 4.312 2.17 4.275 4.793 0 2.643-1.894 4.794-4.275 4.794Zm15.804 0c-2.344 0-4.275-2.151-4.275-4.794 0-2.642 1.894-4.793 4.275-4.793 2.4 0 4.312 2.17 4.275 4.793 0 2.643-1.875 4.794-4.275 4.794Z" fill="#5865F2"/></svg>