<svg width="155" height="160" fill="none" xmlns="http://www.w3.org/2000/svg"><g clip-path="url(#a)" fill="#1EB4D4"><path d="M152.548 54.48c4.599-14.34 1.835-42.983-7.086-53.55-1.164-1.383-3.355-1.186-4.322.335L130.147 18.53a8.453 8.453 0 0 1-11.29 1.837C106.936 12.564 92.687 8.021 77.37 8.021c-15.316 0-29.566 4.543-41.487 12.345-3.67 2.41-8.565 1.6-11.289-1.837L13.6 1.265C12.633-.255 10.444-.453 9.279.93.358 11.497-2.406 40.14 2.193 54.48c1.52 4.761 1.954 9.798 1.046 14.717-.888 4.86-1.796 10.746-1.796 14.815 0 41.955 34.006 75.99 75.927 75.99 41.941 0 75.928-34.015 75.928-75.99 0-4.09-.888-9.956-1.796-14.815-.908-4.919-.474-9.956 1.046-14.716ZM77.37 143.013c-32.408 0-58.776-26.39-58.776-58.825 0-1.066.04-2.113.079-3.16 1.184-22.104 14.585-41.007 33.572-50.015 7.619-3.634 16.145-5.65 25.125-5.65a58.37 58.37 0 0 1 25.145 5.67c18.987 9.007 32.388 27.911 33.572 49.995.06 1.047.079 2.094.079 3.16-.019 32.435-26.388 58.825-58.796 58.825Z"/><path d="M102.83 106.825 87.81 80.77 74.922 59.042a1.674 1.674 0 0 0-1.46-.83H61.145c-.612 0-1.165.336-1.46.85a1.687 1.687 0 0 0 .019 1.699L72.02 81.5l-16.54 25.245a1.713 1.713 0 0 0-.079 1.738 1.68 1.68 0 0 0 1.48.889h12.395c.573 0 1.105-.296 1.421-.771l8.941-13.985 8.013 13.906c.296.534.869.85 1.46.85h12.218a1.65 1.65 0 0 0 1.46-.85 1.557 1.557 0 0 0 .04-1.698Z"/></g><defs><clipPath id="a"><path fill="#fff" d="M0 0h155v160H0z"/></clipPath></defs></svg>