<svg width="48" height="48" fill="none" xmlns="http://www.w3.org/2000/svg"><path d="M48 0H0v48h48V0Z" fill="#F7DF1E"/><path d="M32.244 37.5c.967 1.579 2.225 2.74 4.45 2.74 1.868 0 3.062-.935 3.062-2.225 0-1.547-1.226-2.095-3.283-2.995l-1.128-.484c-3.255-1.386-5.417-3.123-5.417-6.796 0-3.382 2.577-5.958 6.605-5.958 2.868 0 4.93.998 6.416 3.612l-3.513 2.255c-.773-1.387-1.607-1.933-2.903-1.933-1.32 0-2.158.838-2.158 1.933 0 1.353.838 1.9 2.773 2.739l1.128.483c3.832 1.643 5.996 3.319 5.996 7.086 0 4.06-3.19 6.285-7.474 6.285-4.189 0-6.895-1.996-8.22-4.612l3.666-2.13Zm-15.934.391c.709 1.257 1.353 2.32 2.903 2.32 1.482 0 2.417-.58 2.417-2.834V22.04h4.51v15.398c0 4.67-2.738 6.796-6.735 6.796-3.611 0-5.703-1.869-6.766-4.12l3.671-2.223Z" fill="#000"/></svg>