<svg version="1.1" id="Layer_1" xmlns="http://www.w3.org/2000/svg" x="0" y="0" viewBox="0 0 400 400" style="enable-background:new 0 0 400 400" xml:space="preserve"><style>.st0{fill:#2cccbf}.st1{fill:#9ef2ed}</style><path class="st0" d="M110.6 273.6c-7.1 0-13.8-4.1-16.7-11.1-10-23.5-15.1-48.4-15.1-74.2C78.8 92.6 150.3 11.7 245.1 0c10-1.2 19 5.9 20.2 15.8 1.2 10-5.9 19-15.8 20.2-76.5 9.6-134.3 75-134.3 152.4 0 20.8 4.1 41 12.2 59.9 3.9 9.2-.4 19.9-9.6 23.8-2.4 1-4.8 1.5-7.2 1.5z"/><path class="st1" d="M149.8 173c-.9 0-1.8-.1-2.8-.4-5.9-1.5-9.5-7.5-7.9-13.5 15.6-60.8 70.5-103.2 133.3-103.2 32.1 0 63.3 11.3 87.9 31.7 4.7 3.9 5.3 10.9 1.4 15.6s-10.9 5.3-15.6 1.4C325.5 87.5 299.3 78 272.4 78c-52.8 0-98.8 35.6-111.9 86.6-1.3 5-5.8 8.4-10.7 8.4zm42.8 227c-1.1 0-2.2-.2-3.2-.5C98.9 371.9 35.7 284.2 35.7 186.1c0-42 11.9-82.8 34.5-117.9 3.3-5.1 10.1-6.6 15.3-3.3 5.1 3.3 6.6 10.1 3.3 15.3-20.3 31.6-31 68.3-31 106 0 88.4 56.8 167.5 138 192.3 5.8 1.8 9.1 8 7.3 13.8-1.4 4.6-5.8 7.7-10.5 7.7z"/><path class="st0" d="M269 370.9c-54.6 0-104.5-20.7-138-57.5-5.3-5.9-4.9-15 1-20.3 5.9-5.3 15-4.9 20.3 1 29.6 32.5 75 50 124.6 47.9 8-.4 14.6 5.8 15 13.8.3 7.9-5.8 14.6-13.8 15-3.1.1-6.1.1-9.1.1z"/><path class="st1" d="M360.9 270.8c-4.1-4.6-11-5-15.6-.9-9.1 8.1-19.2 14.5-30.3 19.3-.6.3-1.3.5-1.9.8-1.5.6-3.1 1.3-4.7 1.8-.1.1-.3.1-.4.2-1.9.7-3.8 1.3-5.7 1.9-4.3 1.3-8.7 2.4-13.1 3.2h-.2c-1.3.2-2.5.4-3.8.6-.7.1-1.3.2-2 .3-1 .1-1.9.3-2.9.4-1.7.2-3.4.3-5.1.4-.5 0-1 0-1.5.1-1.5.1-2.9.1-4.4.1h-1.8c-11.8-.1-23.5-2-34.7-5.6-5.8-1.9-12 1.3-13.9 7.1-1.9 5.8 1.3 12 7.1 13.9 12.9 4.2 26.3 6.4 39.9 6.6h2.4c2.2 0 4.3-.1 6.5-.2.7 0 1.4-.1 2.1-.1 1.4-.1 2.8-.2 4.3-.3 1.8-.2 3.7-.4 5.5-.6l2.1-.3c1.5-.2 3-.5 4.5-.8.2 0 .4-.1.7-.1 7.2-1.4 14.3-3.3 21.2-5.8l.9-.3c1.7-.6 3.5-1.3 5.2-2.1.9-.4 1.7-.7 2.6-1.1.6-.3 1.2-.5 1.8-.8.2-.1.3-.2.4-.2 12.2-5.6 23.5-12.9 33.7-21.9 4.8-4.1 5.2-11 1.1-15.6z"/></svg>