<?xml version="1.0" encoding="utf-8"?>
<!-- Generator: Adobe Illustrator 25.2.3, SVG Export Plug-In . SVG Version: 6.00 Build 0)  -->
<svg version="1.1" id="Layer_1" xmlns="http://www.w3.org/2000/svg" xmlns:xlink="http://www.w3.org/1999/xlink" x="0px" y="0px"
	 viewBox="0 0 400 400" style="enable-background:new 0 0 400 400;" xml:space="preserve">
<style type="text/css">
	.st0{fill:#2CCCBF;}
	.st1{fill:#9EF2ED;}
</style>
<g>
	<g>
		<g>
			<path class="st0" d="M110.6,273.6c-7.1,0-13.8-4.1-16.7-11.1c-10-23.5-15.1-48.4-15.1-74.2C78.8,92.6,150.3,11.7,245.1,0
				c10-1.2,19,5.9,20.2,15.8c1.2,10-5.9,19-15.8,20.2c-76.5,9.6-134.3,75-134.3,152.4c0,20.8,4.1,41,12.2,59.9
				c3.9,9.2-0.4,19.9-9.6,23.8C115.4,273.1,113,273.6,110.6,273.6z"/>
		</g>
	</g>
	<g>
		<g>
			<path class="st1" d="M149.8,173c-0.9,0-1.8-0.1-2.8-0.4c-5.9-1.5-9.5-7.5-7.9-13.5c15.6-60.8,70.5-103.2,133.3-103.2
				c32.1,0,63.3,11.3,87.9,31.7c4.7,3.9,5.3,10.9,1.4,15.6s-10.9,5.3-15.6,1.4C325.5,87.5,299.3,78,272.4,78
				c-52.8,0-98.8,35.6-111.9,86.6C159.2,169.6,154.7,173,149.8,173z"/>
		</g>
	</g>
	<g>
		<g>
			<path class="st1" d="M192.6,400c-1.1,0-2.2-0.2-3.2-0.5C98.9,371.9,35.7,284.2,35.7,186.1c0-42,11.9-82.8,34.5-117.9
				c3.3-5.1,10.1-6.6,15.3-3.3c5.1,3.3,6.6,10.1,3.3,15.3c-20.3,31.6-31,68.3-31,106c0,88.4,56.8,167.5,138,192.3
				c5.8,1.8,9.1,8,7.3,13.8C201.7,396.9,197.3,400,192.6,400z"/>
		</g>
	</g>
	<g>
		<g>
			<path class="st0" d="M269,370.9c-54.6,0-104.5-20.7-138-57.5c-5.3-5.9-4.9-15,1-20.3c5.9-5.3,15-4.9,20.3,1
				c29.6,32.5,75,50,124.6,47.9c8-0.4,14.6,5.8,15,13.8c0.3,7.9-5.8,14.6-13.8,15C275,370.9,272,370.9,269,370.9z"/>
		</g>
	</g>
	<g>
		<path class="st1" d="M360.9,270.8c-4.1-4.6-11-5-15.6-0.9c-9.1,8.1-19.2,14.5-30.3,19.3c-0.6,0.3-1.3,0.5-1.9,0.8
			c-1.5,0.6-3.1,1.3-4.7,1.8c-0.1,0.1-0.3,0.1-0.4,0.2c-1.9,0.7-3.8,1.3-5.7,1.9c-4.3,1.3-8.7,2.4-13.1,3.2c-0.1,0-0.1,0-0.2,0
			c-1.3,0.2-2.5,0.4-3.8,0.6c-0.7,0.1-1.3,0.2-2,0.3c-1,0.1-1.9,0.3-2.9,0.4c-1.7,0.2-3.4,0.3-5.1,0.4c-0.5,0-1,0-1.5,0.1
			c-1.5,0.1-2.9,0.1-4.4,0.1c-0.6,0-1.2,0-1.8,0c-11.8-0.1-23.5-2-34.7-5.6c-5.8-1.9-12,1.3-13.9,7.1c-1.9,5.8,1.3,12,7.1,13.9
			c12.9,4.2,26.3,6.4,39.9,6.6c0.1,0,0.2,0,0.2,0c0.7,0,1.5,0,2.2,0l0,0l0,0l0,0c2.2,0,4.3-0.1,6.5-0.2c0.7,0,1.4-0.1,2.1-0.1
			c1.4-0.1,2.8-0.2,4.3-0.3c1.8-0.2,3.7-0.4,5.5-0.6c0.7-0.1,1.4-0.2,2.1-0.3c1.5-0.2,3-0.5,4.5-0.8c0.2,0,0.4-0.1,0.7-0.1
			c7.2-1.4,14.3-3.3,21.2-5.8c0.3-0.1,0.6-0.2,0.9-0.3c1.7-0.6,3.5-1.3,5.2-2.1c0.9-0.4,1.7-0.7,2.6-1.1c0.6-0.3,1.2-0.5,1.8-0.8
			c0.2-0.1,0.3-0.2,0.4-0.2c12.2-5.6,23.5-12.9,33.7-21.9C364.6,282.3,365,275.4,360.9,270.8z"/>
	</g>
</g>
</svg>
