<svg width="86" height="86" fill="none" xmlns="http://www.w3.org/2000/svg"><path d="M6.667 1.733C.533 4.933 0 7.733 0 43.067 0 76.667.4 80 5.2 83.6c1.6 1.2 11.867 1.6 37.6 1.733h35.467l3.6-3.6 3.6-3.6-.4-35.733c-.4-35.067-.4-35.733-3.467-38.667C78.667.667 78 .667 44.267.267 18.4 0 9.2.4 6.667 1.733ZM66.533 22C76 42.267 75.867 39.733 68 58.4c-5.467 12.8-7.467 16.267-9.2 15.733-1.2-.4-9.067-1.066-17.6-1.466-8.533-.534-16.133-1.334-16.8-1.867-.667-.4-4.133-7.6-7.733-16l-6.534-15.2 3.6-6.8c2-3.733 5.467-9.6 7.6-13.067L25.2 13.6l13.067-.933c7.2-.4 13.733-1.067 14.4-1.334.8-.266 2.933-.533 5.066-.533 3.334-.133 4.134.933 8.8 11.2Z" fill="#fff"/><path d="M35.067 26.533c-6.667.8-7.2 1.2-11.2 7.467-4.667 7.333-4.667 7.2 2.267 22.667l3.066 7.066 10.4.934c5.733.4 11.867.933 13.6 1.066C56 66 56.933 64.8 60.267 56.8c2-5.067 3.733-10 3.733-11.067 0-.933-2.133-6-4.666-11.066l-4.667-9.334-6.4.267c-3.467.133-9.467.533-13.2.933Z" fill="#fff"/></svg>