<svg width="400" height="400" fill="none" xmlns="http://www.w3.org/2000/svg"><path d="M67.192 161.016C67.192 77.881 134.81 28 200.21 28c65.399 0 133.016 49.881 133.016 133.016 0 79.81-119.715 201.741-125.257 207.284-2.217 2.217-4.434 3.325-7.759 3.325-3.326 0-5.543-1.108-7.76-3.325-5.542-5.543-125.257-128.583-125.257-207.284Z" fill="#0B9072"/><mask id="a" style="mask-type:alpha" maskUnits="userSpaceOnUse" x="67" y="28" width="267" height="344"><path d="M67.192 161.016C67.192 77.881 134.81 28 200.21 28c65.399 0 133.016 49.881 133.016 133.016 0 79.81-119.715 201.741-125.257 207.284-2.217 2.217-4.434 3.325-7.759 3.325-3.326 0-5.543-1.108-7.76-3.325-5.542-5.543-125.257-128.583-125.257-207.284Z" fill="#0B9072"/></mask><g mask="url(#a)"><path fill="#0099AF" d="m199.369 199.819 93.032 93.032-94.525 94.525-93.032-93.032z"/><path d="m202.541 207.688 98.012 91.011c78.409-97.078 54.451-191.356 32.671-226.36L202.541 207.688Z" fill="#051173"/><path fill="#53C5D5" d="M103.691 275.691 309.633 69.749l27.095 27.095-205.942 205.942z"/><path fill="#53C5D5" d="m220.3 200.688 84.884 84.884-27.095 27.095-84.884-84.884z"/></g><circle cx="197.874" cy="168.017" r="79.343" fill="#E4EBEC"/><g clip-path="url(#b)"><path d="M224.264 171.33c6.249-1.226 10.982-5.066 12.302-13.224 1.821-11.143-6.946-17.392-18.966-21.723l4.031-15.053-9.528-2.554-3.93 14.656a410.534 410.534 0 0 0-7.633-1.941l3.951-14.752-9.52-2.552-4.034 15.049a327.801 327.801 0 0 1-6.088-1.547l.011-.045-13.141-3.526-2.62 9.784s7.071 1.758 6.922 1.851c3.857 1.036 4.54 3.529 4.403 5.486l-4.591 17.148-6.454 24.088c-.483 1.121-1.698 2.795-4.396 2.075.095.137-6.931-1.858-6.931-1.858l-4.822 10.435 12.398 3.322c2.309.621 4.57 1.264 6.792 1.878l-4.071 15.225 9.517 2.552 4.034-15.064c2.604.753 5.126 1.453 7.595 2.111l-4.02 14.992 9.528 2.553 4.078-15.196c16.253 3.407 28.505 2.531 33.775-11.562 4.245-11.346-.061-18.072-8.592-22.608Zm-26.382-29.008c5.374 1.44 22.716 4.323 19.825 15.121-2.776 10.35-19.347 4.614-24.727 3.173l4.902-18.294Zm-12.785 47.698 5.409-20.169c6.457 1.728 27.186 5.369 24.009 17.237-3.047 11.382-22.956 4.658-29.418 2.932Z" fill="#0B9072"/></g><defs><clipPath id="b"><path fill="#fff" transform="rotate(15 -317.81 709.087)" d="M0 0h83.976v106.37H0z"/></clipPath></defs></svg>