<svg width="48" height="48" fill="none" xmlns="http://www.w3.org/2000/svg"><g clip-path="url(#a)" fill="#fff"><path d="M1.265 1.098v45.803H4.56V48H0V0h4.56v1.098H1.265ZM15.35 15.619v2.317h.065c.619-.887 1.367-1.57 2.234-2.05.868-.489 1.874-.729 3-.729 1.08 0 2.068.213 2.963.628.896.415 1.57 1.163 2.04 2.215.508-.747 1.2-1.412 2.068-1.984.868-.573 1.902-.859 3.092-.859.905 0 1.745.111 2.52.332.776.222 1.431.573 1.985 1.062.554.49.978 1.117 1.292 1.902.305.784.462 1.726.462 2.834v11.455h-4.699V23.04c0-.572-.018-1.117-.064-1.624-.047-.508-.166-.951-.36-1.32a2.21 2.21 0 0 0-.877-.896c-.388-.221-.914-.332-1.57-.332-.664 0-1.2.13-1.606.379a2.759 2.759 0 0 0-.96.996c-.23.407-.387.868-.461 1.394a11.1 11.1 0 0 0-.12 1.57v9.535h-4.699v-9.6c0-.508-.009-1.006-.037-1.505a4.15 4.15 0 0 0-.286-1.375 2.103 2.103 0 0 0-.83-1.006c-.388-.25-.951-.379-1.708-.379-.222 0-.517.046-.877.148s-.72.286-1.062.563c-.341.277-.637.674-.877 1.19-.24.518-.36 1.2-.36 2.04v9.933H10.92V15.62h4.43Zm31.385 31.282V1.099H43.44V0H48v48h-4.56v-1.099h3.295Z"/></g><defs><clipPath id="a"><path fill="#fff" d="M0 0h48v48H0z"/></clipPath></defs></svg>