<svg width="808" height="808" fill="none" xmlns="http://www.w3.org/2000/svg"><g filter="url(#a)"><g clip-path="url(#b)"><rect x="4" width="800" height="800" rx="400" fill="#fff"/><path d="M377.803.215c-1.721.157-7.195.704-12.122 1.095C252.055 11.553 145.623 72.854 78.213 167.072 40.676 219.46 16.67 278.884 7.597 341.827 4.391 363.798 4 370.288 4 400.078c0 29.791.391 36.28 3.597 58.252 21.74 150.203 128.642 276.401 273.627 323.159 25.963 8.366 53.333 14.074 84.457 17.514 12.122 1.329 64.516 1.329 76.638 0 53.724-5.942 99.237-19.235 144.125-42.144 6.882-3.519 8.211-4.457 7.273-5.239-.626-.469-29.952-39.799-65.142-87.338l-63.969-86.4-80.156-118.614c-44.106-65.21-80.391-118.536-80.704-118.536-.313-.078-.626 52.622-.782 116.972-.235 112.672-.313 117.207-1.721 119.865-2.033 3.832-3.597 5.395-6.881 7.116-2.503 1.251-4.692 1.485-16.501 1.485h-13.529l-3.597-2.267a14.627 14.627 0 0 1-5.239-5.708l-1.643-3.519.157-156.77.234-156.849 2.425-3.05c1.251-1.642 3.91-3.753 5.787-4.769 3.206-1.564 4.457-1.72 17.986-1.72 15.953 0 18.612.625 22.756 5.16 1.173 1.251 44.575 66.618 96.501 145.355a361898.735 361898.735 0 0 0 157.81 239.027l63.343 95.939 3.207-2.112c28.387-18.452 58.416-44.724 82.189-72.091 50.597-58.095 83.207-128.935 94.155-204.466 3.206-21.972 3.597-28.461 3.597-58.252 0-29.79-.391-36.28-3.597-58.251-21.74-150.203-128.642-276.401-273.627-323.159-25.572-8.288-52.786-13.996-83.284-17.436C435.984.45 384.293-.41 377.803.215Zm163.753 241.92c3.754 1.876 6.804 5.473 7.899 9.226.625 2.033.782 45.507.625 143.479l-.234 140.585-24.79-38-24.868-38.001V357.23c0-66.07.312-103.21.782-105.009 1.251-4.378 3.988-7.819 7.742-9.852 3.206-1.642 4.379-1.798 16.657-1.798 11.573 0 13.607.156 16.187 1.564Z" fill="#000"/></g><rect x="4.5" y=".5" width="799" height="799" rx="399.5" stroke="#000"/></g><defs><clipPath id="b"><rect x="4" width="800" height="800" rx="400" fill="#fff"/></clipPath><filter id="a" x="0" y="0" width="808" height="808" filterUnits="userSpaceOnUse" color-interpolation-filters="sRGB"><feFlood flood-opacity="0" result="BackgroundImageFix"/><feColorMatrix in="SourceAlpha" values="0 0 0 0 0 0 0 0 0 0 0 0 0 0 0 0 0 0 127 0" result="hardAlpha"/><feOffset dy="4"/><feGaussianBlur stdDeviation="2"/><feComposite in2="hardAlpha" operator="out"/><feColorMatrix values="0 0 0 0 0 0 0 0 0 0 0 0 0 0 0 0 0 0 0.25 0"/><feBlend in2="BackgroundImageFix" result="effect1_dropShadow_1_6"/><feBlend in="SourceGraphic" in2="effect1_dropShadow_1_6" result="shape"/></filter></defs></svg>