<svg width="124" height="124" fill="none" xmlns="http://www.w3.org/2000/svg"><path d="M81.375 108.5a7.75 7.75 0 1 0 0-15.5 7.75 7.75 0 0 0 0 15.5Zm0-77.5a7.75 7.75 0 1 0 0-15.5 7.75 7.75 0 0 0 0 15.5ZM15.5 69.75a7.75 7.75 0 1 0 0-15.5 7.75 7.75 0 0 0 0 15.5Z" fill="#fff"/><path d="M108.5 46.5a15.484 15.484 0 0 0-14.95 11.625h-16.6a15.369 15.369 0 0 0-21.278-10.242L43.362 32.5a15.357 15.357 0 0 0 3.138-9.25A15.5 15.5 0 1 0 31 38.75a15.345 15.345 0 0 0 6.332-1.383L49.639 52.75a15.205 15.205 0 0 0 0 18.5L37.332 86.633A15.345 15.345 0 0 0 31 85.25a15.5 15.5 0 1 0 15.5 15.5 15.353 15.353 0 0 0-3.139-9.25l12.307-15.383A15.366 15.366 0 0 0 76.95 65.875h16.6A15.473 15.473 0 1 0 108.5 46.5ZM23.25 23.25A7.75 7.75 0 1 1 31 31a7.757 7.757 0 0 1-7.75-7.75ZM31 108.5a7.755 7.755 0 0 1-7.16-4.784A7.752 7.752 0 0 1 33.966 93.59a7.75 7.75 0 0 1 4.784 7.16A7.758 7.758 0 0 1 31 108.5Zm31-38.75A7.75 7.75 0 1 1 69.75 62 7.757 7.757 0 0 1 62 69.75Zm46.5 0a7.752 7.752 0 0 1-7.601-9.262 7.749 7.749 0 1 1 7.601 9.262Z" fill="#fff"/></svg>