<svg width="124" height="124" viewBox="0 0 124 124" fill="none" xmlns="http://www.w3.org/2000/svg">
<path d="M81.375 108.5C85.6552 108.5 89.125 105.03 89.125 100.75C89.125 96.4698 85.6552 93 81.375 93C77.0948 93 73.625 96.4698 73.625 100.75C73.625 105.03 77.0948 108.5 81.375 108.5Z" fill="white"/>
<path d="M81.375 31C85.6552 31 89.125 27.5302 89.125 23.25C89.125 18.9698 85.6552 15.5 81.375 15.5C77.0948 15.5 73.625 18.9698 73.625 23.25C73.625 27.5302 77.0948 31 81.375 31Z" fill="white"/>
<path d="M15.5 69.75C19.7802 69.75 23.25 66.2802 23.25 62C23.25 57.7198 19.7802 54.25 15.5 54.25C11.2198 54.25 7.75 57.7198 7.75 62C7.75 66.2802 11.2198 69.75 15.5 69.75Z" fill="white"/>
<path d="M108.5 46.5C105.073 46.5102 101.746 47.657 99.0408 49.7607C96.3355 51.8644 94.4044 54.8061 93.5503 58.125H76.9498C76.401 55.9397 75.3783 53.9018 73.9544 52.1557C72.5304 50.4096 70.7399 48.9979 68.7097 48.0207C66.6795 47.0435 64.4592 46.5246 62.2062 46.5009C59.9532 46.4772 57.7225 46.9492 55.6721 47.8834L43.3613 32.4996C45.3863 29.8402 46.4883 26.5926 46.5 23.25C46.5 20.1844 45.5909 17.1876 43.8878 14.6387C42.1846 12.0897 39.7639 10.103 36.9316 8.92987C34.0993 7.75672 30.9828 7.44976 27.9761 8.04784C24.9694 8.64591 22.2076 10.1221 20.0399 12.2899C17.8721 14.4576 16.3959 17.2194 15.7978 20.2261C15.1998 23.2328 15.5067 26.3493 16.6799 29.1816C17.853 32.0139 19.8397 34.4346 22.3887 36.1378C24.9376 37.8409 27.9344 38.75 31 38.75C33.185 38.7449 35.3437 38.2733 37.3318 37.3666L49.6388 52.7504C47.6044 55.4047 46.5019 58.6557 46.5019 62C46.5019 65.3443 47.6044 68.5953 49.6388 71.2496L37.3318 86.6334C35.3437 85.7267 33.185 85.2551 31 85.25C27.9344 85.25 24.9376 86.1591 22.3887 87.8622C19.8397 89.5654 17.853 91.9862 16.6799 94.8184C15.5067 97.6507 15.1998 100.767 15.7978 103.774C16.3959 106.781 17.8721 109.542 20.0399 111.71C22.2076 113.878 24.9694 115.354 27.9761 115.952C30.9828 116.55 34.0993 116.243 36.9316 115.07C39.7639 113.897 42.1846 111.91 43.8878 109.361C45.5909 106.812 46.5 103.816 46.5 100.75C46.4886 97.4073 45.3866 94.1597 43.3613 91.5004L55.6683 76.1166C57.7188 77.0516 59.9498 77.5241 62.2033 77.5007C64.4568 77.4774 66.6776 76.9587 68.7083 75.9814C70.739 75.0041 72.5299 73.5922 73.9541 71.8457C75.3784 70.0992 76.4011 68.0608 76.9498 65.875H93.5503C94.28 68.6749 95.7801 71.2141 97.8804 73.2043C99.9807 75.1945 102.597 76.5559 105.432 77.1339C108.267 77.7119 111.208 77.4833 113.919 76.4742C116.631 75.4651 119.006 73.7159 120.773 71.4251C122.541 69.1343 123.631 66.3938 123.919 63.5147C124.207 60.6357 123.682 57.7335 122.404 55.1377C121.126 52.5419 119.146 50.3565 116.688 48.8296C114.23 47.3028 111.393 46.4957 108.5 46.5ZM23.25 23.25C23.25 21.7172 23.7045 20.2188 24.5561 18.9443C25.4077 17.6699 26.6181 16.6765 28.0342 16.0899C29.4503 15.5034 31.0086 15.3499 32.512 15.6489C34.0153 15.948 35.3962 16.6861 36.4801 17.7699C37.5639 18.8538 38.3021 20.2347 38.6011 21.7381C38.9001 23.2414 38.7467 24.7997 38.1601 26.2158C37.5735 27.6319 36.5802 28.8423 35.3057 29.6939C34.0312 30.5455 32.5328 31 31 31C28.9452 30.998 26.9752 30.1808 25.5222 28.7278C24.0692 27.2749 23.2521 25.3048 23.25 23.25ZM31 108.5C29.4672 108.5 27.9688 108.045 26.6943 107.194C25.4199 106.342 24.4265 105.132 23.8399 103.716C23.2534 102.3 23.0999 100.741 23.3989 99.2381C23.698 97.7347 24.4361 96.3538 25.5199 95.2699C26.6038 94.1861 27.9847 93.448 29.4881 93.1489C30.9914 92.8499 32.5497 93.0034 33.9658 93.5899C35.3819 94.1765 36.5923 95.1699 37.4439 96.4443C38.2955 97.7188 38.75 99.2172 38.75 100.75C38.748 102.805 37.9308 104.775 36.4778 106.228C35.0249 107.681 33.0548 108.498 31 108.5ZM62 69.75C60.4672 69.75 58.9688 69.2955 57.6943 68.4439C56.4199 67.5923 55.4265 66.3819 54.8399 64.9658C54.2534 63.5497 54.0999 61.9914 54.3989 60.4881C54.698 58.9847 55.4361 57.6038 56.5199 56.5199C57.6038 55.4361 58.9847 54.698 60.4881 54.3989C61.9914 54.0999 63.5497 54.2534 64.9658 54.8399C66.3819 55.4265 67.5923 56.4199 68.4439 57.6943C69.2955 58.9688 69.75 60.4672 69.75 62C69.748 64.0548 68.9308 66.0249 67.4778 67.4778C66.0249 68.9308 64.0548 69.748 62 69.75ZM108.5 69.75C106.967 69.75 105.469 69.2955 104.194 68.4439C102.92 67.5923 101.927 66.3819 101.34 64.9658C100.753 63.5497 100.6 61.9914 100.899 60.4881C101.198 58.9847 101.936 57.6038 103.02 56.5199C104.104 55.4361 105.485 54.698 106.988 54.3989C108.491 54.0999 110.05 54.2534 111.466 54.8399C112.882 55.4265 114.092 56.4199 114.944 57.6943C115.795 58.9688 116.25 60.4672 116.25 62C116.248 64.0548 115.431 66.0249 113.978 67.4778C112.525 68.9308 110.555 69.748 108.5 69.75Z" fill="white"/>
</svg>
