<svg width="132" height="200" viewBox="0 0 132 200" fill="none" xmlns="http://www.w3.org/2000/svg">
<path fill-rule="evenodd" clip-rule="evenodd" d="M22.093 59.7344C25.6958 56.6136 29.6351 53.8708 33.849 51.5674C43.3802 46.3576 54.3165 43.3964 65.9426 43.3964C82.7369 43.3964 98.0918 49.5755 109.851 59.7855L131.433 24.5535L107.772 29.5203L102.16 7.91126L81.7731 20.7438L65.7695 0L49.9035 20.7438L28.5075 7.91126L23.9048 29.5203L0.568359 24.5535L22.093 59.7344ZM116.11 109.77C116.11 121.553 112.037 132.376 105.249 140.92L124.673 200H7.7939L26.9853 141.35C19.989 132.741 15.7788 121.752 15.7788 109.77C15.7788 82.0822 38.2394 59.638 65.9441 59.638C93.6489 59.638 116.11 82.0822 116.11 109.77ZM54.3602 133.658L40.3781 176.388H92.0403L77.9262 133.46L78.7673 132.995C86.9479 128.475 92.4828 119.768 92.4828 109.771C92.4828 95.125 80.6018 83.2509 65.944 83.2509C51.2863 83.2509 39.4053 95.125 39.4053 109.771C39.4053 119.921 45.1113 128.741 53.4988 133.2L54.3602 133.658Z" fill="white"/>
</svg>
