<svg width="48" height="43" fill="none" xmlns="http://www.w3.org/2000/svg"><path d="M39.466 13.842a32.125 32.125 0 0 0-1.545-.487c.087-.356.167-.708.238-1.054 1.17-5.677.405-10.251-2.206-11.757-2.505-1.444-6.6.061-10.736 3.66-.407.356-.806.722-1.195 1.097a27.62 27.62 0 0 0-.795-.734C18.892.718 14.547-.903 11.939.607c-2.502 1.448-3.243 5.748-2.19 11.129.105.532.223 1.063.355 1.59-.615.174-1.209.36-1.777.558C3.245 15.656 0 18.433 0 21.313c0 2.975 3.484 5.958 8.777 7.768.43.146.862.28 1.298.405a31.434 31.434 0 0 0-.377 1.714c-1.004 5.287-.22 9.486 2.275 10.925 2.577 1.486 6.902-.041 11.114-3.723.341-.3.675-.607 1.002-.923.42.406.854.801 1.297 1.184 4.08 3.51 8.109 4.928 10.601 3.485 2.575-1.49 3.412-6.001 2.325-11.488a27.05 27.05 0 0 0-.288-1.283c.304-.09.602-.183.893-.279C44.42 27.275 48 24.328 48 21.313c0-2.89-3.35-5.686-8.534-7.47Zm-1.194 13.31c-.262.086-.532.17-.806.252-.608-1.923-1.427-3.968-2.43-6.081.957-2.063 1.745-4.081 2.335-5.992.491.142.968.292 1.427.45 4.442 1.53 7.151 3.79 7.151 5.532 0 1.856-2.926 4.264-7.677 5.839Zm-1.971 3.906c.48 2.426.549 4.62.23 6.335-.285 1.541-.86 2.569-1.571 2.98-1.513.876-4.748-.262-8.237-3.265a29.359 29.359 0 0 1-1.206-1.1c1.352-1.48 2.704-3.199 4.023-5.109 2.32-.206 4.513-.543 6.5-1.002.097.385.183.772.26 1.161Zm-19.937 9.164c-1.478.522-2.655.537-3.366.126-1.514-.873-2.144-4.244-1.285-8.766a29.95 29.95 0 0 1 .35-1.593c1.966.435 4.143.747 6.469.936a49.91 49.91 0 0 0 4.12 5.09 25.28 25.28 0 0 1-.914.843c-1.863 1.628-3.729 2.783-5.374 3.364ZM9.441 27.14c-2.34-.8-4.274-1.84-5.599-2.974-1.19-1.02-1.791-2.032-1.791-2.853 0-1.748 2.605-3.977 6.951-5.492a29.72 29.72 0 0 1 1.653-.52 49.178 49.178 0 0 0 2.34 6.062 49.956 49.956 0 0 0-2.37 6.148 25.29 25.29 0 0 1-1.184-.37Zm2.32-15.799c-.902-4.61-.302-8.087 1.205-8.96 1.606-.93 5.157.396 8.9 3.72.244.216.484.438.72.664a49.142 49.142 0 0 0-4.09 5.06 50.24 50.24 0 0 0-6.404.995 30.13 30.13 0 0 1-.33-1.478Zm20.706 5.113c-.47-.81-.956-1.61-1.46-2.4 1.531.193 2.999.45 4.377.765a43.784 43.784 0 0 1-1.537 4.133 71.377 71.377 0 0 0-1.38-2.498ZM24.023 8.23a43.885 43.885 0 0 1 2.825 3.41 59.965 59.965 0 0 0-5.673 0 45.234 45.234 0 0 1 2.848-3.41Zm-8.498 8.238a60.554 60.554 0 0 0-1.355 2.483 45.28 45.28 0 0 1-1.525-4.154c1.37-.306 2.83-.557 4.352-.747-.51.794-1 1.6-1.472 2.418Zm1.516 12.254a43.645 43.645 0 0 1-4.424-.711 45.907 45.907 0 0 1 1.556-4.238 60.343 60.343 0 0 0 2.868 4.949Zm7.039 5.818a45.98 45.98 0 0 1-2.888-3.456c.919.036 1.856.054 2.808.054.978 0 1.945-.022 2.897-.064a43.597 43.597 0 0 1-2.817 3.466Zm9.787-10.84a43.51 43.51 0 0 1 1.612 4.222 43.53 43.53 0 0 1-4.478.763c.507-.804.999-1.618 1.474-2.442.483-.838.947-1.686 1.392-2.544Zm-3.169 1.518a67.221 67.221 0 0 1-2.302 3.715 61.42 61.42 0 0 1-4.396.155c-1.494 0-2.947-.047-4.346-.137a58.203 58.203 0 0 1-2.346-3.721 57.615 57.615 0 0 1-2.048-3.868 58.12 58.12 0 0 1 2.042-3.87 57.593 57.593 0 0 1 2.327-3.705 58.049 58.049 0 0 1 4.37-.164H24c1.486 0 2.952.057 4.379.166a61.767 61.767 0 0 1 2.313 3.693 67.253 67.253 0 0 1 2.069 3.85 61.743 61.743 0 0 1-2.063 3.886Zm4.23-22.898c1.608.927 2.233 4.665 1.223 9.567-.065.313-.137.632-.216.955a49.093 49.093 0 0 0-6.418-1.014c-1.319-1.878-2.685-3.586-4.057-5.064.36-.347.727-.684 1.104-1.013 3.543-3.084 6.855-4.301 8.364-3.431ZM24 17.027a4.286 4.286 0 1 1 0 8.572 4.286 4.286 0 0 1 0-8.572Z" fill="#00D8FF"/></svg>