<svg xmlns="http://www.w3.org/2000/svg" viewBox="0 0 146.41 125.59"><defs><clipPath id="clip-path" transform="translate(.01 .01)"><path style="fill:none" d="M0 0h146.42v125.48H0z"/></clipPath><style>.cls-3{fill:#a32422}.cls-4{fill:#dc382c}.cls-5{fill:#fff}</style></defs><g id="Layer_2" data-name="Layer 2"><g id="Layer_1-2" data-name="Layer 1"><g style="clip-path:url(#clip-path)"><path class="cls-3" d="M140.66 96.74c-7.8 4.08-48.28 20.73-57 25.3s-13.39 4.44-20.21 1.18S13.7 102.5 5.92 98.78C2 96.94 0 95.37 0 93.9V79.09s56.08-12.17 65.13-15.45S77.31 60.28 85 63.1s53.79 11.14 61.4 13.9v14.6c0 1.52-1.75 3-5.74 5.13Z" transform="translate(.01 .01)"/><path class="cls-4" d="M140.66 82c-7.8 4.06-48.28 20.71-57 25.2s-13.39 4.45-20.21 1.2S13.7 87.69 5.92 84s-7.93-6.27-.3-9.25S56.08 55 65.13 51.7s12.18-3.37 19.87-.54S133 70 140.57 72.79s7.92 5.08.09 9.13Z" transform="translate(.01 .01)"/><path class="cls-3" d="M140.66 72.62c-7.8 4.07-48.28 20.71-57 25.2S70.31 102.27 63.49 99 13.7 78.37 5.92 74.66C2 72.8 0 71.24 0 69.76V55s56.08-12.21 65.13-15.49S77.31 36.14 85 39s53.79 11.1 61.4 13.88v14.6c0 1.52-1.75 3.04-5.74 5.14Z" transform="translate(.01 .01)"/><path class="cls-4" d="M140.66 57.81c-7.8 4.08-48.28 20.72-57 25.21s-13.39 4.46-20.21 1.2S13.7 63.57 5.92 59.85s-7.92-6.25-.3-9.23 50.46-19.79 59.51-23S77.31 24.21 85 27s48 18.94 55.57 21.65 7.92 5.09.09 9.13Z" transform="translate(.01 .01)"/><path class="cls-3" d="M140.66 47.59c-7.8 4.08-48.28 20.73-57 25.21S70.31 77.25 63.49 74 13.7 53.34 5.92 49.63C2 47.79 0 46.22 0 44.74V29.93s56.08-12.17 65.13-15.44 12.18-3.37 19.87-.55 53.77 11.14 61.38 13.92v14.6c.02 1.54-1.73 3.04-5.72 5.13Z" transform="translate(.01 .01)"/><path class="cls-4" d="M140.66 32.8c-7.8 4-48.28 20.75-57 25.2s-13.39 4.44-20.21 1.2S13.7 38.53 5.92 34.83s-7.93-6.27-.3-9.25S56.08 5.8 65.13 2.54 77.31-.82 85 2s48 18.85 55.57 21.63 7.92 5.09.09 9.14Z" transform="translate(.01 .01)"/></g><path class="cls-5" d="m75.51 11.78 9.66-3.17-2.62 6.26 9.83 3.68-12.67 1.32-2.85 6.84-4.58-7.63-14.65-1.32 10.94-3.94-3.29-6.06 10.23 4.02zm.61 39.93-23.68-9.83 33.92-5.21-10.24 15.04z"/><path class="cls-5" d="M43.28 22.34c10 0 18.13 3.15 18.13 7s-8.15 7-18.13 7-18.14-3.15-18.14-7 8.13-7 18.14-7Z" transform="translate(.01 .01)"/><path style="fill:#741113" d="m107.39 20.42 20.07 7.93-20.05 7.93-.02-15.86z"/><path style="fill:#ac2724" d="m107.39 20.42.02 15.86-2.18.85-20.06-7.93 22.22-8.78z"/></g></g></svg>