<svg width="92" height="69" fill="none" xmlns="http://www.w3.org/2000/svg"><path d="M18.914 66.934c4.835 0 9.081-1.405 12.74-4.214 3.659-2.875 5.488-7.22 5.488-13.034 0-2.613-.653-4.835-1.96-6.664-1.241-1.895-2.907-3.332-4.998-4.312-2.09-1.045-4.377-1.927-6.86-2.646-2.483-.784-4.965-1.6-7.448-2.45-2.483-.85-4.77-1.862-6.86-3.038-2.09-1.176-3.79-2.842-5.096-4.998-1.241-2.156-1.862-4.737-1.862-7.742 0-5.227 1.797-9.506 5.39-12.838C11.041 1.666 15.843 0 21.854 0c6.01 0 11.76.686 17.248 2.058l1.078 12.25-1.862.784-.98-7.742c-4.835-3.593-9.375-5.39-13.622-5.39s-7.807 1.307-10.682 3.92c-2.875 2.548-4.312 6.403-4.312 11.564 0 3.005 1.209 5.39 3.626 7.154 2.417 1.764 5.325 3.136 8.722 4.116 3.463.98 6.893 2.09 10.29 3.332 3.463 1.241 6.403 3.332 8.82 6.272 2.417 2.94 3.626 6.762 3.626 11.466 0 6.337-2.254 11.107-6.762 14.308-4.508 3.201-10.453 4.802-17.836 4.802-7.383 0-13.785-1.993-19.208-5.978l.098-10.388 1.862-.49.196 5.586c1.764 2.483 4.181 4.671 7.252 6.566 3.07 1.83 6.24 2.744 9.506 2.744Z" fill="#fff"/><path d="M57.69 68.887h7.007L83.17 44.408c2.851-3.761 5.005-7.371 6.46-10.829 1.457-3.519 2.185-7.28 2.185-11.284 0-4.368-.94-8.22-2.821-11.557-1.82-3.337-4.368-5.945-7.644-7.826C78.135.971 74.434 0 70.248 0c-4.065 0-7.735.94-11.011 2.821-3.276 1.82-5.885 4.338-7.826 7.553-1.88 3.215-2.821 6.916-2.821 11.102 0 4.247.94 7.978 2.82 11.193 1.882 3.215 4.4 5.733 7.554 7.553 3.154 1.82 6.673 2.73 10.556 2.73 1.638 0 3.246-.182 4.823-.546a16.081 16.081 0 0 0 4.64-1.82L57.69 68.887Zm12.558-31.304c-3.034 0-5.733-.698-8.1-2.093-2.365-1.395-4.216-3.306-5.55-5.733-1.335-2.487-2.002-5.278-2.002-8.372 0-3.155.667-5.945 2.002-8.372 1.395-2.427 3.276-4.338 5.642-5.733 2.366-1.395 5.035-2.093 8.008-2.093 2.972 0 5.611.698 7.917 2.093 2.366 1.395 4.246 3.306 5.642 5.733 1.395 2.427 2.093 5.217 2.093 8.372 0 3.094-.698 5.885-2.093 8.372-1.335 2.427-3.185 4.338-5.551 5.733-2.305 1.395-4.975 2.093-8.008 2.093Z" fill="#ED4C5C"/></svg>