<svg width="91" height="56" fill="none" xmlns="http://www.w3.org/2000/svg"><path d="M21.408 55.864c3.408 0 6.408-.624 9-1.872 2.64-1.248 4.68-2.952 6.12-5.112 1.488-2.208 2.232-4.752 2.232-7.632 0-3.552-1.08-6.504-3.24-8.856-2.16-2.352-5.352-4.152-9.576-5.4l-8.496-2.52c-2.88-.864-5.016-2.16-6.408-3.888-1.392-1.776-2.088-3.768-2.088-5.976 0-2.736.96-4.896 2.88-6.48 1.92-1.632 4.416-2.448 7.488-2.448 3.264 0 6.096.816 8.496 2.448 2.448 1.632 4.248 4.032 5.4 7.2l5.04-2.016c-.768-2.352-2.04-4.488-3.816-6.408-1.776-1.92-3.96-3.456-6.552-4.608-2.544-1.2-5.424-1.8-8.64-1.8-3.072 0-5.832.624-8.28 1.872-2.4 1.248-4.296 2.976-5.688 5.184-1.392 2.16-2.088 4.656-2.088 7.488 0 3.312 1.008 6.264 3.024 8.856 2.064 2.592 4.992 4.44 8.784 5.544l9.648 2.88c2.688.768 4.752 1.872 6.192 3.312 1.44 1.44 2.16 3.48 2.16 6.12 0 2.688-1.08 4.848-3.24 6.48-2.112 1.632-4.896 2.448-8.352 2.448-3.648 0-6.792-.936-9.432-2.808-2.64-1.92-4.584-4.704-5.832-8.352L.96 41.464c.816 2.64 2.184 5.064 4.104 7.272 1.92 2.16 4.272 3.888 7.056 5.184 2.784 1.296 5.88 1.944 9.288 1.944ZM49.883 55h5.76V12.376L85.163 55h5.04V1.36h-5.76v42.336L54.923 1.36h-5.04V55Z" fill="#FFD93F"/></svg>