<svg width="219" height="158" fill="none" xmlns="http://www.w3.org/2000/svg"><path d="M6.636 156.924c-2.318 0-3.997-.526-5.057-1.579C.526 154.285 0 152.614 0 150.326c0-.229.076-.419.229-.572a.779.779 0 0 1 .572-.229.779.779 0 0 1 .801.801c0 1.854.374 3.15 1.121 3.89.755.74 2.052 1.106 3.913 1.106h5.493c1.853 0 3.158-.366 3.905-1.106.755-.74 1.13-2.036 1.13-3.89 0-1.853-.375-3.15-1.13-3.89-.747-.739-2.052-1.106-3.905-1.106H6.75c-2.19 0-3.784-.495-4.79-1.487-1-.991-1.503-2.578-1.503-4.767 0-2.189.503-3.775 1.502-4.767 1.007-.991 2.586-1.487 4.753-1.487h5.606c2.159 0 3.746.496 4.745 1.487 1.007.992 1.51 2.57 1.51 4.729a.776.776 0 0 1-.229.572.774.774 0 0 1-.572.229.775.775 0 0 1-.572-.229.777.777 0 0 1-.229-.572c0-1.701-.35-2.898-1.052-3.585-.694-.686-1.9-1.03-3.6-1.03H6.712c-1.709 0-2.907.344-3.608 1.03-.694.687-1.045 1.899-1.045 3.623 0 1.731.35 2.937 1.045 3.623.701.687 1.914 1.03 3.646 1.03h5.378c2.31 0 3.997.526 5.05 1.586 1.06 1.053 1.586 2.723 1.586 5.011 0 2.288-.526 3.959-1.587 5.019-1.052 1.053-2.738 1.579-5.05 1.579h-5.49Zm25.707.077a.779.779 0 0 1-.8-.801v-21.814H23.19a.774.774 0 0 1-.573-.229.775.775 0 0 1-.228-.572c0-.229.076-.419.229-.572a.774.774 0 0 1 .572-.229h18.307c.229 0 .42.076.572.229a.776.776 0 0 1 .229.572c0 .229-.077.42-.23.572a.774.774 0 0 1-.571.229h-8.353V156.2a.779.779 0 0 1-.801.801Zm32.724-1.107c.122.206.19.374.19.496 0 .259-.144.458-.419.61-.183.099-.343.153-.496.153-.26 0-.457-.122-.61-.382l-6.37-9.991h-7.551v9.381c0 .534-.267.801-.801.801s-.801-.267-.801-.801v-22.538c0-.534.267-.801.8-.801h8.926c2.105 0 3.707.541 4.782 1.624 1.084 1.076 1.625 2.67 1.625 4.783v1.144c0 3.79-1.709 5.896-5.11 6.33l5.835 9.191ZM49.81 145.178h8.124c1.647 0 2.868-.389 3.638-1.159.778-.778 1.167-1.991 1.167-3.646v-1.144c0-1.648-.389-2.868-1.167-3.639-.77-.778-1.99-1.167-3.638-1.167H49.81v10.755Zm40.964 10.64a.963.963 0 0 1 .115.419c0 .283-.183.496-.534.649a1.203 1.203 0 0 1-.382.076c-.282 0-.496-.16-.648-.496l-2.708-6.369c-.076.031-.206.039-.382.039H74.222c-.13 0-.22-.008-.267-.039l-2.746 6.369c-.152.336-.381.496-.686.496-.054 0-.183-.023-.382-.076-.335-.153-.496-.382-.496-.687 0-.053.023-.175.077-.381l9.573-22.386c.153-.404.458-.61.915-.61h.115c.427 0 .732.206.915.61l9.535 22.386Zm-16.133-7.284h11.29l-5.607-13.195-5.683 13.195Zm26.392 8.467a.777.777 0 0 1-.572-.229.775.775 0 0 1-.229-.572v-21.814h-8.353a.775.775 0 0 1-.572-.229.775.775 0 0 1-.229-.572c0-.229.076-.419.229-.572a.775.775 0 0 1 .572-.229h18.307c.229 0 .42.076.572.229a.775.775 0 0 1 .229.572c0 .229-.076.42-.229.572a.773.773 0 0 1-.572.229h-8.352V156.2a.779.779 0 0 1-.801.801Zm23.227-.039c-2.7 0-4.661-.618-5.896-1.846-1.229-1.235-1.846-3.196-1.846-5.896v-15.597a.777.777 0 0 1 .801-.801c.228 0 .419.076.572.229a.777.777 0 0 1 .229.572v15.597c0 2.243.465 3.822 1.388 4.752.93.923 2.509 1.388 4.752 1.388h4.577c2.258 0 3.852-.465 4.767-1.388.916-.93 1.373-2.509 1.373-4.752v-15.597c0-.229.077-.42.229-.572a.776.776 0 0 1 .572-.229c.229 0 .42.076.572.229a.773.773 0 0 1 .229.572v15.597c0 2.7-.61 4.661-1.83 5.896-1.221 1.228-3.196 1.846-5.912 1.846h-4.577Zm42.336-24.14c.504 0 .763.267.763.801v22.538c0 .534-.267.801-.801.801s-.801-.267-.801-.801v-20.098l-8.62 13.272c-.206.358-.526.534-.953.534-.435 0-.755-.176-.954-.534l-8.657-13.31v20.136c0 .534-.267.801-.801.801s-.801-.267-.801-.801v-22.538c0-.534.267-.801.801-.801.427 0 .747.183.953.534l9.459 14.568 9.459-14.568c.198-.351.518-.534.953-.534Zm18.194 24.14c-.663 0-1.182-.419-1.564-1.258l-9.42-22.31c-.13-.328-.191-.61-.191-.839 0-.534.305-.938.916-1.22.305-.153.61-.229.915-.229.61 0 1.037.343 1.297 1.03l8.352 19.754 8.124-19.754c.275-.687.71-1.03 1.297-1.03.275 0 .58.076.915.229.58.282.878.717.878 1.296 0 .283-.054.534-.153.763l-9.497 22.31c-.412.839-.984 1.258-1.716 1.258h-.153Zm18.039 0c-.534 0-.946-.129-1.221-.396-.282-.267-.419-.671-.419-1.205 0-2.083.42-3.829 1.259-5.24s1.762-2.487 2.784-3.227c1.014-.732 2.41-1.617 4.195-2.631 1.854-1.045 3.158-1.808 3.906-2.303.755-.496 1.35-1.045 1.792-1.64.45-.603.672-1.32.672-2.159 0-1.014-.115-1.8-.344-2.341a2.082 2.082 0 0 0-1.167-1.167c-.541-.229-1.327-.344-2.342-.344h-4.081c-1.22 0-2.113.168-2.669.496-.565.336-.916.915-1.068 1.754-.107.534-.282.931-.534 1.183-.26.259-.641.381-1.144.381-.534 0-.946-.145-1.221-.435-.282-.297-.397-.709-.343-1.243.274-1.808.992-3.142 2.136-4.02 1.144-.877 2.753-1.319 4.843-1.319h4.081c2.388 0 4.165.58 5.317 1.739 1.16 1.152 1.739 2.929 1.739 5.316 0 1.426-.351 2.654-1.052 3.684a9.1 9.1 0 0 1-2.533 2.532c-.991.664-2.471 1.556-4.424 2.67-1.48.839-2.578 1.51-3.303 2.006-.725.496-1.388 1.129-1.998 1.907-.611.77-1.007 1.708-1.183 2.799h12.586c.504 0 .901.137 1.183.419.274.283.419.672.419 1.183s-.145.907-.419 1.182c-.282.282-.679.419-1.183.419h-14.264Z" fill="#5BEBF3"/><path d="m66.064 74.566 17.004-8.254 17.004 8.254m-34.008 0 34.008 16.508V74.566m-34.008 0v16.508l51.012 24.763V65.838L83.068 49.804m17.004 24.762L66.064 58.058V8.535m85.02 41.27V33.296L134.08 41.55m17.004 8.254L134.08 41.55m17.004 8.254-34.008 16.508-34.008-16.508m51.012-8.254-17.004 8.254M83.068 33.296l17.004 8.254m-17.004-8.254v16.508m0-16.508 34.008 16.508m-17.004-8.254-17.004 8.254m17.004-8.254 17.004 8.254m0 0V33.296m0 0L66.065 8.534m51.011 24.762 51.09-24.8-15.129-7.343-35.961 17.456L81.271 1.153 66.064 8.534m85.021 57.779-17.004 8.254v16.508l34.008-16.508-17.004-8.254Zm17.002 25.162-51.012 23.293V65.174l34.008-15.058V33.742L117.075 49.27V32.896l51.012-23.292v49.123l-34.008 15.527V90.63l34.008-15.53v16.374Z" stroke="#5BEBF3" stroke-width="2" stroke-miterlimit="1.5" stroke-linecap="round" stroke-linejoin="round"/></svg>