<svg width="124" height="99" viewBox="0 0 124 99" fill="none" xmlns="http://www.w3.org/2000/svg">
<path d="M3.75761 98.071C2.44462 98.071 1.49442 97.773 0.894074 97.177C0.298044 96.5766 0 95.6308 0 94.3351C0 94.2055 0.0432116 94.0975 0.129593 94.0111C0.215974 93.9247 0.32395 93.8815 0.453522 93.8815C0.583093 93.8815 0.69107 93.9247 0.777451 94.0111C0.863832 94.0975 0.907044 94.2055 0.907044 94.3351C0.907044 95.3846 1.11866 96.1188 1.54193 96.5378C1.96952 96.9567 2.70376 97.1641 3.75761 97.1641H6.86731C7.91684 97.1641 8.65539 96.9567 9.07866 96.5378C9.50625 96.1188 9.71787 95.3846 9.71787 94.3351C9.71787 93.2855 9.50625 92.5513 9.07866 92.1324C8.65539 91.7134 7.91684 91.5061 6.86731 91.5061H3.82241C2.58284 91.5061 1.68014 91.2253 1.11003 90.6639C0.54423 90.1024 0.259185 89.204 0.259185 87.9645C0.259185 86.7249 0.54423 85.8265 1.11003 85.265C1.68014 84.7036 2.57418 84.4229 3.80079 84.4229H6.97528C8.19758 84.4229 9.09598 84.7036 9.66178 85.265C10.2319 85.8265 10.5169 86.7205 10.5169 87.9428C10.5169 88.0724 10.4737 88.1804 10.3873 88.2668C10.301 88.3531 10.193 88.3964 10.0634 88.3964C9.93385 88.3964 9.82587 88.3531 9.73949 88.2668C9.65311 88.1804 9.6099 88.0724 9.6099 87.9428C9.6099 86.9797 9.41127 86.3016 9.01392 85.9129C8.62088 85.5242 7.93843 85.3298 6.97528 85.3298H3.80079C2.83332 85.3298 2.15524 85.5242 1.75788 85.9129C1.36485 86.3016 1.16618 86.9883 1.16618 87.9645C1.16618 88.9449 1.36485 89.6273 1.75788 90.016C2.15524 90.4047 2.84198 90.5991 3.82241 90.5991H6.86731C8.17598 90.5991 9.13049 90.8971 9.72652 91.4975C10.3269 92.0935 10.6249 93.0393 10.6249 94.3351C10.6249 95.6308 10.3269 96.5766 9.72652 97.177C9.13049 97.773 8.17598 98.071 6.86731 98.071H3.75761Z" fill="white"/>
<path d="M18.3131 98.1144C18.1835 98.1144 18.0755 98.0712 17.9892 97.9848C17.9028 97.8984 17.8596 97.7904 17.8596 97.6608V85.3084H13.1302C13.0007 85.3084 12.8927 85.2652 12.8063 85.1788C12.7199 85.0924 12.6768 84.9845 12.6768 84.8549C12.6768 84.7253 12.7199 84.6173 12.8063 84.531C12.8927 84.4446 13.0007 84.4014 13.1302 84.4014H23.496C23.6255 84.4014 23.7335 84.4446 23.8199 84.531C23.9063 84.6173 23.9495 84.7253 23.9495 84.8549C23.9495 84.9845 23.9063 85.0924 23.8199 85.1788C23.7335 85.2652 23.6255 85.3084 23.496 85.3084H18.7666V97.6608C18.7666 97.7904 18.7234 97.8984 18.637 97.9848C18.5506 98.0712 18.4427 98.1144 18.3131 98.1144Z" fill="white"/>
<path d="M36.8415 97.488C36.9106 97.6046 36.9495 97.6996 36.9495 97.7687C36.9495 97.9155 36.8674 98.0278 36.7119 98.1142C36.6082 98.1704 36.5176 98.2006 36.4312 98.2006C36.2843 98.2006 36.172 98.1315 36.0857 97.9846L32.4793 92.3267H28.2034V97.6391C28.2034 97.9415 28.0522 98.0926 27.7499 98.0926C27.4475 98.0926 27.2964 97.9415 27.2964 97.6391V84.8763C27.2964 84.574 27.4475 84.4229 27.7499 84.4229H32.8032C33.9952 84.4229 34.9022 84.7295 35.5112 85.3428C36.1245 85.9518 36.4312 86.8544 36.4312 88.0508V88.6987C36.4312 90.8452 35.4637 92.0373 33.5374 92.2835L36.8415 97.488ZM28.2034 91.4197H32.8032C33.7361 91.4197 34.4272 91.1994 34.8634 90.7632C35.3039 90.3226 35.5242 89.6359 35.5242 88.6987V88.0508C35.5242 87.1179 35.3039 86.4269 34.8634 85.9907C34.4272 85.5501 33.7361 85.3298 32.8032 85.3298H28.2034V91.4197Z" fill="white"/>
<path d="M51.3964 97.4448C51.4396 97.5311 51.4612 97.6132 51.4612 97.6823C51.4612 97.8421 51.3575 97.9631 51.1589 98.0494C51.0725 98.0797 50.9991 98.0926 50.9429 98.0926C50.7831 98.0926 50.6622 98.002 50.5758 97.8119L49.0425 94.2055C48.9993 94.2227 48.9259 94.2271 48.8266 94.2271H42.024C41.9506 94.2271 41.8988 94.2227 41.8729 94.2055L40.318 97.8119C40.2317 98.002 40.1021 98.0926 39.9293 98.0926C39.8991 98.0926 39.8257 98.0797 39.7134 98.0494C39.5233 97.9631 39.4326 97.8335 39.4326 97.6607C39.4326 97.6305 39.4456 97.5614 39.4758 97.4448L44.8962 84.7683C44.9826 84.5394 45.1554 84.4229 45.4145 84.4229H45.4793C45.7212 84.4229 45.8939 84.5394 45.9976 84.7683L51.3964 97.4448ZM42.2616 93.3201H48.6538L45.4793 85.8481L42.2616 93.3201Z" fill="white"/>
<path d="M57.2057 98.1144C57.0761 98.1144 56.9682 98.0712 56.8818 97.9848C56.7954 97.8984 56.7522 97.7904 56.7522 97.6608V85.3084H52.0229C51.8933 85.3084 51.7853 85.2652 51.6989 85.1788C51.6125 85.0924 51.5693 84.9845 51.5693 84.8549C51.5693 84.7253 51.6125 84.6173 51.6989 84.531C51.7853 84.4446 51.8933 84.4014 52.0229 84.4014H62.3886C62.5182 84.4014 62.6261 84.4446 62.7125 84.531C62.7989 84.6173 62.8421 84.7253 62.8421 84.8549C62.8421 84.9845 62.7989 85.0924 62.7125 85.1788C62.6261 85.2652 62.5182 85.3084 62.3886 85.3084H57.6592V97.6608C57.6592 97.7904 57.616 97.8984 57.5297 97.9848C57.4433 98.0712 57.3353 98.1144 57.2057 98.1144Z" fill="white"/>
<path d="M70.3575 98.0926C68.8286 98.0926 67.7185 97.7428 67.0189 97.0474C66.3235 96.3477 65.9736 95.2378 65.9736 93.7088V84.8763C65.9736 84.7467 66.0168 84.6388 66.1032 84.5524C66.1896 84.466 66.2976 84.4229 66.4272 84.4229C66.5567 84.4229 66.6647 84.466 66.7511 84.5524C66.8375 84.6388 66.8807 84.7467 66.8807 84.8763V93.7088C66.8807 94.9786 67.1441 95.8727 67.6667 96.3996C68.1936 96.9222 69.0877 97.1856 70.3575 97.1856H72.949C74.2274 97.1856 75.1301 96.9222 75.6484 96.3996C76.1667 95.8727 76.4257 94.9786 76.4257 93.7088V84.8763C76.4257 84.7467 76.4689 84.6388 76.5553 84.5524C76.6417 84.466 76.7497 84.4229 76.8792 84.4229C77.0088 84.4229 77.1168 84.466 77.2032 84.5524C77.2896 84.6388 77.3328 84.7467 77.3328 84.8763V93.7088C77.3328 95.2378 76.9873 96.3477 76.2962 97.0474C75.6052 97.7428 74.4866 98.0926 72.949 98.0926H70.3575Z" fill="white"/>
<path d="M94.3285 84.4229C94.6136 84.4229 94.7604 84.574 94.7604 84.8763V97.6391C94.7604 97.9415 94.6093 98.0926 94.3069 98.0926C94.0046 98.0926 93.8534 97.9415 93.8534 97.6391V86.2584L88.9729 93.7736C88.8562 93.9766 88.6748 94.0759 88.433 94.0759C88.1868 94.0759 88.0054 93.9766 87.8931 93.7736L82.991 86.2368V97.6391C82.991 97.9415 82.8398 98.0926 82.5375 98.0926C82.2352 98.0926 82.084 97.9415 82.084 97.6391V84.8763C82.084 84.574 82.2352 84.4229 82.5375 84.4229C82.7794 84.4229 82.9608 84.5265 83.0774 84.7252L88.433 92.9745L93.7887 84.7252C93.901 84.5265 94.0824 84.4229 94.3285 84.4229Z" fill="white"/>
<path d="M104.629 98.0927C104.253 98.0927 103.96 97.8552 103.744 97.3801L98.4097 84.7469C98.3363 84.5612 98.3018 84.4013 98.3018 84.2717C98.3018 83.9694 98.4745 83.7405 98.82 83.5807C98.9928 83.4943 99.1655 83.4512 99.3383 83.4512C99.6838 83.4512 99.9257 83.6455 100.073 84.0342L104.802 95.2206L109.402 84.0342C109.557 83.6455 109.803 83.4512 110.136 83.4512C110.291 83.4512 110.464 83.4943 110.654 83.5807C110.982 83.7405 111.151 83.9867 111.151 84.315C111.151 84.4748 111.121 84.6173 111.065 84.7469L105.687 97.3801C105.454 97.8552 105.13 98.0927 104.715 98.0927H104.629Z" fill="white"/>
<path d="M114.843 98.0927C114.541 98.0927 114.308 98.0193 114.152 97.8682C113.993 97.717 113.915 97.4881 113.915 97.1857C113.915 96.0066 114.152 95.0176 114.628 94.2185C115.103 93.4195 115.625 92.8105 116.204 92.3916C116.778 91.977 117.569 91.476 118.579 90.9015C119.629 90.3098 120.368 89.8779 120.791 89.5972C121.218 89.3164 121.555 89.0055 121.806 88.6686C122.061 88.3274 122.186 87.9214 122.186 87.4463C122.186 86.8719 122.121 86.427 121.991 86.1203C121.862 85.8093 121.642 85.5891 121.331 85.4595C121.024 85.3299 120.579 85.2652 120.005 85.2652H117.694C117.003 85.2652 116.498 85.3602 116.182 85.5459C115.863 85.7359 115.664 86.0642 115.578 86.5393C115.517 86.8416 115.418 87.0662 115.275 87.2087C115.129 87.3556 114.913 87.4247 114.628 87.4247C114.325 87.4247 114.092 87.3426 113.936 87.1785C113.777 87.0101 113.712 86.7768 113.742 86.4745C113.898 85.4509 114.304 84.6951 114.951 84.1984C115.599 83.7017 116.511 83.4512 117.694 83.4512H120.005C121.357 83.4512 122.363 83.7794 123.015 84.4359C123.672 85.0881 124 86.0944 124 87.4463C124 88.254 123.801 88.9493 123.404 89.5324C123.011 90.1155 122.531 90.5948 121.97 90.9663C121.408 91.342 120.571 91.8474 119.465 92.478C118.627 92.953 118.005 93.3331 117.595 93.6139C117.184 93.8946 116.809 94.2531 116.463 94.6936C116.118 95.1299 115.893 95.6611 115.794 96.2787H122.92C123.205 96.2787 123.43 96.3565 123.59 96.5163C123.745 96.6761 123.827 96.8964 123.827 97.1857C123.827 97.4751 123.745 97.6997 123.59 97.8552C123.43 98.015 123.205 98.0927 122.92 98.0927H114.843Z" fill="white"/>
<path fill-rule="evenodd" clip-rule="evenodd" d="M47.033 46.7597L37.4053 51.4336L56.6608 60.7814L56.6609 51.4336L47.033 46.7597Z" stroke="white" stroke-width="1.49096" stroke-miterlimit="1.5" stroke-linecap="round" stroke-linejoin="round"/>
<path fill-rule="evenodd" clip-rule="evenodd" d="M85.5442 46.7605L75.9164 51.4345L75.9164 60.7824L95.172 51.4345L85.5442 46.7605Z" stroke="white" stroke-width="1.49096" stroke-miterlimit="1.5" stroke-linecap="round" stroke-linejoin="round"/>
<path fill-rule="evenodd" clip-rule="evenodd" d="M85.5443 28.0653L85.5443 37.4132L75.9165 32.7393L85.5443 28.0653Z" stroke="white" stroke-width="1.49096" stroke-miterlimit="1.5" stroke-linecap="round" stroke-linejoin="round"/>
<path fill-rule="evenodd" clip-rule="evenodd" d="M47.0331 28.0653L56.6609 32.7393L47.0331 37.4132L47.0331 28.0653Z" stroke="white" stroke-width="1.49096" stroke-miterlimit="1.5" stroke-linecap="round" stroke-linejoin="round"/>
<path fill-rule="evenodd" clip-rule="evenodd" d="M56.661 32.7382L47.0332 37.4121L66.2887 46.76L85.5444 37.4121L75.9167 32.7382L66.2888 37.4122L56.661 32.7382Z" stroke="white" stroke-width="1.49096" stroke-miterlimit="1.5" stroke-linecap="round" stroke-linejoin="round"/>
<path fill-rule="evenodd" clip-rule="evenodd" d="M37.4053 60.7824L66.2885 74.8049V46.492L47.0331 37.4127V28.0648L66.2885 37.4127V28.0648L37.4053 14.043V42.0867L56.661 51.4347V60.7824L37.4053 51.4347V60.7824Z" stroke="white" stroke-width="1.49096" stroke-miterlimit="1.5" stroke-linecap="round" stroke-linejoin="round"/>
<path fill-rule="evenodd" clip-rule="evenodd" d="M95.1719 61.0105L66.2886 74.2003V46.1167L85.544 37.5902V28.318L66.2886 37.1109V27.8388L95.1719 14.6494V42.4661L75.9162 51.2588V60.5311L95.1719 51.7382V61.0105Z" stroke="white" stroke-width="1.49096" stroke-miterlimit="1.5" stroke-linecap="round" stroke-linejoin="round"/>
<path fill-rule="evenodd" clip-rule="evenodd" d="M66.2886 19.7478L46.0155 9.86305L37.4053 14.043L66.2886 28.0648L95.2162 14.0216L86.6501 9.86307L66.2886 19.7478Z" stroke="white" stroke-width="1.49096" stroke-miterlimit="1.5" stroke-linecap="round" stroke-linejoin="round"/>
</svg>
