<svg width="41" height="48" fill="none" xmlns="http://www.w3.org/2000/svg"><path d="M37.626 6.35C33.14-.027 24.283-1.92 17.88 2.137L6.633 9.262a12.884 12.884 0 0 0-3.824 3.676 12.803 12.803 0 0 0-2.006 4.899 13.434 13.434 0 0 0 .462 6.621c.234.709.526 1.396.874 2.056a12.943 12.943 0 0 0-1.208 2.3 12.712 12.712 0 0 0-.719 2.494 13.576 13.576 0 0 0 .99 7.984c.373.828.829 1.618 1.36 2.357 4.485 6.38 13.342 8.27 19.745 4.215l11.246-7.096a12.884 12.884 0 0 0 5.83-8.575 13.43 13.43 0 0 0-1.34-8.674 13.011 13.011 0 0 0 1.209-2.3 12.977 12.977 0 0 0 .723-2.492 13.636 13.636 0 0 0-.127-5.407 13.612 13.612 0 0 0-2.223-4.935" fill="#FF3E00"/><path d="M16.78 42.267a8.98 8.98 0 0 1-7.724-1.58A8.922 8.922 0 0 1 7.19 38.73a8.143 8.143 0 0 1-1.338-2.967 8.205 8.205 0 0 1-.072-3.25c.015-.088.033-.175.052-.262a5.835 5.835 0 0 1 .134-.518c.025-.084.052-.17.08-.253l.212-.644.578.429a14.457 14.457 0 0 0 2.1 1.27 14.295 14.295 0 0 0 2.285.9l.431.124-.038.428a2.501 2.501 0 0 0 .245 1.275c.064.132.139.258.224.376a2.68 2.68 0 0 0 1.277.983 2.7 2.7 0 0 0 1.793.025 2.26 2.26 0 0 0 .347-.15c.055-.03.11-.06.162-.094l11.23-7.126a2.325 2.325 0 0 0 1.092-2.052 2.44 2.44 0 0 0-.22-.956 2.455 2.455 0 0 0-.248-.426 2.673 2.673 0 0 0-1.276-.983 2.71 2.71 0 0 0-1.793-.025 2.563 2.563 0 0 0-.51.245L19.628 27.8a8.55 8.55 0 0 1-1.103.584 7.988 7.988 0 0 1-1.178.41 8.974 8.974 0 0 1-7.71-1.58 8.911 8.911 0 0 1-1.864-1.952 8.186 8.186 0 0 1-1.4-6.217 7.7 7.7 0 0 1 3.505-5.17L21.14 6.75a8.479 8.479 0 0 1 1.096-.583 7.954 7.954 0 0 1 1.172-.412 8.996 8.996 0 0 1 5.353.27 8.922 8.922 0 0 1 4.234 3.267 8.212 8.212 0 0 1 1.339 2.966 8.153 8.153 0 0 1 .02 3.515 7.346 7.346 0 0 1-.134.52c-.025.087-.05.173-.079.258l-.215.643-.574-.429a14.599 14.599 0 0 0-4.398-2.186l-.432-.124.04-.429a2.505 2.505 0 0 0-.458-1.664 2.663 2.663 0 0 0-1.274-.962 2.693 2.693 0 0 0-1.954.053 2.76 2.76 0 0 0-.334.176l-11.25 7.113a2.327 2.327 0 0 0-1.092 2.049 2.515 2.515 0 0 0 .467 1.385c.155.221.344.418.56.583a2.707 2.707 0 0 0 2.307.48 2.866 2.866 0 0 0 .356-.125 2.346 2.346 0 0 0 .334-.175l4.312-2.718a7.977 7.977 0 0 1 1.686-.816c.198-.07.398-.13.6-.183a8.995 8.995 0 0 1 5.352.267 8.933 8.933 0 0 1 4.234 3.265 8.245 8.245 0 0 1 1.338 2.967 8.182 8.182 0 0 1 .076 3.25 7.692 7.692 0 0 1-2.238 4.182 7.758 7.758 0 0 1-1.268.99l-11.25 7.124a8.45 8.45 0 0 1-1.105.586 7.906 7.906 0 0 1-1.18.413Z" fill="#fff"/></svg>