<svg width="41" height="48" viewBox="0 0 41 48" fill="none" xmlns="http://www.w3.org/2000/svg">
<path d="M37.6255 6.35079C33.141 -0.028496 24.2832 -1.91937 17.8795 2.13639L6.63369 9.26161C5.87715 9.73433 5.17136 10.284 4.52922 10.9017C3.88628 11.5194 3.31021 12.2021 2.80988 12.9384C2.30954 13.6747 1.88736 14.4607 1.54977 15.2836C1.21301 16.1068 0.96298 16.9625 0.803701 17.837C0.670762 18.5702 0.598249 19.3137 0.588581 20.0588C0.578107 20.8047 0.630477 21.5499 0.74408 22.2862C0.857682 23.0233 1.03252 23.75 1.26617 24.4583C1.49982 25.1666 1.79229 25.854 2.14034 26.5142C1.90091 26.8761 1.67987 27.2496 1.47807 27.6335C1.27584 28.0173 1.09375 28.4115 0.931806 28.8137C0.769862 29.2159 0.628865 29.6261 0.508817 30.0428C0.388769 30.4594 0.290475 30.8817 0.213128 31.3079C-0.108261 33.1004 -0.0657998 34.9386 0.33801 36.7145C0.539434 37.5999 0.828677 38.4636 1.20252 39.292C1.57636 40.1205 2.03158 40.9105 2.56333 41.6492C7.04782 48.0285 15.9048 49.9194 22.3084 45.8636L33.5543 38.768C34.3108 38.2945 35.015 37.7441 35.6572 37.1255C36.2992 36.5075 36.8751 35.8249 37.3757 35.0888C37.876 34.3533 38.2982 33.5673 38.6358 32.7445C38.9734 31.9224 39.224 31.0667 39.3843 30.1926C39.5172 29.4595 39.5889 28.7168 39.5986 27.9716C39.6083 27.2265 39.5559 26.4814 39.4415 25.7451C39.3279 25.0087 39.1531 24.2828 38.9186 23.5746C38.6841 22.8671 38.3917 22.1796 38.0436 21.5194C38.2829 21.1581 38.5045 20.7839 38.7067 20.4001C38.9081 20.0163 39.091 19.6222 39.253 19.2199C39.4149 18.8177 39.5567 18.4075 39.6776 17.9909C39.7976 17.575 39.8975 17.1528 39.9757 16.7266C40.1352 15.8324 40.2045 14.9246 40.1835 14.0168C40.1626 13.1091 40.0506 12.2061 39.8492 11.3199C39.6477 10.4346 39.3585 9.57088 38.9847 8.74243C38.6113 7.91383 38.156 7.12422 37.6255 6.38525" fill="#FF3E00"/>
<path d="M16.7808 42.2665C15.9006 42.4939 14.9907 42.5863 14.0825 42.5405C13.1745 42.4941 12.2786 42.3114 11.4261 41.9965C10.5737 41.6821 9.77441 41.2404 9.0558 40.6865C8.3378 40.1323 7.70886 39.4725 7.19063 38.7299C6.87077 38.2853 6.59683 37.8109 6.37285 37.3126C6.14821 36.8146 5.97413 36.2955 5.85318 35.763C5.73313 35.2302 5.66545 34.687 5.65337 34.1414C5.64128 33.5957 5.68398 33.0501 5.78067 32.5125C5.79597 32.4252 5.8137 32.3378 5.83304 32.2513C5.85157 32.164 5.87252 32.0774 5.89508 31.9917C5.91683 31.9052 5.941 31.8194 5.96678 31.7337C5.99176 31.6488 6.01915 31.5639 6.04735 31.4797L6.25925 30.8363L6.83693 31.265C7.16807 31.5054 7.50968 31.7321 7.86016 31.9436C8.21063 32.156 8.56997 32.3531 8.93737 32.5341C9.30396 32.716 9.67941 32.8827 10.0605 33.0325C10.4416 33.1831 10.8291 33.3169 11.2223 33.4347L11.6534 33.5589L11.6147 33.9875C11.5939 34.2793 11.6244 34.5724 11.7049 34.8537C11.7444 34.9947 11.7968 35.1309 11.8604 35.2623C11.9241 35.3937 11.999 35.5195 12.0844 35.638C12.2409 35.8617 12.4308 36.0603 12.6476 36.2269C12.8635 36.3936 13.1044 36.5266 13.3614 36.6211C13.6184 36.7157 13.8875 36.7702 14.1615 36.7838C14.4346 36.7982 14.7085 36.7702 14.9736 36.7013C15.0348 36.6852 15.0945 36.6668 15.1541 36.646C15.2137 36.6251 15.2725 36.6027 15.3297 36.5771C15.3877 36.5522 15.4441 36.525 15.5005 36.4953C15.5561 36.4665 15.6101 36.4353 15.6633 36.4016L26.8922 29.2756C27.0299 29.1898 27.1581 29.0899 27.2749 28.9775C27.3917 28.8646 27.4957 28.7404 27.5867 28.6066C27.6778 28.4728 27.7535 28.3293 27.8147 28.1795C27.8752 28.0297 27.9203 27.8743 27.9493 27.7156C27.9775 27.553 27.9896 27.3887 27.9855 27.2237C27.9815 27.0594 27.9606 26.896 27.9235 26.7349C27.8872 26.5747 27.8341 26.4184 27.7656 26.2678C27.6979 26.118 27.6141 25.9754 27.5174 25.8416C27.3611 25.618 27.1718 25.4201 26.9551 25.2535C26.7383 25.0868 26.4974 24.9538 26.2412 24.8593C25.9844 24.7647 25.7146 24.7096 25.4412 24.6958C25.1672 24.6822 24.8933 24.7102 24.6282 24.7783C24.5678 24.7944 24.5074 24.8128 24.4477 24.8336C24.3881 24.8545 24.3301 24.8769 24.2721 24.9017C24.2141 24.9274 24.1577 24.9546 24.1021 24.9843C24.0465 25.0131 23.9917 25.0452 23.9385 25.0788L19.6265 27.8013C19.4508 27.9119 19.2704 28.0161 19.0867 28.1138C18.9022 28.2108 18.7152 28.3013 18.5243 28.3846C18.3333 28.468 18.1392 28.5441 17.9426 28.6122C17.746 28.6811 17.547 28.742 17.3456 28.7956C16.4666 29.0216 15.5585 29.1129 14.6521 29.0665C13.7457 29.02 12.8522 28.8365 12.0014 28.5232C11.1506 28.2092 10.353 27.7677 9.6359 27.2148C8.91884 26.662 8.2904 26.0042 7.77234 25.2631C7.45409 24.8184 7.18096 24.3433 6.95778 23.8449C6.7338 23.3466 6.56058 22.8274 6.44053 22.2954C6.32048 21.7626 6.25441 21.2193 6.24313 20.6737C6.23105 20.1289 6.27375 19.5833 6.37124 19.0464C6.56172 17.9895 6.97168 16.9837 7.57494 16.0932C8.17862 15.2026 8.96264 14.4472 9.8768 13.8754L21.1404 6.75016C21.3152 6.63959 21.4941 6.53543 21.677 6.43769C21.8599 6.34074 22.0468 6.2502 22.2361 6.16688C22.4259 6.08351 22.6188 6.00761 22.8146 5.93933C23.0096 5.87042 23.2078 5.80873 23.4084 5.75505C24.2882 5.52831 25.1978 5.43536 26.105 5.48103C27.0131 5.5275 27.9082 5.71018 28.7606 6.02506C29.613 6.33914 30.4115 6.78141 31.1301 7.33505C31.8479 7.8896 32.4766 8.54963 32.9945 9.29242C33.3136 9.7363 33.5883 10.2106 33.8131 10.709C34.0379 11.2073 34.2119 11.7257 34.3336 12.2585C34.4544 12.7913 34.5221 13.3346 34.5342 13.8802C34.5471 14.4258 34.5052 14.9715 34.4085 15.5091C34.3916 15.5972 34.3739 15.6853 34.3537 15.7727C34.3344 15.86 34.3134 15.9473 34.2909 16.0339C34.2691 16.1212 34.2449 16.2077 34.22 16.2935C34.195 16.38 34.1692 16.4657 34.141 16.5506L33.9259 17.194L33.3522 16.7654C33.0203 16.5226 32.6779 16.2951 32.3266 16.0811C31.9753 15.868 31.6144 15.6693 31.2462 15.4858C30.509 15.1201 29.7423 14.8168 28.954 14.5789L28.5221 14.4547L28.5616 14.026C28.5737 13.8794 28.5729 13.732 28.5592 13.5861C28.5463 13.4403 28.5197 13.2953 28.481 13.1535C28.4416 13.0125 28.3908 12.8739 28.3271 12.7417C28.2643 12.6087 28.1894 12.4821 28.104 12.3619C27.9468 12.1423 27.7569 11.9478 27.5408 11.785C27.325 11.6215 27.0854 11.4918 26.8302 11.4004C26.3173 11.2154 25.7599 11.1905 25.2325 11.3291C25.1713 11.3451 25.1108 11.3636 25.052 11.3836C24.9924 11.4044 24.9336 11.4277 24.8756 11.4525C24.8184 11.4773 24.7612 11.5054 24.7056 11.5342C24.65 11.5639 24.5952 11.5951 24.542 11.6288L13.2921 18.742C13.1552 18.8277 13.0271 18.9279 12.911 19.04C12.795 19.1522 12.6903 19.2764 12.5992 19.4094C12.509 19.5432 12.4326 19.6857 12.3712 19.8348C12.31 19.9847 12.2649 20.1393 12.2359 20.2979C12.2077 20.4606 12.1956 20.6256 12.1996 20.7907C12.2093 21.1211 12.284 21.4464 12.4196 21.7481C12.4879 21.8984 12.5708 22.0417 12.6669 22.176C12.8224 22.3971 13.0109 22.5942 13.2261 22.7593C13.4407 22.9251 13.6795 23.0575 13.9343 23.1519C14.4465 23.3412 15.0044 23.3717 15.5344 23.2392C15.5948 23.2224 15.6552 23.204 15.7148 23.1831C15.7737 23.1623 15.8325 23.1391 15.8905 23.1142C15.9482 23.0893 16.0049 23.062 16.0605 23.0325C16.1161 23.0037 16.1709 22.9724 16.224 22.9388L20.5361 20.221C20.7126 20.1089 20.8922 20.0031 21.0767 19.9053C21.2604 19.8068 21.4481 19.7163 21.6399 19.6321C21.831 19.5488 22.0253 19.4729 22.2224 19.4046C22.4198 19.3357 22.6196 19.2748 22.8219 19.2219C23.7017 18.9944 24.6105 18.9014 25.5185 18.9463C26.4265 18.992 27.3216 19.1746 28.1741 19.4887C29.0257 19.8028 29.8249 20.2443 30.5428 20.7987C31.2615 21.3523 31.8899 22.0117 32.408 22.7545C32.727 23.1991 33.001 23.6735 33.2257 24.1718C33.4505 24.6699 33.6249 25.189 33.7462 25.7214C33.8671 26.2534 33.9348 26.7966 33.9476 27.3422C33.9605 27.8887 33.9178 28.4343 33.822 28.9711C33.727 29.4982 33.5771 30.014 33.3748 30.5103C33.1727 31.0066 32.9188 31.4806 32.6175 31.9244C32.3169 32.3683 31.9705 32.7801 31.5837 33.1527C31.197 33.5252 30.7724 33.8569 30.3164 34.1422L19.0657 41.2674C18.8893 41.3788 18.7088 41.4837 18.5251 41.5815C18.3406 41.6792 18.1529 41.7698 17.9611 41.8531C17.7702 41.9372 17.576 42.0133 17.3786 42.0822C17.182 42.1511 16.9822 42.2128 16.7808 42.2665Z" fill="white"/>
</svg>
