<svg class="w-8 h-8" width="48" height="29" fill="none" xmlns="http://www.w3.org/2000/svg"><path d="M24 0c-6.4 0-10.4 3.2-12 9.597 2.4-3.2 5.2-4.398 8.4-3.599 1.826.456 3.13 1.78 4.575 3.247 2.353 2.387 5.076 5.15 11.025 5.15 6.4 0 10.4-3.198 12-9.597-2.4 3.2-5.2 4.4-8.4 3.6-1.825-.456-3.13-1.781-4.575-3.247C32.672 2.763 29.948 0 24 0ZM12 14.396c-6.4 0-10.4 3.199-12 9.597 2.4-3.199 5.2-4.399 8.4-3.599 1.825.457 3.13 1.781 4.575 3.246 2.353 2.388 5.077 5.152 11.025 5.152 6.4 0 10.4-3.199 12-9.597-2.4 3.199-5.2 4.399-8.4 3.599-1.826-.456-3.13-1.781-4.575-3.247-2.353-2.387-5.076-5.151-11.025-5.151Z" fill="#06B6D4"/></svg>