<svg width="48" height="48" fill="none" xmlns="http://www.w3.org/2000/svg"><path fill-rule="evenodd" clip-rule="evenodd" d="M4.074 22.587c12.403-5.404 20.674-8.967 24.812-10.688 11.816-4.914 14.27-5.768 15.87-5.796.353-.006 1.14.08 1.65.494.43.35.548.822.605 1.153.057.33.127 1.085.071 1.675-.64 6.727-3.41 23.053-4.82 30.588-.596 3.188-1.77 4.257-2.908 4.362-2.47.227-4.346-1.633-6.74-3.202-3.744-2.454-5.86-3.982-9.494-6.378-4.201-2.768-1.478-4.29.916-6.776.627-.65 11.512-10.552 11.723-11.45.027-.113.051-.531-.198-.752-.248-.222-.616-.146-.88-.086-.376.085-6.358 4.04-17.947 11.862-1.698 1.166-3.236 1.734-4.614 1.704-1.519-.033-4.44-.859-6.613-1.565-2.665-.866-4.782-1.324-4.598-2.795.096-.766 1.151-1.55 3.165-2.35Z" fill="url(#a)"/><defs><linearGradient id="a" x1="24" y1="6.103" x2="24" y2="44.11" gradientUnits="userSpaceOnUse"><stop stop-color="#2AABEE"/><stop offset="1" stop-color="#229ED9"/></linearGradient></defs></svg>