<svg width="48" height="48" fill="none" xmlns="http://www.w3.org/2000/svg"><path d="M0 0h48v48H0V0Z" fill="#017ACB"/><path d="M23.047 17.775h2.303v3.975h-6.225v17.685l-.165.045c-.225.06-3.188.06-3.825-.008l-.51-.045V21.75H8.4v-3.975l1.972-.023c1.08-.015 3.855-.015 6.165 0s5.235.023 6.51.023ZM40.62 37.56c-.915.967-1.898 1.507-3.532 1.95-.713.195-.833.202-2.438.195-1.605-.008-1.733-.008-2.513-.21-2.017-.518-3.645-1.53-4.755-2.963-.315-.405-.832-1.245-.832-1.35 0-.03.075-.097.172-.142.098-.045.3-.173.465-.27.165-.098.465-.278.668-.383.202-.105.787-.45 1.297-.757.51-.308.975-.555 1.028-.555.052 0 .15.105.225.232.45.758 1.5 1.725 2.242 2.055.458.195 1.47.413 1.958.413.45 0 1.275-.195 1.718-.398.472-.217.712-.435.997-.87.195-.307.218-.39.21-.975 0-.54-.03-.69-.18-.937-.42-.69-.99-1.05-3.3-2.07-2.385-1.058-3.458-1.688-4.328-2.535-.645-.63-.772-.803-1.177-1.59-.525-1.013-.593-1.343-.6-2.85-.008-1.058.015-1.403.127-1.763.158-.54.668-1.582.9-1.845.48-.562.653-.735.99-1.012 1.02-.84 2.61-1.395 4.133-1.448.172 0 .742.03 1.275.068 1.53.127 2.573.502 3.578 1.305.757.6 1.904 2.01 1.792 2.197-.075.113-3.068 2.108-3.263 2.168-.12.037-.202-.008-.367-.203-1.02-1.222-1.432-1.485-2.423-1.545-.705-.045-1.08.038-1.552.353-.495.33-.735.832-.735 1.53.007 1.02.397 1.5 1.837 2.212.93.458 1.725.833 1.785.833.09 0 2.018.96 2.52 1.26 2.34 1.372 3.293 2.782 3.54 5.212.18 1.83-.337 3.503-1.462 4.688Z" fill="#fff"/></svg>