<svg width="48" height="48" fill="none" xmlns="http://www.w3.org/2000/svg"><path d="M42.114 14.361c.019.423.019.826.019 1.248.018 12.807-9.39 27.59-26.597 27.59-5.075 0-10.057-1.516-14.336-4.358.741.096 1.482.135 2.223.135 4.204 0 8.297-1.46 11.613-4.167-4-.076-7.52-2.784-8.742-6.739a8.732 8.732 0 0 0 4.223-.173c-4.353-.883-7.483-4.857-7.502-9.484v-.116a8.972 8.972 0 0 0 4.242 1.21C3.163 16.665 1.885 11 4.367 6.567c4.76 6.066 11.761 9.733 19.281 10.137-.76-3.36.278-6.893 2.704-9.274 3.76-3.667 9.687-3.475 13.243.422a18.186 18.186 0 0 0 5.946-2.361c-.704 2.246-2.167 4.147-4.112 5.357A18.726 18.726 0 0 0 46.8 9.33a19.536 19.536 0 0 1-4.686 5.03Z" fill="#1D9BF0"/></svg>