<svg width="124" height="58" fill="none" xmlns="http://www.w3.org/2000/svg"><g clip-path="url(#a)"><path d="M82.459 30.431s4.023-17.82 12.517-29.22L124 0s-14.144 13.272-18.241 20.471l16.94-1.26s-26.735 19.116-35.722 38.58c0 0-1.952-16.02 7.216-28.572L82.46 30.431Z" fill="#FFD93F"/><path d="M46.399 7.62s-4.988 2.148-10.711 6.54c-5.723 4.392-8.892 9.372-8.892 9.372s1.735.144 1.181.996-2.132 2.364-2.132 2.364 2.903 1.896 11.482 5.627c8.578 3.732 9.819 4.38 9.915 4.044.108-.336 4.048.672 4.048.672s-10.265-5.844-15.42-10.451c0 0 1.24-1.08 4.36-2.16 3.122-1.08 4.772-1.38 4.832-1.764.06-.384-.952-.552-.952-.552l3.615-1.116s-6.916-.264-14.265 1.392c0 0 3.47-5.508 7.12-8.268 3.651-2.76 5.217-3.492 5.278-4.02.06-.528-.796-.852-.796-.852s.205-1.032 1.338-1.824Z" fill="#fff"/><path d="M22.17 16.475s-4.313 4.656-8.71 11.46C9.061 34.737 3.326 43.437 4.7 44.313c1.374.876 3.543.552 3.543.552s-.29.972.349 1.056c.639.084 5.24-3.792 10.71-5.88 5.47-2.1 9.832-3.276 9.952-3.84.12-.576-1.674-.912-1.566-.912.097 0 2.048-.492 2.193-1.128.157-.636-1.265-.912-3.41-.66-2.144.252-11.759 3.12-11.759 3.12s7.049-12.648 10.964-17.82c3.916-5.171 5.193-6.18 5.18-6.96-.011-.779-3.228-.683-3.228-.683s-.422-.888-.892-.9c-.47-.012-12.41.54-20.71 2.16-8.301 1.62-5.904 1.716-5 2.472.891.768-.494 2.316-.494 2.316s4.072-.168 4.012.672c-.06.84-1.325 1.788-1.325 1.788s9.662-2.64 18.951-3.192Zm27.807-8.099s1.374 7.272 1.82 13.62c.445 6.347.023 12 .349 12.191.313.192 3.096-.972 6.722-.576 3.627.396 6.314.516 6.615.156.301-.36.012-1.2.012-1.2s.698.108.831-.384-.542-1.02-.542-1.02 0-4.992-.289-11.052C65.218 14.064 63.35 8.76 63.35 8.76s-1.229 20.375-1.578 21.6c0 0-3.35-1.153-5.928-.925 0 0-1.457-8.267-2.662-13.955-1.205-5.688-1.542-6.816-1.831-6.756-.253.048-.483 1.104-.483 1.104l-.89-1.452Z" fill="#fff"/><path d="M93 18.36s-9.59-5.412-15.77-6.876c-6.181-1.464-7.35-1.14-6.88-.792.47.336 1.603.984 1.603.984s-4.181-.096-3.808.42c.374.516 1.567 4.428 1.543 8.532-.024 4.103-.024 6.911.216 7.02.241.107 2.374-.073 2.374-.073s-.53.828-.024.912c.506.084 2.952-.432 5.542-.264 2.59.168 3.783.492 3.783.492s.253 5.652-1.35 9.828c0 0-12.168-4.86-12.578-4.332-.41.516.314 1.68.314 1.68l-4.699 1.908s6.41 1.248 11.699 3.348c5.289 2.1 8.325 3.9 8.819 3.72.494-.18 1.325-2.46 2.65-9.348 1.326-6.888.579-10.284.06-10.692-1.156-.9-13.108-.384-13.108-.384s.543-4.872.109-7.811c.012-.012.518-1.824 19.505 1.728Z" fill="#fff"/></g><defs><clipPath id="a"><path fill="#fff" d="M0 0h124v57.79H0z"/></clipPath></defs></svg>