<svg width="1380" height="723" viewBox="0 0 1380 723" fill="none" xmlns="http://www.w3.org/2000/svg">
<g filter="url(#filter0_d_2_655)">
<path d="M45 43H1335V651C1335 655.418 1331.42 659 1327 659H53C48.5817 659 45 655.418 45 651V43Z" fill="#F9F9F9" shape-rendering="crispEdges"/>
<path d="M508.078 200.48C505.864 200.48 503.918 199.933 502.238 198.84C500.584 197.747 499.424 196.28 498.757 194.44L502.238 192.8C502.824 194.027 503.624 195 504.638 195.72C505.678 196.44 506.824 196.8 508.078 196.8C509.144 196.8 510.011 196.56 510.678 196.08C511.344 195.6 511.678 194.947 511.678 194.12C511.678 193.587 511.531 193.16 511.238 192.84C510.944 192.493 510.571 192.213 510.118 192C509.691 191.787 509.251 191.627 508.798 191.52L505.398 190.56C503.531 190.027 502.131 189.227 501.198 188.16C500.291 187.067 499.838 185.8 499.838 184.36C499.838 183.053 500.171 181.92 500.838 180.96C501.504 179.973 502.424 179.213 503.598 178.68C504.771 178.147 506.091 177.88 507.558 177.88C509.531 177.88 511.291 178.373 512.838 179.36C514.384 180.32 515.478 181.667 516.118 183.4L512.638 185.04C512.211 184 511.531 183.173 510.598 182.56C509.691 181.947 508.664 181.64 507.518 181.64C506.531 181.64 505.744 181.88 505.158 182.36C504.571 182.813 504.278 183.413 504.278 184.16C504.278 184.667 504.411 185.093 504.678 185.44C504.944 185.76 505.291 186.027 505.718 186.24C506.144 186.427 506.584 186.587 507.038 186.72L510.558 187.76C512.344 188.267 513.718 189.067 514.678 190.16C515.638 191.227 516.118 192.507 516.118 194C516.118 195.28 515.771 196.413 515.078 197.4C514.411 198.36 513.478 199.12 512.278 199.68C511.078 200.213 509.678 200.48 508.078 200.48ZM530.706 200.48C528.546 200.48 526.626 199.987 524.946 199C523.293 197.987 522 196.627 521.066 194.92C520.133 193.187 519.666 191.253 519.666 189.12C519.666 186.933 520.133 185 521.066 183.32C522.026 181.64 523.306 180.32 524.906 179.36C526.506 178.373 528.32 177.88 530.346 177.88C531.973 177.88 533.426 178.16 534.706 178.72C535.986 179.28 537.066 180.053 537.946 181.04C538.826 182 539.493 183.107 539.946 184.36C540.426 185.613 540.666 186.947 540.666 188.36C540.666 188.707 540.653 189.067 540.626 189.44C540.6 189.813 540.546 190.16 540.466 190.48H523.226V186.88H537.906L535.746 188.52C536.013 187.213 535.92 186.053 535.466 185.04C535.04 184 534.373 183.187 533.466 182.6C532.586 181.987 531.546 181.68 530.346 181.68C529.146 181.68 528.08 181.987 527.146 182.6C526.213 183.187 525.493 184.04 524.986 185.16C524.48 186.253 524.28 187.587 524.386 189.16C524.253 190.627 524.453 191.907 524.986 193C525.546 194.093 526.32 194.947 527.306 195.56C528.32 196.173 529.466 196.48 530.746 196.48C532.053 196.48 533.16 196.187 534.066 195.6C535 195.013 535.733 194.253 536.266 193.32L539.946 195.12C539.52 196.133 538.853 197.053 537.946 197.88C537.066 198.68 536 199.32 534.746 199.8C533.52 200.253 532.173 200.48 530.706 200.48ZM545.077 200V178.36H549.398V182.6L548.878 182.04C549.411 180.68 550.264 179.653 551.438 178.96C552.611 178.24 553.971 177.88 555.518 177.88C557.118 177.88 558.531 178.227 559.758 178.92C560.984 179.613 561.944 180.573 562.637 181.8C563.331 183.027 563.678 184.44 563.678 186.04V200H559.198V187.24C559.198 186.147 558.998 185.227 558.598 184.48C558.198 183.707 557.624 183.12 556.878 182.72C556.158 182.293 555.331 182.08 554.398 182.08C553.464 182.08 552.624 182.293 551.878 182.72C551.158 183.12 550.598 183.707 550.198 184.48C549.798 185.253 549.598 186.173 549.598 187.24V200H545.077ZM578.515 200.48C576.435 200.48 574.568 199.987 572.915 199C571.288 197.987 569.995 196.627 569.035 194.92C568.102 193.213 567.635 191.293 567.635 189.16C567.635 187.027 568.115 185.107 569.075 183.4C570.035 181.693 571.328 180.347 572.955 179.36C574.582 178.373 576.422 177.88 578.475 177.88C580.208 177.88 581.742 178.227 583.075 178.92C584.408 179.613 585.462 180.573 586.235 181.8L585.555 182.84V169.72H590.035V200H585.755V195.6L586.275 196.44C585.528 197.747 584.462 198.747 583.075 199.44C581.688 200.133 580.168 200.48 578.515 200.48ZM578.955 196.28C580.208 196.28 581.328 195.973 582.315 195.36C583.328 194.747 584.115 193.907 584.675 192.84C585.262 191.747 585.555 190.52 585.555 189.16C585.555 187.8 585.262 186.587 584.675 185.52C584.115 184.453 583.328 183.613 582.315 183C581.328 182.387 580.208 182.08 578.955 182.08C577.702 182.08 576.568 182.387 575.555 183C574.542 183.613 573.755 184.453 573.195 185.52C572.635 186.587 572.355 187.8 572.355 189.16C572.355 190.52 572.635 191.747 573.195 192.84C573.755 193.907 574.528 194.747 575.515 195.36C576.528 195.973 577.675 196.28 578.955 196.28ZM611.664 200.24C609.397 200.24 607.637 199.6 606.384 198.32C605.131 197.04 604.504 195.24 604.504 192.92V182.44H600.704V178.36H601.304C602.317 178.36 603.104 178.067 603.664 177.48C604.224 176.893 604.504 176.093 604.504 175.08V173.4H609.024V178.36H613.944V182.44H609.024V192.72C609.024 193.467 609.144 194.107 609.384 194.64C609.624 195.147 610.011 195.547 610.544 195.84C611.077 196.107 611.771 196.24 612.624 196.24C612.837 196.24 613.077 196.227 613.344 196.2C613.611 196.173 613.864 196.147 614.104 196.12V200C613.731 200.053 613.317 200.107 612.864 200.16C612.411 200.213 612.011 200.24 611.664 200.24ZM628.564 200.48C626.484 200.48 624.578 199.987 622.844 199C621.138 198.013 619.778 196.667 618.764 194.96C617.751 193.253 617.244 191.32 617.244 189.16C617.244 186.973 617.751 185.04 618.764 183.36C619.778 181.653 621.138 180.32 622.844 179.36C624.551 178.373 626.458 177.88 628.564 177.88C630.698 177.88 632.604 178.373 634.284 179.36C635.991 180.32 637.338 181.653 638.324 183.36C639.338 185.04 639.844 186.973 639.844 189.16C639.844 191.347 639.338 193.293 638.324 195C637.311 196.707 635.951 198.053 634.244 199.04C632.538 200 630.644 200.48 628.564 200.48ZM628.564 196.28C629.844 196.28 630.978 195.973 631.964 195.36C632.951 194.747 633.724 193.907 634.284 192.84C634.871 191.747 635.164 190.52 635.164 189.16C635.164 187.8 634.871 186.587 634.284 185.52C633.724 184.453 632.951 183.613 631.964 183C630.978 182.387 629.844 182.08 628.564 182.08C627.311 182.08 626.178 182.387 625.164 183C624.178 183.613 623.391 184.453 622.804 185.52C622.244 186.587 621.964 187.8 621.964 189.16C621.964 190.52 622.244 191.747 622.804 192.84C623.391 193.907 624.178 194.747 625.164 195.36C626.178 195.973 627.311 196.28 628.564 196.28Z" fill="black"/>
<path d="M659.249 200.48C657.036 200.48 655.089 199.933 653.409 198.84C651.756 197.747 650.596 196.28 649.929 194.44L653.409 192.8C653.996 194.027 654.796 195 655.809 195.72C656.849 196.44 657.996 196.8 659.249 196.8C660.316 196.8 661.183 196.56 661.849 196.08C662.516 195.6 662.849 194.947 662.849 194.12C662.849 193.587 662.703 193.16 662.409 192.84C662.116 192.493 661.743 192.213 661.289 192C660.863 191.787 660.423 191.627 659.969 191.52L656.569 190.56C654.703 190.027 653.303 189.227 652.369 188.16C651.463 187.067 651.009 185.8 651.009 184.36C651.009 183.053 651.343 181.92 652.009 180.96C652.676 179.973 653.596 179.213 654.769 178.68C655.943 178.147 657.263 177.88 658.729 177.88C660.703 177.88 662.463 178.373 664.009 179.36C665.556 180.32 666.649 181.667 667.289 183.4L663.809 185.04C663.383 184 662.703 183.173 661.769 182.56C660.863 181.947 659.836 181.64 658.689 181.64C657.703 181.64 656.916 181.88 656.329 182.36C655.743 182.813 655.449 183.413 655.449 184.16C655.449 184.667 655.583 185.093 655.849 185.44C656.116 185.76 656.463 186.027 656.889 186.24C657.316 186.427 657.756 186.587 658.209 186.72L661.729 187.76C663.516 188.267 664.889 189.067 665.849 190.16C666.809 191.227 667.289 192.507 667.289 194C667.289 195.28 666.943 196.413 666.249 197.4C665.583 198.36 664.649 199.12 663.449 199.68C662.249 200.213 660.849 200.48 659.249 200.48ZM681.878 200.48C679.718 200.48 677.798 199.987 676.118 199C674.465 197.987 673.171 196.627 672.238 194.92C671.305 193.187 670.838 191.253 670.838 189.12C670.838 186.933 671.305 185 672.238 183.32C673.198 181.64 674.478 180.32 676.078 179.36C677.678 178.373 679.491 177.88 681.518 177.88C683.145 177.88 684.598 178.16 685.878 178.72C687.158 179.28 688.238 180.053 689.118 181.04C689.998 182 690.665 183.107 691.118 184.36C691.598 185.613 691.838 186.947 691.838 188.36C691.838 188.707 691.825 189.067 691.798 189.44C691.771 189.813 691.718 190.16 691.638 190.48H674.398V186.88H689.078L686.918 188.52C687.185 187.213 687.091 186.053 686.638 185.04C686.211 184 685.545 183.187 684.638 182.6C683.758 181.987 682.718 181.68 681.518 181.68C680.318 181.68 679.251 181.987 678.318 182.6C677.385 183.187 676.665 184.04 676.158 185.16C675.651 186.253 675.451 187.587 675.558 189.16C675.425 190.627 675.625 191.907 676.158 193C676.718 194.093 677.491 194.947 678.478 195.56C679.491 196.173 680.638 196.48 681.918 196.48C683.225 196.48 684.331 196.187 685.238 195.6C686.171 195.013 686.905 194.253 687.438 193.32L691.118 195.12C690.691 196.133 690.025 197.053 689.118 197.88C688.238 198.68 687.171 199.32 685.918 199.8C684.691 200.253 683.345 200.48 681.878 200.48ZM706.529 200.48C704.369 200.48 702.449 199.987 700.769 199C699.116 197.987 697.796 196.627 696.809 194.92C695.849 193.213 695.369 191.28 695.369 189.12C695.369 186.987 695.849 185.067 696.809 183.36C697.769 181.653 699.089 180.32 700.769 179.36C702.449 178.373 704.369 177.88 706.529 177.88C707.996 177.88 709.369 178.147 710.649 178.68C711.929 179.187 713.036 179.893 713.969 180.8C714.929 181.707 715.636 182.76 716.089 183.96L712.129 185.8C711.676 184.68 710.943 183.787 709.929 183.12C708.943 182.427 707.809 182.08 706.529 182.08C705.303 182.08 704.196 182.387 703.209 183C702.249 183.587 701.489 184.427 700.929 185.52C700.369 186.587 700.089 187.8 700.089 189.16C700.089 190.52 700.369 191.747 700.929 192.84C701.489 193.907 702.249 194.747 703.209 195.36C704.196 195.973 705.303 196.28 706.529 196.28C707.836 196.28 708.969 195.947 709.929 195.28C710.916 194.587 711.649 193.667 712.129 192.52L716.089 194.4C715.663 195.547 714.969 196.587 714.009 197.52C713.076 198.427 711.969 199.147 710.689 199.68C709.409 200.213 708.023 200.48 706.529 200.48ZM730.947 200.48C728.867 200.48 726.961 199.987 725.227 199C723.521 198.013 722.161 196.667 721.147 194.96C720.134 193.253 719.627 191.32 719.627 189.16C719.627 186.973 720.134 185.04 721.147 183.36C722.161 181.653 723.521 180.32 725.227 179.36C726.934 178.373 728.841 177.88 730.947 177.88C733.081 177.88 734.987 178.373 736.667 179.36C738.374 180.32 739.721 181.653 740.707 183.36C741.721 185.04 742.227 186.973 742.227 189.16C742.227 191.347 741.721 193.293 740.707 195C739.694 196.707 738.334 198.053 736.627 199.04C734.921 200 733.027 200.48 730.947 200.48ZM730.947 196.28C732.227 196.28 733.361 195.973 734.347 195.36C735.334 194.747 736.107 193.907 736.667 192.84C737.254 191.747 737.547 190.52 737.547 189.16C737.547 187.8 737.254 186.587 736.667 185.52C736.107 184.453 735.334 183.613 734.347 183C733.361 182.387 732.227 182.08 730.947 182.08C729.694 182.08 728.561 182.387 727.547 183C726.561 183.613 725.774 184.453 725.187 185.52C724.627 186.587 724.347 187.8 724.347 189.16C724.347 190.52 724.627 191.747 725.187 192.84C725.774 193.907 726.561 194.747 727.547 195.36C728.561 195.973 729.694 196.28 730.947 196.28ZM746.64 200V178.36H750.96V182.6L750.44 182.04C750.973 180.68 751.827 179.653 753 178.96C754.173 178.24 755.533 177.88 757.08 177.88C758.68 177.88 760.093 178.227 761.32 178.92C762.547 179.613 763.507 180.573 764.2 181.8C764.893 183.027 765.24 184.44 765.24 186.04V200H760.76V187.24C760.76 186.147 760.56 185.227 760.16 184.48C759.76 183.707 759.187 183.12 758.44 182.72C757.72 182.293 756.893 182.08 755.96 182.08C755.027 182.08 754.187 182.293 753.44 182.72C752.72 183.12 752.16 183.707 751.76 184.48C751.36 185.253 751.16 186.173 751.16 187.24V200H746.64ZM780.078 200.48C777.998 200.48 776.131 199.987 774.478 199C772.851 197.987 771.558 196.627 770.598 194.92C769.664 193.213 769.198 191.293 769.198 189.16C769.198 187.027 769.678 185.107 770.638 183.4C771.598 181.693 772.891 180.347 774.518 179.36C776.144 178.373 777.984 177.88 780.038 177.88C781.771 177.88 783.304 178.227 784.638 178.92C785.971 179.613 787.024 180.573 787.798 181.8L787.118 182.84V169.72H791.598V200H787.318V195.6L787.838 196.44C787.091 197.747 786.024 198.747 784.638 199.44C783.251 200.133 781.731 200.48 780.078 200.48ZM780.518 196.28C781.771 196.28 782.891 195.973 783.878 195.36C784.891 194.747 785.678 193.907 786.238 192.84C786.824 191.747 787.118 190.52 787.118 189.16C787.118 187.8 786.824 186.587 786.238 185.52C785.678 184.453 784.891 183.613 783.878 183C782.891 182.387 781.771 182.08 780.518 182.08C779.264 182.08 778.131 182.387 777.118 183C776.104 183.613 775.318 184.453 774.758 185.52C774.198 186.587 773.918 187.8 773.918 189.16C773.918 190.52 774.198 191.747 774.758 192.84C775.318 193.907 776.091 194.747 777.078 195.36C778.091 195.973 779.238 196.28 780.518 196.28ZM796.874 200V169.72H801.394V200H796.874ZM811.079 200V174.2H805.359V170.2H815.759V200H811.079ZM832.783 208.8C831.21 208.8 829.756 208.547 828.423 208.04C827.09 207.533 825.943 206.827 824.983 205.92C824.023 205.04 823.303 204 822.823 202.8L826.983 201.08C827.356 202.093 828.036 202.933 829.023 203.6C830.036 204.267 831.276 204.6 832.743 204.6C833.89 204.6 834.916 204.373 835.823 203.92C836.73 203.493 837.45 202.853 837.983 202C838.516 201.173 838.783 200.173 838.783 199V194.12L839.583 195.04C838.836 196.427 837.796 197.48 836.463 198.2C835.156 198.92 833.676 199.28 832.023 199.28C830.023 199.28 828.223 198.813 826.623 197.88C825.023 196.947 823.756 195.667 822.823 194.04C821.916 192.413 821.463 190.587 821.463 188.56C821.463 186.507 821.916 184.68 822.823 183.08C823.756 181.48 825.01 180.213 826.583 179.28C828.156 178.347 829.956 177.88 831.983 177.88C833.636 177.88 835.103 178.24 836.383 178.96C837.69 179.653 838.756 180.667 839.583 182L838.983 183.12V178.36H843.263V199C843.263 200.867 842.81 202.533 841.903 204C841.023 205.493 839.796 206.667 838.223 207.52C836.65 208.373 834.836 208.8 832.783 208.8ZM832.543 195.08C833.743 195.08 834.81 194.8 835.743 194.24C836.676 193.653 837.41 192.88 837.943 191.92C838.503 190.933 838.783 189.827 838.783 188.6C838.783 187.373 838.503 186.267 837.943 185.28C837.383 184.293 836.636 183.52 835.703 182.96C834.77 182.373 833.716 182.08 832.543 182.08C831.316 182.08 830.223 182.373 829.263 182.96C828.303 183.52 827.543 184.293 826.983 185.28C826.45 186.24 826.183 187.347 826.183 188.6C826.183 189.8 826.45 190.893 826.983 191.88C827.543 192.867 828.303 193.653 829.263 194.24C830.223 194.8 831.316 195.08 832.543 195.08ZM848.554 200V169.72H853.074V182.6L852.354 182.04C852.887 180.68 853.741 179.653 854.914 178.96C856.087 178.24 857.447 177.88 858.994 177.88C860.594 177.88 862.007 178.227 863.234 178.92C864.461 179.613 865.421 180.573 866.114 181.8C866.807 183.027 867.154 184.427 867.154 186V200H862.674V187.24C862.674 186.147 862.461 185.227 862.034 184.48C861.634 183.707 861.074 183.12 860.354 182.72C859.634 182.293 858.807 182.08 857.874 182.08C856.967 182.08 856.141 182.293 855.394 182.72C854.674 183.12 854.101 183.707 853.674 184.48C853.274 185.253 853.074 186.173 853.074 187.24V200H848.554ZM881.352 200.24C879.085 200.24 877.325 199.6 876.072 198.32C874.818 197.04 874.192 195.24 874.192 192.92V182.44H870.392V178.36H870.992C872.005 178.36 872.792 178.067 873.352 177.48C873.912 176.893 874.192 176.093 874.192 175.08V173.4H878.712V178.36H883.632V182.44H878.712V192.72C878.712 193.467 878.832 194.107 879.072 194.64C879.312 195.147 879.698 195.547 880.232 195.84C880.765 196.107 881.458 196.24 882.312 196.24C882.525 196.24 882.765 196.227 883.032 196.2C883.298 196.173 883.552 196.147 883.792 196.12V200C883.418 200.053 883.005 200.107 882.552 200.16C882.098 200.213 881.698 200.24 881.352 200.24Z" fill="#FA8700"/>
<rect width="549" height="49" transform="translate(415 379)" fill="#F2F2F2"/>
<path d="M438.118 412.24C437.251 412.24 436.458 412.047 435.738 411.66C435.031 411.273 434.485 410.727 434.098 410.02L434.358 409.7V412H432.538V396.86H434.398V403.54L434.118 403.08C434.518 402.44 435.065 401.933 435.758 401.56C436.451 401.173 437.245 400.98 438.138 400.98C439.151 400.98 440.058 401.227 440.858 401.72C441.671 402.213 442.311 402.887 442.778 403.74C443.245 404.58 443.478 405.54 443.478 406.62C443.478 407.673 443.245 408.627 442.778 409.48C442.311 410.333 441.671 411.007 440.858 411.5C440.058 411.993 439.145 412.24 438.118 412.24ZM437.978 410.44C438.658 410.44 439.265 410.273 439.798 409.94C440.331 409.607 440.745 409.153 441.038 408.58C441.345 407.993 441.498 407.34 441.498 406.62C441.498 405.873 441.345 405.22 441.038 404.66C440.745 404.087 440.331 403.633 439.798 403.3C439.265 402.953 438.658 402.78 437.978 402.78C437.298 402.78 436.685 402.947 436.138 403.28C435.605 403.613 435.178 404.073 434.858 404.66C434.551 405.233 434.398 405.887 434.398 406.62C434.398 407.34 434.551 407.993 434.858 408.58C435.178 409.153 435.605 409.607 436.138 409.94C436.685 410.273 437.298 410.44 437.978 410.44ZM451.717 412.24C450.664 412.24 449.724 411.993 448.897 411.5C448.084 411.007 447.444 410.333 446.977 409.48C446.51 408.627 446.277 407.667 446.277 406.6C446.277 405.52 446.51 404.56 446.977 403.72C447.444 402.88 448.084 402.213 448.897 401.72C449.724 401.227 450.664 400.98 451.717 400.98C452.424 400.98 453.084 401.107 453.697 401.36C454.31 401.613 454.85 401.953 455.317 402.38C455.784 402.807 456.124 403.307 456.337 403.88L454.677 404.68C454.424 404.12 454.037 403.667 453.517 403.32C452.997 402.96 452.397 402.78 451.717 402.78C451.064 402.78 450.47 402.947 449.937 403.28C449.417 403.613 449.004 404.067 448.697 404.64C448.39 405.213 448.237 405.873 448.237 406.62C448.237 407.34 448.39 407.993 448.697 408.58C449.004 409.153 449.417 409.607 449.937 409.94C450.47 410.273 451.064 410.44 451.717 410.44C452.397 410.44 452.997 410.267 453.517 409.92C454.037 409.56 454.424 409.087 454.677 408.5L456.337 409.34C456.124 409.9 455.784 410.4 455.317 410.84C454.85 411.267 454.31 411.607 453.697 411.86C453.084 412.113 452.424 412.24 451.717 412.24ZM461.688 412V398.8H458.868V397.1H463.668V412H461.688ZM476.624 416V409.7L476.924 410.02C476.551 410.727 476.004 411.273 475.284 411.66C474.578 412.047 473.784 412.24 472.904 412.24C471.891 412.24 470.978 411.993 470.164 411.5C469.364 411.007 468.731 410.333 468.264 409.48C467.798 408.627 467.564 407.673 467.564 406.62C467.564 405.54 467.798 404.58 468.264 403.74C468.731 402.887 469.364 402.213 470.164 401.72C470.978 401.227 471.891 400.98 472.904 400.98C473.798 400.98 474.591 401.173 475.284 401.56C475.978 401.933 476.524 402.44 476.924 403.08L476.684 403.54V401.22H478.504V416H476.624ZM473.064 410.44C473.744 410.44 474.351 410.273 474.884 409.94C475.418 409.607 475.838 409.153 476.144 408.58C476.464 407.993 476.624 407.34 476.624 406.62C476.624 405.887 476.464 405.233 476.144 404.66C475.838 404.073 475.418 403.613 474.884 403.28C474.351 402.947 473.744 402.78 473.064 402.78C472.398 402.78 471.791 402.953 471.244 403.3C470.711 403.633 470.291 404.087 469.984 404.66C469.678 405.22 469.524 405.873 469.524 406.62C469.524 407.34 469.678 407.993 469.984 408.58C470.291 409.153 470.711 409.607 471.244 409.94C471.778 410.273 472.384 410.44 473.064 410.44ZM486.003 412.24C485.23 412.24 484.53 412.06 483.903 411.7C483.29 411.34 482.81 410.84 482.463 410.2C482.13 409.547 481.963 408.8 481.963 407.96V401.22H483.823V407.76C483.823 408.293 483.93 408.76 484.143 409.16C484.37 409.56 484.677 409.873 485.063 410.1C485.463 410.327 485.917 410.44 486.423 410.44C486.93 410.44 487.377 410.327 487.763 410.1C488.163 409.873 488.47 409.547 488.683 409.12C488.91 408.693 489.023 408.187 489.023 407.6V401.22H490.903V412H489.083V409.9L489.383 410.08C489.13 410.76 488.697 411.293 488.083 411.68C487.483 412.053 486.79 412.24 486.003 412.24ZM497.585 412L493.365 401.22H495.445L498.825 410.34H498.105L501.505 401.22H503.585L499.345 412H497.585ZM506.149 412L512.689 398.8H505.389V397.1H514.749V398.8L508.269 412H506.149ZM517.446 412V410.64L521.566 406.18C522.379 405.313 523.026 404.6 523.506 404.04C523.999 403.48 524.359 402.98 524.586 402.54C524.813 402.1 524.926 401.633 524.926 401.14C524.926 400.327 524.686 399.7 524.206 399.26C523.726 398.82 523.093 398.6 522.306 398.6C521.506 398.6 520.826 398.833 520.266 399.3C519.706 399.753 519.319 400.4 519.106 401.24L517.326 400.78C517.499 399.98 517.819 399.287 518.286 398.7C518.753 398.113 519.333 397.66 520.026 397.34C520.719 397.02 521.479 396.86 522.306 396.86C523.213 396.86 524.006 397.04 524.686 397.4C525.379 397.747 525.919 398.233 526.306 398.86C526.706 399.487 526.906 400.213 526.906 401.04C526.906 401.587 526.793 402.12 526.566 402.64C526.339 403.16 526.006 403.713 525.566 404.3C525.126 404.873 524.553 405.54 523.846 406.3L520.166 410.3H527.226V412H517.446ZM530.579 412V401.22H532.399V403.2L532.199 402.92C532.452 402.307 532.839 401.853 533.359 401.56C533.879 401.253 534.512 401.1 535.259 401.1H535.919V402.86H534.979C534.219 402.86 533.605 403.1 533.139 403.58C532.672 404.047 532.439 404.713 532.439 405.58V412H530.579ZM543.511 416.4C542.751 416.4 542.044 416.28 541.391 416.04C540.751 415.8 540.198 415.467 539.731 415.04C539.278 414.627 538.931 414.14 538.691 413.58L540.431 412.78C540.618 413.287 540.971 413.713 541.491 414.06C542.024 414.42 542.691 414.6 543.491 414.6C544.104 414.6 544.658 414.48 545.151 414.24C545.658 414.013 546.058 413.667 546.351 413.2C546.644 412.747 546.791 412.193 546.791 411.54V409.12L547.131 409.48C546.758 410.213 546.218 410.773 545.511 411.16C544.818 411.547 544.051 411.74 543.211 411.74C542.198 411.74 541.291 411.507 540.491 411.04C539.691 410.56 539.064 409.913 538.611 409.1C538.158 408.273 537.931 407.36 537.931 406.36C537.931 405.347 538.158 404.433 538.611 403.62C539.064 402.807 539.684 402.167 540.471 401.7C541.271 401.22 542.178 400.98 543.191 400.98C544.031 400.98 544.791 401.173 545.471 401.56C546.164 401.933 546.718 402.453 547.131 403.12L546.851 403.62V401.22H548.671V411.54C548.671 412.473 548.451 413.307 548.011 414.04C547.571 414.773 546.958 415.347 546.171 415.76C545.398 416.187 544.511 416.4 543.511 416.4ZM543.371 409.94C544.011 409.94 544.584 409.78 545.091 409.46C545.611 409.14 546.024 408.713 546.331 408.18C546.638 407.633 546.791 407.027 546.791 406.36C546.791 405.707 546.638 405.107 546.331 404.56C546.024 404.013 545.611 403.58 545.091 403.26C544.584 402.94 544.011 402.78 543.371 402.78C542.718 402.78 542.124 402.94 541.591 403.26C541.058 403.58 540.638 404.013 540.331 404.56C540.038 405.093 539.891 405.693 539.891 406.36C539.891 407.027 540.038 407.633 540.331 408.18C540.638 408.713 541.051 409.14 541.571 409.46C542.104 409.78 542.704 409.94 543.371 409.94ZM556.934 412.24C555.974 412.24 555.121 412.027 554.374 411.6C553.641 411.173 553.061 410.593 552.634 409.86C552.208 409.113 551.994 408.267 551.994 407.32C551.994 406.8 552.054 406.287 552.174 405.78C552.294 405.273 552.488 404.76 552.754 404.24C553.021 403.72 553.361 403.18 553.774 402.62L557.974 397.1H560.334L555.194 403.78L554.834 403.74C555.034 403.473 555.254 403.267 555.494 403.12C555.748 402.973 556.014 402.867 556.294 402.8C556.588 402.733 556.894 402.7 557.214 402.7C558.094 402.7 558.881 402.907 559.574 403.32C560.281 403.72 560.834 404.273 561.234 404.98C561.648 405.687 561.854 406.5 561.854 407.42C561.854 408.34 561.641 409.167 561.214 409.9C560.788 410.62 560.201 411.193 559.454 411.62C558.721 412.033 557.881 412.24 556.934 412.24ZM556.934 410.48C557.494 410.48 557.994 410.353 558.434 410.1C558.874 409.833 559.221 409.467 559.474 409C559.741 408.533 559.874 408.013 559.874 407.44C559.874 406.84 559.748 406.32 559.494 405.88C559.241 405.427 558.894 405.067 558.454 404.8C558.014 404.533 557.508 404.4 556.934 404.4C556.374 404.4 555.868 404.533 555.414 404.8C554.961 405.067 554.608 405.427 554.354 405.88C554.101 406.32 553.974 406.84 553.974 407.44C553.974 408.013 554.101 408.533 554.354 409C554.621 409.467 554.974 409.833 555.414 410.1C555.868 410.353 556.374 410.48 556.934 410.48ZM570.127 412.24C569.074 412.24 568.134 411.993 567.307 411.5C566.494 411.007 565.854 410.333 565.387 409.48C564.92 408.627 564.687 407.667 564.687 406.6C564.687 405.52 564.92 404.56 565.387 403.72C565.854 402.88 566.494 402.213 567.307 401.72C568.134 401.227 569.074 400.98 570.127 400.98C570.834 400.98 571.494 401.107 572.107 401.36C572.72 401.613 573.26 401.953 573.727 402.38C574.194 402.807 574.534 403.307 574.747 403.88L573.087 404.68C572.834 404.12 572.447 403.667 571.927 403.32C571.407 402.96 570.807 402.78 570.127 402.78C569.474 402.78 568.88 402.947 568.347 403.28C567.827 403.613 567.414 404.067 567.107 404.64C566.8 405.213 566.647 405.873 566.647 406.62C566.647 407.34 566.8 407.993 567.107 408.58C567.414 409.153 567.827 409.607 568.347 409.94C568.88 410.273 569.474 410.44 570.127 410.44C570.807 410.44 571.407 410.267 571.927 409.92C572.447 409.56 572.834 409.087 573.087 408.5L574.747 409.34C574.534 409.9 574.194 410.4 573.727 410.84C573.26 411.267 572.72 411.607 572.107 411.86C571.494 412.113 570.834 412.24 570.127 412.24ZM577.978 412V396.86H579.838V407.24L579.078 407.06L584.798 401.22H587.178L583.038 405.56L587.458 412H585.258L581.218 406.16L582.378 406.1L579.238 409.38L579.838 408.02V412H577.978ZM589.93 412V401.22H591.75V403.2L591.55 402.92C591.804 402.307 592.19 401.853 592.71 401.56C593.23 401.253 593.864 401.1 594.61 401.1H595.27V402.86H594.33C593.57 402.86 592.957 403.1 592.49 403.58C592.024 404.047 591.79 404.713 591.79 405.58V412H589.93ZM602.282 412.24C601.509 412.24 600.782 412.107 600.102 411.84C599.422 411.56 598.829 411.167 598.322 410.66C597.829 410.14 597.469 409.533 597.242 408.84L598.842 408.16C599.122 408.893 599.576 409.467 600.202 409.88C600.842 410.28 601.536 410.48 602.282 410.48C602.896 410.48 603.436 410.347 603.902 410.08C604.382 409.8 604.756 409.42 605.022 408.94C605.289 408.447 605.422 407.9 605.422 407.3C605.422 406.673 605.282 406.12 605.002 405.64C604.736 405.16 604.369 404.787 603.902 404.52C603.436 404.24 602.902 404.1 602.302 404.1C601.689 404.1 601.129 404.24 600.622 404.52C600.116 404.8 599.749 405.153 599.522 405.58L597.942 405.24L599.082 397.1H606.802V398.8H599.822L600.582 398.04L599.702 404.36L599.022 403.96C599.462 403.4 599.976 403 600.562 402.76C601.162 402.507 601.809 402.38 602.502 402.38C603.476 402.38 604.329 402.6 605.062 403.04C605.796 403.48 606.369 404.067 606.782 404.8C607.196 405.533 607.402 406.367 607.402 407.3C607.402 408.233 607.176 409.073 606.722 409.82C606.282 410.567 605.676 411.16 604.902 411.6C604.142 412.027 603.269 412.24 602.282 412.24ZM615.287 412.24C614.5 412.24 613.767 412.1 613.087 411.82C612.407 411.54 611.82 411.147 611.327 410.64C610.833 410.12 610.467 409.507 610.227 408.8L611.887 408.12C612.167 408.867 612.607 409.447 613.207 409.86C613.807 410.273 614.5 410.48 615.287 410.48C615.9 410.48 616.447 410.36 616.927 410.12C617.407 409.88 617.78 409.533 618.047 409.08C618.327 408.627 618.467 408.08 618.467 407.44C618.467 406.787 618.327 406.24 618.047 405.8C617.78 405.347 617.407 405 616.927 404.76C616.447 404.52 615.893 404.4 615.267 404.4C615.067 404.4 614.847 404.413 614.607 404.44C614.38 404.467 614.187 404.507 614.027 404.56L613.607 403.66L617.587 398.8H610.987V397.1H619.807V398.74L616.007 403.42L615.887 402.9C616.78 402.927 617.567 403.133 618.247 403.52C618.927 403.907 619.46 404.433 619.847 405.1C620.233 405.753 620.427 406.52 620.427 407.4C620.427 408.307 620.207 409.127 619.767 409.86C619.327 410.593 618.72 411.173 617.947 411.6C617.173 412.027 616.287 412.24 615.287 412.24ZM628.294 412.24C627.507 412.24 626.774 412.1 626.094 411.82C625.414 411.54 624.827 411.147 624.334 410.64C623.84 410.12 623.474 409.507 623.234 408.8L624.894 408.12C625.174 408.867 625.614 409.447 626.214 409.86C626.814 410.273 627.507 410.48 628.294 410.48C628.907 410.48 629.454 410.36 629.934 410.12C630.414 409.88 630.787 409.533 631.054 409.08C631.334 408.627 631.474 408.08 631.474 407.44C631.474 406.787 631.334 406.24 631.054 405.8C630.787 405.347 630.414 405 629.934 404.76C629.454 404.52 628.9 404.4 628.274 404.4C628.074 404.4 627.854 404.413 627.614 404.44C627.387 404.467 627.194 404.507 627.034 404.56L626.614 403.66L630.594 398.8H623.994V397.1H632.814V398.74L629.014 403.42L628.894 402.9C629.787 402.927 630.574 403.133 631.254 403.52C631.934 403.907 632.467 404.433 632.854 405.1C633.24 405.753 633.434 406.52 633.434 407.4C633.434 408.307 633.214 409.127 632.774 409.86C632.334 410.593 631.727 411.173 630.954 411.6C630.18 412.027 629.294 412.24 628.294 412.24ZM636.961 412L643.501 398.8H636.201V397.1H645.561V398.8L639.081 412H636.961ZM652.478 412.24C651.398 412.24 650.458 411.973 649.658 411.44C648.858 410.907 648.291 410.187 647.958 409.28L649.438 408.56C649.744 409.2 650.164 409.707 650.698 410.08C651.231 410.453 651.824 410.64 652.478 410.64C653.064 410.64 653.551 410.5 653.938 410.22C654.324 409.94 654.518 409.573 654.518 409.12C654.518 408.8 654.424 408.547 654.238 408.36C654.064 408.16 653.851 408.007 653.598 407.9C653.344 407.78 653.111 407.693 652.898 407.64L651.278 407.18C650.304 406.9 649.591 406.5 649.138 405.98C648.698 405.46 648.478 404.853 648.478 404.16C648.478 403.52 648.638 402.967 648.958 402.5C649.291 402.02 649.738 401.647 650.298 401.38C650.871 401.113 651.511 400.98 652.218 400.98C653.164 400.98 654.011 401.22 654.758 401.7C655.518 402.18 656.058 402.853 656.378 403.72L654.858 404.42C654.618 403.86 654.258 403.42 653.778 403.1C653.298 402.767 652.758 402.6 652.158 402.6C651.611 402.6 651.178 402.74 650.858 403.02C650.538 403.287 650.378 403.627 650.378 404.04C650.378 404.347 650.458 404.6 650.618 404.8C650.778 404.987 650.971 405.133 651.198 405.24C651.424 405.333 651.644 405.413 651.858 405.48L653.618 406C654.498 406.253 655.178 406.647 655.658 407.18C656.151 407.713 656.398 408.353 656.398 409.1C656.398 409.7 656.231 410.24 655.898 410.72C655.564 411.2 655.104 411.573 654.518 411.84C653.931 412.107 653.251 412.24 652.478 412.24ZM665.453 412.24C664.266 412.24 663.226 411.92 662.333 411.28C661.453 410.627 660.766 409.727 660.273 408.58C659.779 407.42 659.533 406.073 659.533 404.54C659.533 403.007 659.779 401.667 660.273 400.52C660.766 399.36 661.453 398.46 662.333 397.82C663.213 397.18 664.246 396.86 665.433 396.86C666.619 396.86 667.653 397.18 668.533 397.82C669.413 398.46 670.099 399.36 670.593 400.52C671.099 401.667 671.353 403.007 671.353 404.54C671.353 406.073 671.106 407.42 670.613 408.58C670.119 409.74 669.426 410.64 668.533 411.28C667.653 411.92 666.626 412.24 665.453 412.24ZM665.453 410.42C666.253 410.42 666.946 410.18 667.533 409.7C668.119 409.207 668.573 408.52 668.893 407.64C669.226 406.76 669.393 405.727 669.393 404.54C669.393 403.353 669.226 402.32 668.893 401.44C668.573 400.56 668.113 399.88 667.513 399.4C666.926 398.92 666.233 398.68 665.433 398.68C664.633 398.68 663.939 398.92 663.353 399.4C662.766 399.88 662.306 400.56 661.973 401.44C661.653 402.32 661.493 403.353 661.493 404.54C661.493 405.713 661.653 406.74 661.973 407.62C662.306 408.5 662.766 409.187 663.353 409.68C663.953 410.173 664.653 410.42 665.453 410.42ZM674.905 416V401.22H676.725V403.54L676.485 403.08C676.885 402.44 677.432 401.933 678.125 401.56C678.819 401.173 679.612 400.98 680.505 400.98C681.519 400.98 682.425 401.227 683.225 401.72C684.039 402.213 684.679 402.887 685.145 403.74C685.612 404.58 685.845 405.54 685.845 406.62C685.845 407.673 685.612 408.627 685.145 409.48C684.679 410.333 684.039 411.007 683.225 411.5C682.425 411.993 681.512 412.24 680.485 412.24C679.619 412.24 678.825 412.047 678.105 411.66C677.399 411.273 676.852 410.727 676.465 410.02L676.765 409.7V416H674.905ZM680.345 410.44C681.025 410.44 681.632 410.273 682.165 409.94C682.699 409.607 683.112 409.153 683.405 408.58C683.712 407.993 683.865 407.34 683.865 406.62C683.865 405.873 683.712 405.22 683.405 404.66C683.112 404.087 682.699 403.633 682.165 403.3C681.632 402.953 681.025 402.78 680.345 402.78C679.665 402.78 679.052 402.947 678.505 403.28C677.972 403.613 677.545 404.073 677.225 404.66C676.919 405.233 676.765 405.887 676.765 406.62C676.765 407.34 676.919 407.993 677.225 408.58C677.545 409.153 677.972 409.607 678.505 409.94C679.052 410.273 679.665 410.44 680.345 410.44ZM691.369 412L687.669 401.22H689.729L692.669 410.24L691.949 410.22L694.829 401.22H696.589L699.469 410.22L698.749 410.24L701.709 401.22H703.749L700.049 412H698.269L695.429 403H695.989L693.149 412H691.369ZM706.212 412V396.86H708.072V403.32L707.732 403.14C707.999 402.46 708.426 401.933 709.012 401.56C709.612 401.173 710.312 400.98 711.112 400.98C711.886 400.98 712.572 401.153 713.172 401.5C713.786 401.847 714.266 402.327 714.612 402.94C714.972 403.553 715.152 404.247 715.152 405.02V412H713.272V405.62C713.272 405.02 713.159 404.513 712.932 404.1C712.719 403.687 712.419 403.367 712.032 403.14C711.646 402.9 711.199 402.78 710.692 402.78C710.199 402.78 709.752 402.9 709.352 403.14C708.952 403.367 708.639 403.693 708.412 404.12C708.186 404.533 708.072 405.033 708.072 405.62V412H706.212ZM727.234 416V409.7L727.534 410.02C727.16 410.727 726.614 411.273 725.894 411.66C725.187 412.047 724.394 412.24 723.514 412.24C722.5 412.24 721.587 411.993 720.774 411.5C719.974 411.007 719.34 410.333 718.874 409.48C718.407 408.627 718.174 407.673 718.174 406.62C718.174 405.54 718.407 404.58 718.874 403.74C719.34 402.887 719.974 402.213 720.774 401.72C721.587 401.227 722.5 400.98 723.514 400.98C724.407 400.98 725.2 401.173 725.894 401.56C726.587 401.933 727.134 402.44 727.534 403.08L727.294 403.54V401.22H729.114V416H727.234ZM723.674 410.44C724.354 410.44 724.96 410.273 725.494 409.94C726.027 409.607 726.447 409.153 726.754 408.58C727.074 407.993 727.234 407.34 727.234 406.62C727.234 405.887 727.074 405.233 726.754 404.66C726.447 404.073 726.027 403.613 725.494 403.28C724.96 402.947 724.354 402.78 723.674 402.78C723.007 402.78 722.4 402.953 721.854 403.3C721.32 403.633 720.9 404.087 720.594 404.66C720.287 405.22 720.134 405.873 720.134 406.62C720.134 407.34 720.287 407.993 720.594 408.58C720.9 409.153 721.32 409.607 721.854 409.94C722.387 410.273 722.994 410.44 723.674 410.44ZM732.793 412V401.22H734.613V403.2L734.413 402.92C734.666 402.307 735.053 401.853 735.573 401.56C736.093 401.253 736.726 401.1 737.473 401.1H738.133V402.86H737.193C736.433 402.86 735.819 403.1 735.353 403.58C734.886 404.047 734.653 404.713 734.653 405.58V412H732.793ZM740.585 412V401.22H742.405V403.42L742.145 403.08C742.412 402.4 742.838 401.88 743.425 401.52C744.012 401.16 744.672 400.98 745.405 400.98C746.245 400.98 746.998 401.213 747.665 401.68C748.345 402.147 748.812 402.76 749.065 403.52L748.545 403.54C748.825 402.7 749.298 402.067 749.965 401.64C750.632 401.2 751.372 400.98 752.185 400.98C752.932 400.98 753.605 401.153 754.205 401.5C754.818 401.847 755.305 402.327 755.665 402.94C756.025 403.553 756.205 404.247 756.205 405.02V412H754.325V405.62C754.325 405.02 754.218 404.513 754.005 404.1C753.792 403.687 753.498 403.367 753.125 403.14C752.765 402.9 752.338 402.78 751.845 402.78C751.365 402.78 750.932 402.9 750.545 403.14C750.172 403.367 749.872 403.693 749.645 404.12C749.432 404.533 749.325 405.033 749.325 405.62V412H747.445V405.62C747.445 405.02 747.338 404.513 747.125 404.1C746.912 403.687 746.618 403.367 746.245 403.14C745.885 402.9 745.458 402.78 744.965 402.78C744.485 402.78 744.052 402.9 743.665 403.14C743.292 403.367 742.992 403.693 742.765 404.12C742.552 404.533 742.445 405.033 742.445 405.62V412H740.585ZM763.467 412.24C762.693 412.24 761.993 412.06 761.367 411.7C760.753 411.34 760.273 410.84 759.927 410.2C759.593 409.547 759.427 408.8 759.427 407.96V401.22H761.287V407.76C761.287 408.293 761.393 408.76 761.607 409.16C761.833 409.56 762.14 409.873 762.527 410.1C762.927 410.327 763.38 410.44 763.887 410.44C764.393 410.44 764.84 410.327 765.227 410.1C765.627 409.873 765.933 409.547 766.147 409.12C766.373 408.693 766.487 408.187 766.487 407.6V401.22H768.367V412H766.547V409.9L766.847 410.08C766.593 410.76 766.16 411.293 765.547 411.68C764.947 412.053 764.253 412.24 763.467 412.24ZM777.008 412.24C775.968 412.24 775.042 411.993 774.228 411.5C773.415 411.007 772.775 410.333 772.308 409.48C771.842 408.613 771.608 407.647 771.608 406.58C771.608 405.5 771.835 404.54 772.288 403.7C772.755 402.86 773.382 402.2 774.168 401.72C774.968 401.227 775.862 400.98 776.848 400.98C777.648 400.98 778.355 401.127 778.968 401.42C779.595 401.7 780.122 402.087 780.548 402.58C780.988 403.06 781.322 403.613 781.548 404.24C781.788 404.853 781.908 405.493 781.908 406.16C781.908 406.307 781.895 406.473 781.868 406.66C781.855 406.833 781.835 407 781.808 407.16H772.968V405.56H780.728L779.848 406.28C779.968 405.587 779.902 404.967 779.648 404.42C779.395 403.873 779.022 403.44 778.528 403.12C778.035 402.8 777.475 402.64 776.848 402.64C776.222 402.64 775.648 402.8 775.128 403.12C774.608 403.44 774.202 403.9 773.908 404.5C773.628 405.087 773.515 405.787 773.568 406.6C773.515 407.387 773.635 408.08 773.928 408.68C774.235 409.267 774.662 409.727 775.208 410.06C775.768 410.38 776.375 410.54 777.028 410.54C777.748 410.54 778.355 410.373 778.848 410.04C779.342 409.707 779.742 409.28 780.048 408.76L781.608 409.56C781.395 410.053 781.062 410.507 780.608 410.92C780.168 411.32 779.642 411.64 779.028 411.88C778.428 412.12 777.755 412.24 777.008 412.24ZM789.993 412.24C788.993 412.24 788.107 412.04 787.333 411.64C786.573 411.24 785.973 410.7 785.533 410.02C785.107 409.327 784.893 408.553 784.893 407.7C784.893 406.74 785.16 405.9 785.693 405.18C786.227 404.46 786.96 403.947 787.893 403.64L787.853 404.14C787.147 403.86 786.593 403.413 786.193 402.8C785.807 402.173 785.613 401.5 785.613 400.78C785.613 400.02 785.8 399.347 786.173 398.76C786.56 398.173 787.08 397.713 787.733 397.38C788.4 397.033 789.153 396.86 789.993 396.86C790.833 396.86 791.58 397.027 792.233 397.36C792.887 397.693 793.4 398.16 793.773 398.76C794.16 399.347 794.353 400.02 794.353 400.78C794.353 401.54 794.147 402.22 793.733 402.82C793.333 403.42 792.8 403.867 792.133 404.16L792.073 403.64C793.02 403.947 793.76 404.467 794.293 405.2C794.827 405.92 795.093 406.753 795.093 407.7C795.093 408.553 794.873 409.327 794.433 410.02C794.007 410.7 793.407 411.24 792.633 411.64C791.873 412.04 790.993 412.24 789.993 412.24ZM789.993 410.54C790.62 410.54 791.167 410.42 791.633 410.18C792.1 409.94 792.46 409.607 792.713 409.18C792.98 408.74 793.113 408.24 793.113 407.68C793.113 407.107 792.98 406.607 792.713 406.18C792.46 405.74 792.1 405.407 791.633 405.18C791.167 404.94 790.62 404.82 789.993 404.82C789.367 404.82 788.813 404.94 788.333 405.18C787.867 405.407 787.507 405.74 787.253 406.18C787 406.607 786.873 407.107 786.873 407.68C786.873 408.24 787 408.74 787.253 409.18C787.507 409.607 787.867 409.94 788.333 410.18C788.813 410.42 789.367 410.54 789.993 410.54ZM789.993 403.12C790.447 403.12 790.847 403.02 791.193 402.82C791.553 402.62 791.84 402.353 792.053 402.02C792.267 401.673 792.373 401.273 792.373 400.82C792.373 400.367 792.267 399.973 792.053 399.64C791.84 399.307 791.553 399.047 791.193 398.86C790.847 398.66 790.447 398.56 789.993 398.56C789.527 398.56 789.113 398.66 788.753 398.86C788.393 399.047 788.107 399.307 787.893 399.64C787.68 399.973 787.573 400.367 787.573 400.82C787.573 401.273 787.68 401.673 787.893 402.02C788.107 402.353 788.393 402.62 788.753 402.82C789.113 403.02 789.527 403.12 789.993 403.12ZM797.452 412V410.42L803.872 402.32L804.192 403H797.772V401.22H805.852V402.8L799.492 410.92L799.172 410.22H805.892V412H797.452ZM814.331 412.24C813.144 412.24 812.104 411.92 811.211 411.28C810.331 410.627 809.644 409.727 809.151 408.58C808.657 407.42 808.411 406.073 808.411 404.54C808.411 403.007 808.657 401.667 809.151 400.52C809.644 399.36 810.331 398.46 811.211 397.82C812.091 397.18 813.124 396.86 814.311 396.86C815.497 396.86 816.531 397.18 817.411 397.82C818.291 398.46 818.977 399.36 819.471 400.52C819.977 401.667 820.231 403.007 820.231 404.54C820.231 406.073 819.984 407.42 819.491 408.58C818.997 409.74 818.304 410.64 817.411 411.28C816.531 411.92 815.504 412.24 814.331 412.24ZM814.331 410.42C815.131 410.42 815.824 410.18 816.411 409.7C816.997 409.207 817.451 408.52 817.771 407.64C818.104 406.76 818.271 405.727 818.271 404.54C818.271 403.353 818.104 402.32 817.771 401.44C817.451 400.56 816.991 399.88 816.391 399.4C815.804 398.92 815.111 398.68 814.311 398.68C813.511 398.68 812.817 398.92 812.231 399.4C811.644 399.88 811.184 400.56 810.851 401.44C810.531 402.32 810.371 403.353 810.371 404.54C810.371 405.713 810.531 406.74 810.851 407.62C811.184 408.5 811.644 409.187 812.231 409.68C812.831 410.173 813.531 410.42 814.331 410.42ZM823.783 412V401.22H825.603V403.32L825.303 403.14C825.57 402.46 825.997 401.933 826.583 401.56C827.183 401.173 827.883 400.98 828.683 400.98C829.457 400.98 830.143 401.153 830.743 401.5C831.357 401.847 831.837 402.327 832.183 402.94C832.543 403.553 832.723 404.247 832.723 405.02V412H830.843V405.62C830.843 405.02 830.737 404.513 830.523 404.1C830.31 403.687 830.003 403.367 829.603 403.14C829.217 402.9 828.77 402.78 828.263 402.78C827.757 402.78 827.303 402.9 826.903 403.14C826.517 403.367 826.21 403.693 825.983 404.12C825.757 404.533 825.643 405.033 825.643 405.62V412H823.783ZM836.185 412V396.86H838.045V412H836.185ZM844.731 412L840.511 401.22H842.591L845.971 410.34H845.251L848.651 401.22H850.731L846.491 412H844.731ZM853.195 412V401.22H855.015V403.32L854.715 403.14C854.982 402.46 855.408 401.933 855.995 401.56C856.595 401.173 857.295 400.98 858.095 400.98C858.868 400.98 859.555 401.153 860.155 401.5C860.768 401.847 861.248 402.327 861.595 402.94C861.955 403.553 862.135 404.247 862.135 405.02V412H860.255V405.62C860.255 405.02 860.148 404.513 859.935 404.1C859.722 403.687 859.415 403.367 859.015 403.14C858.628 402.9 858.182 402.78 857.675 402.78C857.168 402.78 856.715 402.9 856.315 403.14C855.928 403.367 855.622 403.693 855.395 404.12C855.168 404.533 855.055 405.033 855.055 405.62V412H853.195ZM864.377 412L868.157 406.6L864.397 401.22H866.637L869.857 405.9H868.717L871.897 401.22H874.157L870.397 406.6L874.137 412H871.897L868.717 407.32H869.837L866.657 412H864.377ZM880.471 412.24C879.391 412.24 878.451 411.973 877.651 411.44C876.851 410.907 876.285 410.187 875.951 409.28L877.431 408.56C877.738 409.2 878.158 409.707 878.691 410.08C879.225 410.453 879.818 410.64 880.471 410.64C881.058 410.64 881.545 410.5 881.931 410.22C882.318 409.94 882.511 409.573 882.511 409.12C882.511 408.8 882.418 408.547 882.231 408.36C882.058 408.16 881.845 408.007 881.591 407.9C881.338 407.78 881.105 407.693 880.891 407.64L879.271 407.18C878.298 406.9 877.585 406.5 877.131 405.98C876.691 405.46 876.471 404.853 876.471 404.16C876.471 403.52 876.631 402.967 876.951 402.5C877.285 402.02 877.731 401.647 878.291 401.38C878.865 401.113 879.505 400.98 880.211 400.98C881.158 400.98 882.005 401.22 882.751 401.7C883.511 402.18 884.051 402.853 884.371 403.72L882.851 404.42C882.611 403.86 882.251 403.42 881.771 403.1C881.291 402.767 880.751 402.6 880.151 402.6C879.605 402.6 879.171 402.74 878.851 403.02C878.531 403.287 878.371 403.627 878.371 404.04C878.371 404.347 878.451 404.6 878.611 404.8C878.771 404.987 878.965 405.133 879.191 405.24C879.418 405.333 879.638 405.413 879.851 405.48L881.611 406C882.491 406.253 883.171 406.647 883.651 407.18C884.145 407.713 884.391 408.353 884.391 409.1C884.391 409.7 884.225 410.24 883.891 410.72C883.558 411.2 883.098 411.573 882.511 411.84C881.925 412.107 881.245 412.24 880.471 412.24ZM887.626 412V401.22H889.446V403.32L889.146 403.14C889.413 402.46 889.84 401.933 890.426 401.56C891.026 401.173 891.726 400.98 892.526 400.98C893.3 400.98 893.986 401.153 894.586 401.5C895.2 401.847 895.68 402.327 896.026 402.94C896.386 403.553 896.566 404.247 896.566 405.02V412H894.686V405.62C894.686 405.02 894.58 404.513 894.366 404.1C894.153 403.687 893.846 403.367 893.446 403.14C893.06 402.9 892.613 402.78 892.106 402.78C891.6 402.78 891.146 402.9 890.746 403.14C890.36 403.367 890.053 403.693 889.826 404.12C889.6 404.533 889.486 405.033 889.486 405.62V412H887.626ZM900.028 412V401.22H901.848V403.2L901.648 402.92C901.901 402.307 902.288 401.853 902.808 401.56C903.328 401.253 903.961 401.1 904.708 401.1H905.368V402.86H904.428C903.668 402.86 903.055 403.1 902.588 403.58C902.121 404.047 901.888 404.713 901.888 405.58V412H900.028ZM907.82 416V401.22H909.64V403.54L909.4 403.08C909.8 402.44 910.347 401.933 911.04 401.56C911.733 401.173 912.527 400.98 913.42 400.98C914.433 400.98 915.34 401.227 916.14 401.72C916.953 402.213 917.593 402.887 918.06 403.74C918.527 404.58 918.76 405.54 918.76 406.62C918.76 407.673 918.527 408.627 918.06 409.48C917.593 410.333 916.953 411.007 916.14 411.5C915.34 411.993 914.427 412.24 913.4 412.24C912.533 412.24 911.74 412.047 911.02 411.66C910.313 411.273 909.767 410.727 909.38 410.02L909.68 409.7V416H907.82ZM913.26 410.44C913.94 410.44 914.547 410.273 915.08 409.94C915.613 409.607 916.027 409.153 916.32 408.58C916.627 407.993 916.78 407.34 916.78 406.62C916.78 405.873 916.627 405.22 916.32 404.66C916.027 404.087 915.613 403.633 915.08 403.3C914.547 402.953 913.94 402.78 913.26 402.78C912.58 402.78 911.967 402.947 911.42 403.28C910.887 403.613 910.46 404.073 910.14 404.66C909.833 405.233 909.68 405.887 909.68 406.62C909.68 407.34 909.833 407.993 910.14 408.58C910.46 409.153 910.887 409.607 911.42 409.94C911.967 410.273 912.58 410.44 913.26 410.44ZM924.284 412L920.584 401.22H922.644L925.584 410.24L924.864 410.22L927.744 401.22H929.504L932.384 410.22L931.664 410.24L934.624 401.22H936.664L932.964 412H931.184L928.344 403H928.904L926.064 412H924.284ZM937.907 412L941.687 406.6L937.927 401.22H940.167L943.387 405.9H942.247L945.427 401.22H947.687L943.927 406.6L947.667 412H945.427L942.247 407.32H943.367L940.187 412H937.907Z" fill="black"/>
<rect width="163" height="50" transform="translate(220 493)" fill="#FAADA9" fill-opacity="0.12"/>
<path d="M262.694 512.36L265.64 515.306M263.944 511.11C264.757 510.297 266.076 510.297 266.89 511.11C267.703 511.924 267.703 513.243 266.89 514.056L255.417 525.53H252.5V522.554L263.944 511.11Z" stroke="black" stroke-width="1.5" stroke-linecap="round" stroke-linejoin="round"/>
<path d="M278.654 525L282.846 513.08H285.182L289.374 525H287.358L286.446 522.328H281.598L280.67 525H278.654ZM282.142 520.648H285.87L283.758 514.408H284.286L282.142 520.648ZM291.428 525V513.08H293.188L297.668 519.288H296.788L301.188 513.08H302.948V525H301.076V515.304L301.78 515.496L297.284 521.64H297.092L292.692 515.496L293.316 515.304V525H291.428ZM311.845 525.192C310.981 525.192 310.175 525.037 309.429 524.728C308.693 524.419 308.042 523.987 307.477 523.432C306.922 522.877 306.485 522.227 306.165 521.48C305.855 520.733 305.701 519.917 305.701 519.032C305.701 518.147 305.855 517.331 306.165 516.584C306.485 515.827 306.922 515.176 307.477 514.632C308.031 514.077 308.682 513.651 309.429 513.352C310.175 513.043 310.981 512.888 311.845 512.888C312.719 512.888 313.525 513.043 314.261 513.352C315.007 513.651 315.658 514.077 316.213 514.632C316.778 515.187 317.215 515.837 317.525 516.584C317.834 517.331 317.989 518.147 317.989 519.032C317.989 519.917 317.829 520.733 317.509 521.48C317.199 522.227 316.767 522.877 316.213 523.432C315.658 523.987 315.007 524.419 314.261 524.728C313.514 525.037 312.709 525.192 311.845 525.192ZM311.845 523.464C312.463 523.464 313.029 523.352 313.541 523.128C314.063 522.904 314.517 522.595 314.901 522.2C315.285 521.795 315.583 521.325 315.797 520.792C316.01 520.248 316.117 519.661 316.117 519.032C316.117 518.403 316.01 517.821 315.797 517.288C315.583 516.755 315.285 516.285 314.901 515.88C314.517 515.475 314.063 515.16 313.541 514.936C313.029 514.712 312.463 514.6 311.845 514.6C311.226 514.6 310.655 514.712 310.133 514.936C309.621 515.16 309.173 515.475 308.789 515.88C308.405 516.285 308.106 516.755 307.893 517.288C307.69 517.821 307.589 518.403 307.589 519.032C307.589 519.661 307.69 520.248 307.893 520.792C308.106 521.325 308.405 521.795 308.789 522.2C309.173 522.595 309.626 522.904 310.149 523.128C310.671 523.352 311.237 523.464 311.845 523.464ZM325.203 525.192C324.318 525.192 323.529 525.005 322.835 524.632C322.153 524.259 321.614 523.747 321.219 523.096C320.835 522.445 320.643 521.704 320.643 520.872V513.08H322.531V520.792C322.531 521.315 322.643 521.779 322.867 522.184C323.102 522.589 323.417 522.904 323.812 523.128C324.217 523.352 324.681 523.464 325.203 523.464C325.737 523.464 326.201 523.352 326.595 523.128C327.001 522.904 327.316 522.589 327.54 522.184C327.774 521.779 327.892 521.315 327.892 520.792V513.08H329.764V520.872C329.764 521.704 329.572 522.445 329.188 523.096C328.803 523.747 328.265 524.259 327.571 524.632C326.889 525.005 326.1 525.192 325.203 525.192ZM332.77 525V513.08H334.29L340.978 522.312L340.258 522.424V513.08H342.13V525H340.61L333.97 515.704L334.658 515.576V525H332.77ZM347.35 525V514.76H344.182V513.08H352.342V514.76H349.222V525H347.35Z" fill="black"/>
<rect width="160" height="50" transform="translate(415 493)" fill="#FAADA9" fill-opacity="0.12"/>
<path d="M459.833 514.667H468.167M459.833 518H463.167M464 524.667L460.667 521.333H458.167C457.246 521.333 456.5 520.587 456.5 519.667V513C456.5 512.08 457.246 511.333 458.167 511.333H469.833C470.754 511.333 471.5 512.08 471.5 513V519.667C471.5 520.587 470.754 521.333 469.833 521.333H467.333L464 524.667Z" stroke="black" stroke-width="1.5" stroke-linecap="round" stroke-linejoin="round"/>
<path d="M483.46 525V513.08H485.22L489.7 519.288H488.82L493.22 513.08H494.98V525H493.108V515.304L493.812 515.496L489.316 521.64H489.124L484.724 515.496L485.348 515.304V525H483.46ZM498.084 525V513.08H505.94V514.76H499.972V518.184H505.62V519.864H499.972V523.32H505.94V525H498.084ZM508.333 525V513.08H510.093L514.573 519.288H513.693L518.093 513.08H519.853V525H517.981V515.304L518.685 515.496L514.189 521.64H513.997L509.597 515.496L510.221 515.304V525H508.333ZM528.75 525.192C527.886 525.192 527.08 525.037 526.334 524.728C525.598 524.419 524.947 523.987 524.382 523.432C523.827 522.877 523.39 522.227 523.07 521.48C522.76 520.733 522.606 519.917 522.606 519.032C522.606 518.147 522.76 517.331 523.07 516.584C523.39 515.827 523.827 515.176 524.382 514.632C524.936 514.077 525.587 513.651 526.334 513.352C527.08 513.043 527.886 512.888 528.75 512.888C529.624 512.888 530.43 513.043 531.166 513.352C531.912 513.651 532.563 514.077 533.118 514.632C533.683 515.187 534.12 515.837 534.43 516.584C534.739 517.331 534.894 518.147 534.894 519.032C534.894 519.917 534.734 520.733 534.414 521.48C534.104 522.227 533.672 522.877 533.118 523.432C532.563 523.987 531.912 524.419 531.166 524.728C530.419 525.037 529.614 525.192 528.75 525.192ZM528.75 523.464C529.368 523.464 529.934 523.352 530.446 523.128C530.968 522.904 531.422 522.595 531.806 522.2C532.19 521.795 532.488 521.325 532.702 520.792C532.915 520.248 533.022 519.661 533.022 519.032C533.022 518.403 532.915 517.821 532.702 517.288C532.488 516.755 532.19 516.285 531.806 515.88C531.422 515.475 530.968 515.16 530.446 514.936C529.934 514.712 529.368 514.6 528.75 514.6C528.131 514.6 527.56 514.712 527.038 514.936C526.526 515.16 526.078 515.475 525.694 515.88C525.31 516.285 525.011 516.755 524.798 517.288C524.595 517.821 524.494 518.403 524.494 519.032C524.494 519.661 524.595 520.248 524.798 520.792C525.011 521.325 525.31 521.795 525.694 522.2C526.078 522.595 526.531 522.904 527.054 523.128C527.576 523.352 528.142 523.464 528.75 523.464Z" fill="black"/>
<rect width="163" height="50" transform="translate(607 493)" fill="#FAADA9" fill-opacity="0.12"/>
<path d="M656.667 521.333H655C654.08 521.333 653.333 520.587 653.333 519.667V513C653.333 512.08 654.08 511.333 655 511.333H661.667C662.587 511.333 663.333 512.08 663.333 513V514.667M658.333 524.667H665C665.92 524.667 666.667 523.921 666.667 523V516.333C666.667 515.413 665.92 514.667 665 514.667H658.333C657.413 514.667 656.667 515.413 656.667 516.333V523C656.667 523.921 657.413 524.667 658.333 524.667Z" stroke="black" stroke-width="1.5" stroke-linecap="round" stroke-linejoin="round"/>
<path d="M684.879 525.192C684.036 525.192 683.252 525.037 682.527 524.728C681.812 524.419 681.188 523.992 680.655 523.448C680.132 522.893 679.721 522.243 679.423 521.496C679.124 520.749 678.975 519.928 678.975 519.032C678.975 518.147 679.119 517.331 679.407 516.584C679.705 515.827 680.121 515.176 680.655 514.632C681.188 514.077 681.812 513.651 682.527 513.352C683.241 513.043 684.025 512.888 684.879 512.888C685.721 512.888 686.473 513.032 687.135 513.32C687.807 513.608 688.372 513.987 688.831 514.456C689.289 514.915 689.62 515.416 689.823 515.96L688.127 516.76C687.871 516.12 687.46 515.603 686.895 515.208C686.34 514.803 685.668 514.6 684.879 514.6C684.089 514.6 683.391 514.787 682.783 515.16C682.175 515.533 681.7 516.051 681.359 516.712C681.028 517.373 680.863 518.147 680.863 519.032C680.863 519.917 681.028 520.696 681.359 521.368C681.7 522.029 682.175 522.547 682.783 522.92C683.391 523.283 684.089 523.464 684.879 523.464C685.668 523.464 686.34 523.267 686.895 522.872C687.46 522.477 687.871 521.96 688.127 521.32L689.823 522.12C689.62 522.653 689.289 523.155 688.831 523.624C688.372 524.093 687.807 524.472 687.135 524.76C686.473 525.048 685.721 525.192 684.879 525.192ZM698.196 525.192C697.332 525.192 696.527 525.037 695.78 524.728C695.044 524.419 694.394 523.987 693.828 523.432C693.274 522.877 692.836 522.227 692.516 521.48C692.207 520.733 692.052 519.917 692.052 519.032C692.052 518.147 692.207 517.331 692.516 516.584C692.836 515.827 693.274 515.176 693.828 514.632C694.383 514.077 695.034 513.651 695.78 513.352C696.527 513.043 697.332 512.888 698.196 512.888C699.071 512.888 699.876 513.043 700.612 513.352C701.359 513.651 702.01 514.077 702.564 514.632C703.13 515.187 703.567 515.837 703.876 516.584C704.186 517.331 704.34 518.147 704.34 519.032C704.34 519.917 704.18 520.733 703.86 521.48C703.551 522.227 703.119 522.877 702.564 523.432C702.01 523.987 701.359 524.419 700.612 524.728C699.866 525.037 699.06 525.192 698.196 525.192ZM698.196 523.464C698.815 523.464 699.38 523.352 699.892 523.128C700.415 522.904 700.868 522.595 701.252 522.2C701.636 521.795 701.935 521.325 702.148 520.792C702.362 520.248 702.468 519.661 702.468 519.032C702.468 518.403 702.362 517.821 702.148 517.288C701.935 516.755 701.636 516.285 701.252 515.88C700.868 515.475 700.415 515.16 699.892 514.936C699.38 514.712 698.815 514.6 698.196 514.6C697.578 514.6 697.007 514.712 696.484 514.936C695.972 515.16 695.524 515.475 695.14 515.88C694.756 516.285 694.458 516.755 694.244 517.288C694.042 517.821 693.94 518.403 693.94 519.032C693.94 519.661 694.042 520.248 694.244 520.792C694.458 521.325 694.756 521.795 695.14 522.2C695.524 522.595 695.978 522.904 696.5 523.128C697.023 523.352 697.588 523.464 698.196 523.464ZM707.091 525V513.08H711.427C712.227 513.08 712.931 513.229 713.539 513.528C714.158 513.816 714.638 514.243 714.979 514.808C715.32 515.363 715.491 516.029 715.491 516.808C715.491 517.576 715.315 518.237 714.963 518.792C714.622 519.347 714.147 519.773 713.539 520.072C712.931 520.371 712.227 520.52 711.427 520.52H708.979V525H707.091ZM708.979 518.84H711.475C711.902 518.84 712.275 518.755 712.595 518.584C712.915 518.413 713.166 518.179 713.347 517.88C713.528 517.571 713.619 517.208 713.619 516.792C713.619 516.376 713.528 516.019 713.347 515.72C713.166 515.411 712.915 515.176 712.595 515.016C712.275 514.845 711.902 514.76 711.475 514.76H708.979V518.84ZM720.786 525V519.624L716.706 513.08H718.834L722.098 518.376H721.346L724.594 513.08H726.722L722.658 519.624V525H720.786Z" fill="black"/>
<rect width="164" height="50" transform="translate(802 493)" fill="#FAADA9" fill-opacity="0.12"/>
<path d="M838.75 511.333C838.75 510.919 838.414 510.583 838 510.583C837.586 510.583 837.25 510.919 837.25 511.333H838.75ZM837.25 512.167C837.25 512.581 837.586 512.917 838 512.917C838.414 512.917 838.75 512.581 838.75 512.167H837.25ZM843 520.583C842.586 520.583 842.25 520.919 842.25 521.333C842.25 521.748 842.586 522.083 843 522.083V520.583ZM844.667 522.083C845.081 522.083 845.417 521.748 845.417 521.333C845.417 520.919 845.081 520.583 844.667 520.583V522.083ZM838 521.333V520.583C837.586 520.583 837.25 520.919 837.25 521.333H838ZM839.667 522.083C840.081 522.083 840.417 521.748 840.417 521.333C840.417 520.919 840.081 520.583 839.667 520.583V522.083ZM837.25 524.667C837.25 525.081 837.586 525.417 838 525.417C838.414 525.417 838.75 525.081 838.75 524.667H837.25ZM838.75 515.5C838.75 515.086 838.414 514.75 838 514.75C837.586 514.75 837.25 515.086 837.25 515.5H838.75ZM838 518H837.25C837.25 518.414 837.586 518.75 838 518.75V518ZM841.333 523.917C840.919 523.917 840.583 524.252 840.583 524.667C840.583 525.081 840.919 525.417 841.333 525.417V523.917ZM844.667 525.417C845.081 525.417 845.417 525.081 845.417 524.667C845.417 524.252 845.081 523.917 844.667 523.917V525.417ZM831.333 517.25C830.919 517.25 830.583 517.586 830.583 518C830.583 518.414 830.919 518.75 831.333 518.75V517.25ZM834.667 518.75C835.081 518.75 835.417 518.414 835.417 518C835.417 517.586 835.081 517.25 834.667 517.25V518.75ZM838.008 518.75C838.423 518.75 838.758 518.414 838.758 518C838.758 517.586 838.423 517.25 838.008 517.25V518.75ZM841.342 518.75C841.756 518.75 842.092 518.414 842.092 518C842.092 517.586 841.756 517.25 841.342 517.25V518.75ZM844.667 517.25C844.252 517.25 843.917 517.586 843.917 518C843.917 518.414 844.252 518.75 844.667 518.75V517.25ZM844.675 518.75C845.089 518.75 845.425 518.414 845.425 518C845.425 517.586 845.089 517.25 844.675 517.25V518.75ZM832.167 512.083H833.833V510.583H832.167V512.083ZM833.917 512.167V513.833H835.417V512.167H833.917ZM833.833 513.917H832.167V515.417H833.833V513.917ZM832.083 513.833V512.167H830.583V513.833H832.083ZM832.167 513.917C832.121 513.917 832.083 513.879 832.083 513.833H830.583C830.583 514.708 831.292 515.417 832.167 515.417V513.917ZM833.917 513.833C833.917 513.879 833.879 513.917 833.833 513.917V515.417C834.708 515.417 835.417 514.708 835.417 513.833H833.917ZM833.833 512.083C833.879 512.083 833.917 512.121 833.917 512.167H835.417C835.417 511.292 834.708 510.583 833.833 510.583V512.083ZM832.167 510.583C831.292 510.583 830.583 511.292 830.583 512.167H832.083C832.083 512.121 832.121 512.083 832.167 512.083V510.583ZM842.167 512.083H843.833V510.583H842.167V512.083ZM843.917 512.167V513.833H845.417V512.167H843.917ZM843.833 513.917H842.167V515.417H843.833V513.917ZM842.083 513.833V512.167H840.583V513.833H842.083ZM842.167 513.917C842.121 513.917 842.083 513.879 842.083 513.833H840.583C840.583 514.708 841.292 515.417 842.167 515.417V513.917ZM843.917 513.833C843.917 513.879 843.879 513.917 843.833 513.917V515.417C844.708 515.417 845.417 514.708 845.417 513.833H843.917ZM843.833 512.083C843.879 512.083 843.917 512.121 843.917 512.167H845.417C845.417 511.292 844.708 510.583 843.833 510.583V512.083ZM842.167 510.583C841.292 510.583 840.583 511.292 840.583 512.167H842.083C842.083 512.121 842.121 512.083 842.167 512.083V510.583ZM832.167 522.083H833.833V520.583H832.167V522.083ZM833.917 522.167V523.833H835.417V522.167H833.917ZM833.833 523.917H832.167V525.417H833.833V523.917ZM832.083 523.833V522.167H830.583V523.833H832.083ZM832.167 523.917C832.121 523.917 832.083 523.879 832.083 523.833H830.583C830.583 524.708 831.292 525.417 832.167 525.417V523.917ZM833.917 523.833C833.917 523.879 833.879 523.917 833.833 523.917V525.417C834.708 525.417 835.417 524.708 835.417 523.833H833.917ZM833.833 522.083C833.879 522.083 833.917 522.121 833.917 522.167H835.417C835.417 521.292 834.708 520.583 833.833 520.583V522.083ZM832.167 520.583C831.292 520.583 830.583 521.292 830.583 522.167H832.083C832.083 522.121 832.121 522.083 832.167 522.083V520.583ZM837.25 511.333V512.167H838.75V511.333H837.25ZM843 522.083H844.667V520.583H843V522.083ZM838 522.083H839.667V520.583H838V522.083ZM837.25 521.333V524.667H838.75V521.333H837.25ZM837.25 515.5V518H838.75V515.5H837.25ZM841.333 525.417H844.667V523.917H841.333V525.417ZM831.333 518.75H834.667V517.25H831.333V518.75ZM838 518.75H838.008V517.25H838V518.75ZM844.667 518.75H844.675V517.25H844.667V518.75ZM838 518.75H841.342V517.25H838V518.75Z" fill="black"/>
<path d="M861.847 525.192C861.101 525.192 860.407 525.053 859.767 524.776C859.127 524.488 858.583 524.099 858.135 523.608C857.687 523.117 857.357 522.552 857.143 521.912L858.743 521.24C859.031 521.976 859.453 522.541 860.007 522.936C860.562 523.331 861.202 523.528 861.927 523.528C862.354 523.528 862.727 523.464 863.047 523.336C863.367 523.197 863.613 523.005 863.783 522.76C863.965 522.515 864.055 522.232 864.055 521.912C864.055 521.475 863.933 521.128 863.687 520.872C863.442 520.616 863.079 520.413 862.599 520.264L860.359 519.56C859.463 519.283 858.781 518.861 858.311 518.296C857.842 517.72 857.607 517.048 857.607 516.28C857.607 515.608 857.773 515.021 858.103 514.52C858.434 514.008 858.887 513.608 859.463 513.32C860.05 513.032 860.717 512.888 861.463 512.888C862.178 512.888 862.829 513.016 863.415 513.272C864.002 513.517 864.503 513.859 864.919 514.296C865.346 514.733 865.655 515.24 865.847 515.816L864.279 516.504C864.045 515.875 863.677 515.389 863.175 515.048C862.685 514.707 862.114 514.536 861.463 514.536C861.069 514.536 860.722 514.605 860.423 514.744C860.125 514.872 859.89 515.064 859.719 515.32C859.559 515.565 859.479 515.853 859.479 516.184C859.479 516.568 859.602 516.909 859.847 517.208C860.093 517.507 860.466 517.731 860.967 517.88L863.047 518.536C863.997 518.824 864.711 519.24 865.191 519.784C865.671 520.317 865.911 520.984 865.911 521.784C865.911 522.445 865.735 523.032 865.383 523.544C865.042 524.056 864.567 524.461 863.959 524.76C863.351 525.048 862.647 525.192 861.847 525.192ZM868.671 525V513.08H870.559V518.328H876.079V513.08H877.951V525H876.079V520.008H870.559V525H868.671ZM886.853 525.192C885.989 525.192 885.183 525.037 884.437 524.728C883.701 524.419 883.05 523.987 882.485 523.432C881.93 522.877 881.493 522.227 881.173 521.48C880.863 520.733 880.709 519.917 880.709 519.032C880.709 518.147 880.863 517.331 881.173 516.584C881.493 515.827 881.93 515.176 882.485 514.632C883.039 514.077 883.69 513.651 884.437 513.352C885.183 513.043 885.989 512.888 886.853 512.888C887.727 512.888 888.533 513.043 889.269 513.352C890.015 513.651 890.666 514.077 891.221 514.632C891.786 515.187 892.223 515.837 892.533 516.584C892.842 517.331 892.997 518.147 892.997 519.032C892.997 519.917 892.837 520.733 892.517 521.48C892.207 522.227 891.775 522.877 891.221 523.432C890.666 523.987 890.015 524.419 889.269 524.728C888.522 525.037 887.717 525.192 886.853 525.192ZM886.853 523.464C887.471 523.464 888.037 523.352 888.549 523.128C889.071 522.904 889.525 522.595 889.909 522.2C890.293 521.795 890.591 521.325 890.805 520.792C891.018 520.248 891.125 519.661 891.125 519.032C891.125 518.403 891.018 517.821 890.805 517.288C890.591 516.755 890.293 516.285 889.909 515.88C889.525 515.475 889.071 515.16 888.549 514.936C888.037 514.712 887.471 514.6 886.853 514.6C886.234 514.6 885.663 514.712 885.141 514.936C884.629 515.16 884.181 515.475 883.797 515.88C883.413 516.285 883.114 516.755 882.901 517.288C882.698 517.821 882.597 518.403 882.597 519.032C882.597 519.661 882.698 520.248 882.901 520.792C883.114 521.325 883.413 521.795 883.797 522.2C884.181 522.595 884.634 522.904 885.157 523.128C885.679 523.352 886.245 523.464 886.853 523.464ZM897.659 525L894.379 513.08H896.379L899.035 523.4H898.539L901.291 513.08H903.259L906.011 523.4H905.499L908.171 513.08H910.155L906.891 525H904.763L901.995 514.84H902.555L899.771 525H897.659ZM921.429 525.192C920.565 525.192 919.76 525.037 919.013 524.728C918.277 524.419 917.626 523.987 917.061 523.432C916.506 522.877 916.069 522.227 915.749 521.48C915.44 520.733 915.285 519.917 915.285 519.032C915.285 518.147 915.44 517.331 915.749 516.584C916.069 515.827 916.506 515.176 917.061 514.632C917.616 514.077 918.266 513.651 919.013 513.352C919.76 513.043 920.565 512.888 921.429 512.888C922.304 512.888 923.109 513.043 923.845 513.352C924.592 513.651 925.242 514.077 925.797 514.632C926.362 515.187 926.8 515.837 927.109 516.584C927.418 517.331 927.573 518.147 927.573 519.032C927.573 519.917 927.413 520.733 927.093 521.48C926.784 522.227 926.352 522.877 925.797 523.432C925.242 523.987 924.592 524.419 923.845 524.728C923.098 525.037 922.293 525.192 921.429 525.192ZM921.429 523.464C922.048 523.464 922.613 523.352 923.125 523.128C923.648 522.904 924.101 522.595 924.485 522.2C924.869 521.795 925.168 521.325 925.381 520.792C925.594 520.248 925.701 519.661 925.701 519.032C925.701 518.403 925.594 517.821 925.381 517.288C925.168 516.755 924.869 516.285 924.485 515.88C924.101 515.475 923.648 515.16 923.125 514.936C922.613 514.712 922.048 514.6 921.429 514.6C920.81 514.6 920.24 514.712 919.717 514.936C919.205 515.16 918.757 515.475 918.373 515.88C917.989 516.285 917.69 516.755 917.477 517.288C917.274 517.821 917.173 518.403 917.173 519.032C917.173 519.661 917.274 520.248 917.477 520.792C917.69 521.325 917.989 521.795 918.373 522.2C918.757 522.595 919.21 522.904 919.733 523.128C920.256 523.352 920.821 523.464 921.429 523.464ZM924.421 526.44L920.517 520.232H922.533L926.453 526.44H924.421ZM930.324 525V513.08H934.66C935.46 513.08 936.164 513.229 936.772 513.528C937.38 513.816 937.855 514.243 938.196 514.808C938.548 515.363 938.724 516.029 938.724 516.808C938.724 517.629 938.516 518.333 938.1 518.92C937.695 519.507 937.145 519.933 936.452 520.2L939.204 525H937.06L934.132 519.8L935.364 520.52H932.212V525H930.324ZM932.212 518.84H934.692C935.129 518.84 935.508 518.755 935.828 518.584C936.148 518.413 936.393 518.179 936.564 517.88C936.745 517.571 936.836 517.208 936.836 516.792C936.836 516.376 936.745 516.019 936.564 515.72C936.393 515.411 936.148 515.176 935.828 515.016C935.508 514.845 935.129 514.76 934.692 514.76H932.212V518.84Z" fill="black"/>
<rect width="162" height="50" transform="translate(998 493)" fill="#FAADA9" fill-opacity="0.12"/>
<path d="M1035 513V511.333M1035 513C1034.08 513 1033.33 513.746 1033.33 514.667C1033.33 515.587 1034.08 516.333 1035 516.333M1035 513C1035.92 513 1036.67 513.746 1036.67 514.667C1036.67 515.587 1035.92 516.333 1035 516.333M1030 523C1030.92 523 1031.67 522.254 1031.67 521.333C1031.67 520.413 1030.92 519.667 1030 519.667M1030 523C1029.08 523 1028.33 522.254 1028.33 521.333C1028.33 520.413 1029.08 519.667 1030 519.667M1030 523V524.667M1030 519.667V511.333M1035 516.333V524.667M1040 523C1040.92 523 1041.67 522.254 1041.67 521.333C1041.67 520.413 1040.92 519.667 1040 519.667M1040 523C1039.08 523 1038.33 522.254 1038.33 521.333C1038.33 520.413 1039.08 519.667 1040 519.667M1040 523V524.667M1040 519.667V511.333" stroke="black" stroke-width="1.5" stroke-linecap="round" stroke-linejoin="round"/>
<path d="M1053.46 525L1057.65 513.08H1059.99L1064.18 525H1062.16L1061.25 522.328H1056.4L1055.48 525H1053.46ZM1056.95 520.648H1060.68L1058.56 514.408H1059.09L1056.95 520.648ZM1066.23 525V513.08H1070.14C1071.37 513.08 1072.45 513.331 1073.35 513.832C1074.27 514.323 1074.98 515.016 1075.48 515.912C1075.98 516.808 1076.23 517.848 1076.23 519.032C1076.23 520.205 1075.98 521.245 1075.48 522.152C1074.98 523.048 1074.27 523.747 1073.35 524.248C1072.45 524.749 1071.37 525 1070.14 525H1066.23ZM1068.12 523.32H1070.17C1071.01 523.32 1071.74 523.144 1072.36 522.792C1072.99 522.44 1073.48 521.944 1073.82 521.304C1074.16 520.664 1074.33 519.907 1074.33 519.032C1074.33 518.157 1074.15 517.405 1073.8 516.776C1073.46 516.136 1072.98 515.64 1072.36 515.288C1071.74 514.936 1071.01 514.76 1070.17 514.76H1068.12V523.32ZM1078.73 525V513.08H1082.64C1083.87 513.08 1084.95 513.331 1085.85 513.832C1086.77 514.323 1087.48 515.016 1087.98 515.912C1088.48 516.808 1088.73 517.848 1088.73 519.032C1088.73 520.205 1088.48 521.245 1087.98 522.152C1087.48 523.048 1086.77 523.747 1085.85 524.248C1084.95 524.749 1083.87 525 1082.64 525H1078.73ZM1080.62 523.32H1082.67C1083.51 523.32 1084.24 523.144 1084.86 522.792C1085.49 522.44 1085.98 521.944 1086.32 521.304C1086.66 520.664 1086.83 519.907 1086.83 519.032C1086.83 518.157 1086.65 517.405 1086.3 516.776C1085.96 516.136 1085.48 515.64 1084.86 515.288C1084.24 514.936 1083.51 514.76 1082.67 514.76H1080.62V523.32ZM1091.23 525V513.08H1095.57C1096.37 513.08 1097.07 513.229 1097.68 513.528C1098.29 513.816 1098.76 514.243 1099.1 514.808C1099.46 515.363 1099.63 516.029 1099.63 516.808C1099.63 517.629 1099.42 518.333 1099.01 518.92C1098.6 519.507 1098.05 519.933 1097.36 520.2L1100.11 525H1097.97L1095.04 519.8L1096.27 520.52H1093.12V525H1091.23ZM1093.12 518.84H1095.6C1096.04 518.84 1096.42 518.755 1096.74 518.584C1097.06 518.413 1097.3 518.179 1097.47 517.88C1097.65 517.571 1097.74 517.208 1097.74 516.792C1097.74 516.376 1097.65 516.019 1097.47 515.72C1097.3 515.411 1097.06 515.176 1096.74 515.016C1096.42 514.845 1096.04 514.76 1095.6 514.76H1093.12V518.84ZM1102.34 525V513.08H1110.2V514.76H1104.23V518.184H1109.88V519.864H1104.23V523.32H1110.2V525H1102.34ZM1116.77 525.192C1116.02 525.192 1115.33 525.053 1114.69 524.776C1114.05 524.488 1113.5 524.099 1113.05 523.608C1112.61 523.117 1112.28 522.552 1112.06 521.912L1113.66 521.24C1113.95 521.976 1114.37 522.541 1114.93 522.936C1115.48 523.331 1116.12 523.528 1116.85 523.528C1117.27 523.528 1117.65 523.464 1117.97 523.336C1118.29 523.197 1118.53 523.005 1118.7 522.76C1118.88 522.515 1118.97 522.232 1118.97 521.912C1118.97 521.475 1118.85 521.128 1118.61 520.872C1118.36 520.616 1118 520.413 1117.52 520.264L1115.28 519.56C1114.38 519.283 1113.7 518.861 1113.23 518.296C1112.76 517.72 1112.53 517.048 1112.53 516.28C1112.53 515.608 1112.69 515.021 1113.02 514.52C1113.35 514.008 1113.81 513.608 1114.38 513.32C1114.97 513.032 1115.64 512.888 1116.38 512.888C1117.1 512.888 1117.75 513.016 1118.33 513.272C1118.92 513.517 1119.42 513.859 1119.84 514.296C1120.26 514.733 1120.57 515.24 1120.77 515.816L1119.2 516.504C1118.96 515.875 1118.6 515.389 1118.09 515.048C1117.6 514.707 1117.03 514.536 1116.38 514.536C1115.99 514.536 1115.64 514.605 1115.34 514.744C1115.04 514.872 1114.81 515.064 1114.64 515.32C1114.48 515.565 1114.4 515.853 1114.4 516.184C1114.4 516.568 1114.52 516.909 1114.77 517.208C1115.01 517.507 1115.38 517.731 1115.89 517.88L1117.97 518.536C1118.92 518.824 1119.63 519.24 1120.11 519.784C1120.59 520.317 1120.83 520.984 1120.83 521.784C1120.83 522.445 1120.65 523.032 1120.3 523.544C1119.96 524.056 1119.49 524.461 1118.88 524.76C1118.27 525.048 1117.57 525.192 1116.77 525.192ZM1127.77 525.192C1127.02 525.192 1126.33 525.053 1125.69 524.776C1125.05 524.488 1124.5 524.099 1124.05 523.608C1123.61 523.117 1123.27 522.552 1123.06 521.912L1124.66 521.24C1124.95 521.976 1125.37 522.541 1125.93 522.936C1126.48 523.331 1127.12 523.528 1127.85 523.528C1128.27 523.528 1128.65 523.464 1128.97 523.336C1129.29 523.197 1129.53 523.005 1129.7 522.76C1129.88 522.515 1129.97 522.232 1129.97 521.912C1129.97 521.475 1129.85 521.128 1129.61 520.872C1129.36 520.616 1129 520.413 1128.52 520.264L1126.28 519.56C1125.38 519.283 1124.7 518.861 1124.23 518.296C1123.76 517.72 1123.53 517.048 1123.53 516.28C1123.53 515.608 1123.69 515.021 1124.02 514.52C1124.35 514.008 1124.81 513.608 1125.38 513.32C1125.97 513.032 1126.63 512.888 1127.38 512.888C1128.1 512.888 1128.75 513.016 1129.33 513.272C1129.92 513.517 1130.42 513.859 1130.84 514.296C1131.26 514.733 1131.57 515.24 1131.77 515.816L1130.2 516.504C1129.96 515.875 1129.59 515.389 1129.09 515.048C1128.6 514.707 1128.03 514.536 1127.38 514.536C1126.99 514.536 1126.64 514.605 1126.34 514.744C1126.04 514.872 1125.81 515.064 1125.64 515.32C1125.48 515.565 1125.4 515.853 1125.4 516.184C1125.4 516.568 1125.52 516.909 1125.77 517.208C1126.01 517.507 1126.38 517.731 1126.89 517.88L1128.97 518.536C1129.91 518.824 1130.63 519.24 1131.11 519.784C1131.59 520.317 1131.83 520.984 1131.83 521.784C1131.83 522.445 1131.65 523.032 1131.3 523.544C1130.96 524.056 1130.49 524.461 1129.88 524.76C1129.27 525.048 1128.57 525.192 1127.77 525.192Z" fill="black"/>
<rect width="134" height="51" transform="translate(482 257)" fill="#FA8700" fill-opacity="0.1"/>
<g clip-path="url(#clip0_2_655)">
<path d="M519.701 285.418C518.365 290.778 512.934 294.037 507.582 292.701C502.222 291.364 498.964 285.934 500.3 280.582C501.636 275.222 507.058 271.964 512.419 273.3C517.771 274.628 521.037 280.058 519.701 285.418Z" fill="url(#paint0_linear_2_655)"/>
<path d="M514.761 281.754C514.957 280.426 513.949 279.707 512.558 279.231L513.011 277.426L511.918 277.152L511.48 278.91C511.191 278.84 510.894 278.77 510.597 278.707L511.035 276.942L509.941 276.668L509.496 278.465C509.254 278.41 509.019 278.356 508.793 278.301V278.293L507.277 277.918L506.988 279.09C506.988 279.09 507.8 279.277 507.785 279.285C508.23 279.395 508.308 279.692 508.293 279.926L507.777 281.981C507.808 281.988 507.847 281.996 507.894 282.02C507.855 282.012 507.816 282.004 507.777 281.988L507.058 284.863C507.004 284.996 506.863 285.199 506.558 285.121C506.566 285.137 505.761 284.926 505.761 284.926L505.214 286.184L506.644 286.543C506.91 286.613 507.168 286.676 507.425 286.746L506.972 288.567L508.066 288.84L508.519 287.035C508.816 287.113 509.113 287.192 509.394 287.262L508.949 289.059L510.043 289.332L510.496 287.512C512.371 287.863 513.777 287.723 514.363 286.027C514.839 284.668 514.339 283.879 513.355 283.363C514.082 283.199 514.621 282.723 514.761 281.754V281.754ZM512.254 285.27C511.918 286.629 509.621 285.895 508.879 285.707L509.48 283.293C510.222 283.481 512.613 283.848 512.254 285.27ZM512.597 281.731C512.285 282.973 510.379 282.34 509.761 282.184L510.308 279.996C510.925 280.152 512.918 280.442 512.597 281.731Z" fill="black"/>
</g>
<path d="M529.242 289V277.08H534.266C535.012 277.08 535.658 277.213 536.202 277.48C536.746 277.736 537.162 278.109 537.45 278.6C537.738 279.08 537.882 279.651 537.882 280.312C537.882 280.888 537.732 281.416 537.434 281.896C537.146 282.365 536.692 282.739 536.074 283.016V282.216C536.618 282.429 537.06 282.701 537.402 283.032C537.743 283.352 537.988 283.715 538.138 284.12C538.298 284.525 538.378 284.952 538.378 285.4C538.378 286.52 538.01 287.4 537.274 288.04C536.548 288.68 535.551 289 534.282 289H529.242ZM531.13 287.32H534.426C535.055 287.32 535.556 287.149 535.93 286.808C536.303 286.456 536.49 285.992 536.49 285.416C536.49 284.829 536.303 284.365 535.93 284.024C535.556 283.672 535.055 283.496 534.426 283.496H531.13V287.32ZM531.13 281.832H534.314C534.826 281.832 535.236 281.688 535.546 281.4C535.855 281.101 536.01 280.712 536.01 280.232C536.01 279.752 535.855 279.379 535.546 279.112C535.236 278.845 534.826 278.712 534.314 278.712H531.13V281.832ZM540.96 289V277.08H542.848V289H540.96ZM548.071 289V278.76H544.903V277.08H553.063V278.76H549.943V289H548.071ZM560.182 289.192C559.34 289.192 558.556 289.037 557.83 288.728C557.116 288.419 556.492 287.992 555.958 287.448C555.436 286.893 555.025 286.243 554.726 285.496C554.428 284.749 554.278 283.928 554.278 283.032C554.278 282.147 554.422 281.331 554.71 280.584C555.009 279.827 555.425 279.176 555.958 278.632C556.492 278.077 557.116 277.651 557.83 277.352C558.545 277.043 559.329 276.888 560.182 276.888C561.025 276.888 561.777 277.032 562.438 277.32C563.11 277.608 563.676 277.987 564.134 278.456C564.593 278.915 564.924 279.416 565.126 279.96L563.43 280.76C563.174 280.12 562.764 279.603 562.198 279.208C561.644 278.803 560.972 278.6 560.182 278.6C559.393 278.6 558.694 278.787 558.086 279.16C557.478 279.533 557.004 280.051 556.662 280.712C556.332 281.373 556.166 282.147 556.166 283.032C556.166 283.917 556.332 284.696 556.662 285.368C557.004 286.029 557.478 286.547 558.086 286.92C558.694 287.283 559.393 287.464 560.182 287.464C560.972 287.464 561.644 287.267 562.198 286.872C562.764 286.477 563.174 285.96 563.43 285.32L565.126 286.12C564.924 286.653 564.593 287.155 564.134 287.624C563.676 288.093 563.11 288.472 562.438 288.76C561.777 289.048 561.025 289.192 560.182 289.192ZM573.5 289.192C572.636 289.192 571.831 289.037 571.084 288.728C570.348 288.419 569.697 287.987 569.132 287.432C568.577 286.877 568.14 286.227 567.82 285.48C567.511 284.733 567.356 283.917 567.356 283.032C567.356 282.147 567.511 281.331 567.82 280.584C568.14 279.827 568.577 279.176 569.132 278.632C569.687 278.077 570.337 277.651 571.084 277.352C571.831 277.043 572.636 276.888 573.5 276.888C574.375 276.888 575.18 277.043 575.916 277.352C576.663 277.651 577.313 278.077 577.868 278.632C578.433 279.187 578.871 279.837 579.18 280.584C579.489 281.331 579.644 282.147 579.644 283.032C579.644 283.917 579.484 284.733 579.164 285.48C578.855 286.227 578.423 286.877 577.868 287.432C577.313 287.987 576.663 288.419 575.916 288.728C575.169 289.037 574.364 289.192 573.5 289.192ZM573.5 287.464C574.119 287.464 574.684 287.352 575.196 287.128C575.719 286.904 576.172 286.595 576.556 286.2C576.94 285.795 577.239 285.325 577.452 284.792C577.665 284.248 577.772 283.661 577.772 283.032C577.772 282.403 577.665 281.821 577.452 281.288C577.239 280.755 576.94 280.285 576.556 279.88C576.172 279.475 575.719 279.16 575.196 278.936C574.684 278.712 574.119 278.6 573.5 278.6C572.881 278.6 572.311 278.712 571.788 278.936C571.276 279.16 570.828 279.475 570.444 279.88C570.06 280.285 569.761 280.755 569.548 281.288C569.345 281.821 569.244 282.403 569.244 283.032C569.244 283.661 569.345 284.248 569.548 284.792C569.761 285.325 570.06 285.795 570.444 286.2C570.828 286.595 571.281 286.904 571.804 287.128C572.327 287.352 572.892 287.464 573.5 287.464ZM582.395 289V277.08H584.283V289H582.395ZM587.394 289V277.08H588.914L595.602 286.312L594.882 286.424V277.08H596.754V289H595.234L588.594 279.704L589.282 279.576V289H587.394Z" fill="#FA8700"/>
<path d="M681.312 289.5V277.58H683.2V287.82H688.352V289.5H681.312ZM690.577 289.5V277.58H692.465V289.5H690.577ZM701.368 289.692C700.504 289.692 699.699 289.537 698.952 289.228C698.216 288.919 697.565 288.487 697 287.932C696.445 287.377 696.008 286.727 695.688 285.98C695.379 285.233 695.224 284.417 695.224 283.532C695.224 282.647 695.379 281.831 695.688 281.084C696.008 280.327 696.445 279.676 697 279.132C697.555 278.577 698.205 278.151 698.952 277.852C699.699 277.543 700.504 277.388 701.368 277.388C702.243 277.388 703.048 277.543 703.784 277.852C704.531 278.151 705.181 278.577 705.736 279.132C706.301 279.687 706.739 280.337 707.048 281.084C707.357 281.831 707.512 282.647 707.512 283.532C707.512 284.417 707.352 285.233 707.032 285.98C706.723 286.727 706.291 287.377 705.736 287.932C705.181 288.487 704.531 288.919 703.784 289.228C703.037 289.537 702.232 289.692 701.368 289.692ZM701.368 287.964C701.987 287.964 702.552 287.852 703.064 287.628C703.587 287.404 704.04 287.095 704.424 286.7C704.808 286.295 705.107 285.825 705.32 285.292C705.533 284.748 705.64 284.161 705.64 283.532C705.64 282.903 705.533 282.321 705.32 281.788C705.107 281.255 704.808 280.785 704.424 280.38C704.04 279.975 703.587 279.66 703.064 279.436C702.552 279.212 701.987 279.1 701.368 279.1C700.749 279.1 700.179 279.212 699.656 279.436C699.144 279.66 698.696 279.975 698.312 280.38C697.928 280.785 697.629 281.255 697.416 281.788C697.213 282.321 697.112 282.903 697.112 283.532C697.112 284.161 697.213 284.748 697.416 285.292C697.629 285.825 697.928 286.295 698.312 286.7C698.696 287.095 699.149 287.404 699.672 287.628C700.195 287.852 700.76 287.964 701.368 287.964ZM704.36 290.94L700.456 284.732H702.472L706.392 290.94H704.36ZM714.727 289.692C713.842 289.692 713.052 289.505 712.359 289.132C711.676 288.759 711.138 288.247 710.743 287.596C710.359 286.945 710.167 286.204 710.167 285.372V277.58H712.055V285.292C712.055 285.815 712.167 286.279 712.391 286.684C712.626 287.089 712.94 287.404 713.335 287.628C713.74 287.852 714.204 287.964 714.727 287.964C715.26 287.964 715.724 287.852 716.119 287.628C716.524 287.404 716.839 287.089 717.063 286.684C717.298 286.279 717.415 285.815 717.415 285.292V277.58H719.287V285.372C719.287 286.204 719.095 286.945 718.711 287.596C718.327 288.247 717.788 288.759 717.095 289.132C716.412 289.505 715.623 289.692 714.727 289.692ZM722.294 289.5V277.58H724.182V289.5H722.294ZM727.293 289.5V277.58H731.197C732.434 277.58 733.506 277.831 734.413 278.332C735.33 278.823 736.04 279.516 736.541 280.412C737.042 281.308 737.293 282.348 737.293 283.532C737.293 284.705 737.042 285.745 736.541 286.652C736.04 287.548 735.33 288.247 734.413 288.748C733.506 289.249 732.434 289.5 731.197 289.5H727.293ZM729.181 287.82H731.229C732.072 287.82 732.802 287.644 733.421 287.292C734.05 286.94 734.536 286.444 734.877 285.804C735.218 285.164 735.389 284.407 735.389 283.532C735.389 282.657 735.213 281.905 734.861 281.276C734.52 280.636 734.04 280.14 733.421 279.788C732.802 279.436 732.072 279.26 731.229 279.26H729.181V287.82Z" fill="black"/>
<path d="M803.524 289.5V277.58H805.412V287.82H810.564V289.5H803.524ZM812.789 289.5V277.58H814.677V289.5H812.789ZM823.372 289.692C822.529 289.692 821.745 289.537 821.02 289.228C820.305 288.919 819.676 288.492 819.132 287.948C818.599 287.393 818.183 286.743 817.884 285.996C817.585 285.249 817.436 284.428 817.436 283.532C817.436 282.647 817.58 281.831 817.868 281.084C818.167 280.327 818.583 279.676 819.116 279.132C819.649 278.577 820.273 278.151 820.988 277.852C821.703 277.543 822.487 277.388 823.34 277.388C824.183 277.388 824.935 277.532 825.596 277.82C826.268 278.108 826.833 278.487 827.292 278.956C827.751 279.415 828.081 279.916 828.284 280.46L826.604 281.276C826.359 280.625 825.953 280.103 825.388 279.708C824.823 279.303 824.14 279.1 823.34 279.1C822.551 279.1 821.852 279.287 821.244 279.66C820.636 280.033 820.161 280.551 819.82 281.212C819.489 281.873 819.324 282.647 819.324 283.532C819.324 284.417 819.495 285.196 819.836 285.868C820.188 286.529 820.668 287.047 821.276 287.42C821.884 287.783 822.583 287.964 823.372 287.964C824.033 287.964 824.636 287.831 825.18 287.564C825.735 287.287 826.177 286.903 826.508 286.412C826.839 285.911 827.004 285.329 827.004 284.668V283.852L827.852 284.62H823.34V283.02H828.876V284.14C828.876 285.015 828.727 285.799 828.428 286.492C828.129 287.175 827.724 287.756 827.212 288.236C826.7 288.716 826.113 289.079 825.452 289.324C824.791 289.569 824.097 289.692 823.372 289.692ZM831.444 289.5V277.58H833.332V282.828H838.852V277.58H840.724V289.5H838.852V284.508H833.332V289.5H831.444ZM845.946 289.5V279.26H842.778V277.58H850.938V279.26H847.818V289.5H845.946ZM852.989 289.5V277.58H854.509L861.197 286.812L860.477 286.924V277.58H862.349V289.5H860.829L854.189 280.204L854.877 280.076V289.5H852.989ZM865.457 289.5V277.58H867.345V289.5H865.457ZM870.457 289.5V277.58H871.977L878.665 286.812L877.945 286.924V277.58H879.817V289.5H878.297L871.657 280.204L872.345 280.076V289.5H870.457ZM888.509 289.692C887.666 289.692 886.882 289.537 886.157 289.228C885.442 288.919 884.813 288.492 884.269 287.948C883.735 287.393 883.319 286.743 883.021 285.996C882.722 285.249 882.573 284.428 882.573 283.532C882.573 282.647 882.717 281.831 883.005 281.084C883.303 280.327 883.719 279.676 884.253 279.132C884.786 278.577 885.41 278.151 886.125 277.852C886.839 277.543 887.623 277.388 888.477 277.388C889.319 277.388 890.071 277.532 890.733 277.82C891.405 278.108 891.97 278.487 892.429 278.956C892.887 279.415 893.218 279.916 893.421 280.46L891.741 281.276C891.495 280.625 891.09 280.103 890.525 279.708C889.959 279.303 889.277 279.1 888.477 279.1C887.687 279.1 886.989 279.287 886.381 279.66C885.773 280.033 885.298 280.551 884.957 281.212C884.626 281.873 884.461 282.647 884.461 283.532C884.461 284.417 884.631 285.196 884.973 285.868C885.325 286.529 885.805 287.047 886.413 287.42C887.021 287.783 887.719 287.964 888.509 287.964C889.17 287.964 889.773 287.831 890.317 287.564C890.871 287.287 891.314 286.903 891.645 286.412C891.975 285.911 892.141 285.329 892.141 284.668V283.852L892.989 284.62H888.477V283.02H894.013V284.14C894.013 285.015 893.863 285.799 893.565 286.492C893.266 287.175 892.861 287.756 892.349 288.236C891.837 288.716 891.25 289.079 890.589 289.324C889.927 289.569 889.234 289.692 888.509 289.692Z" fill="black"/>
</g>
<path d="M45 8C45 3.58172 48.5817 0 53 0H1327C1331.42 0 1335 3.58172 1335 8V43H45V8Z" fill="white"/>
<circle cx="65" cy="22" r="5" fill="#F2F2F2"/>
<circle cx="84" cy="22" r="5" fill="#F2F2F2"/>
<circle cx="103" cy="22" r="5" fill="#F2F2F2"/>
<defs>
<filter id="filter0_d_2_655" x="0" y="17" width="1380" height="706" filterUnits="userSpaceOnUse" color-interpolation-filters="sRGB">
<feFlood flood-opacity="0" result="BackgroundImageFix"/>
<feColorMatrix in="SourceAlpha" type="matrix" values="0 0 0 0 0 0 0 0 0 0 0 0 0 0 0 0 0 0 127 0" result="hardAlpha"/>
<feOffset dy="19"/>
<feGaussianBlur stdDeviation="22.5"/>
<feComposite in2="hardAlpha" operator="out"/>
<feColorMatrix type="matrix" values="0 0 0 0 0 0 0 0 0 0 0 0 0 0 0 0 0 0 0.2 0"/>
<feBlend mode="normal" in2="BackgroundImageFix" result="effect1_dropShadow_2_655"/>
<feBlend mode="normal" in="SourceGraphic" in2="effect1_dropShadow_2_655" result="shape"/>
</filter>
<linearGradient id="paint0_linear_2_655" x1="509.995" y1="272.995" x2="509.995" y2="292.998" gradientUnits="userSpaceOnUse">
<stop stop-color="#F9AA4B"/>
<stop offset="1" stop-color="#F7931A"/>
</linearGradient>
<clipPath id="clip0_2_655">
<rect width="20" height="20" fill="white" transform="translate(500 273)"/>
</clipPath>
</defs>
</svg>
