<svg width="1290" height="659" viewBox="0 0 1290 659" fill="none" xmlns="http://www.w3.org/2000/svg">
<path d="M0 43H1290V651C1290 655.418 1286.42 659 1282 659H8.00002C3.58174 659 0 655.418 0 651V43Z" fill="#F9F9F9"/>
<path d="M462.05 200.48C459.837 200.48 457.89 199.933 456.21 198.84C454.557 197.746 453.397 196.28 452.73 194.44L456.21 192.8C456.797 194.026 457.597 195 458.61 195.72C459.65 196.44 460.797 196.8 462.05 196.8C463.117 196.8 463.983 196.56 464.65 196.08C465.317 195.6 465.65 194.946 465.65 194.12C465.65 193.586 465.503 193.16 465.21 192.84C464.917 192.493 464.543 192.213 464.09 192C463.663 191.786 463.223 191.626 462.77 191.52L459.37 190.56C457.503 190.026 456.103 189.226 455.17 188.16C454.263 187.066 453.81 185.8 453.81 184.36C453.81 183.053 454.143 181.92 454.81 180.96C455.477 179.973 456.397 179.213 457.57 178.68C458.743 178.146 460.063 177.88 461.53 177.88C463.503 177.88 465.263 178.373 466.81 179.36C468.357 180.32 469.45 181.666 470.09 183.4L466.61 185.04C466.183 184 465.503 183.173 464.57 182.56C463.663 181.946 462.637 181.64 461.49 181.64C460.503 181.64 459.717 181.88 459.13 182.36C458.543 182.813 458.25 183.413 458.25 184.16C458.25 184.666 458.383 185.093 458.65 185.44C458.917 185.76 459.263 186.026 459.69 186.24C460.117 186.426 460.557 186.586 461.01 186.72L464.53 187.76C466.317 188.266 467.69 189.066 468.65 190.16C469.61 191.226 470.09 192.506 470.09 194C470.09 195.28 469.743 196.413 469.05 197.4C468.383 198.36 467.45 199.12 466.25 199.68C465.05 200.213 463.65 200.48 462.05 200.48Z" fill="black"/>
<path d="M484.679 200.48C482.519 200.48 480.599 199.986 478.919 199C477.265 197.986 475.972 196.626 475.039 194.92C474.105 193.186 473.639 191.253 473.639 189.12C473.639 186.933 474.105 185 475.039 183.32C475.999 181.64 477.279 180.32 478.879 179.36C480.479 178.373 482.292 177.88 484.319 177.88C485.945 177.88 487.399 178.16 488.679 178.72C489.959 179.28 491.039 180.053 491.919 181.04C492.799 182 493.465 183.106 493.919 184.36C494.399 185.613 494.639 186.946 494.639 188.36C494.639 188.706 494.625 189.066 494.599 189.44C494.572 189.813 494.519 190.16 494.439 190.48H477.199V186.88H491.879L489.719 188.52C489.985 187.213 489.892 186.053 489.439 185.04C489.012 184 488.345 183.186 487.439 182.6C486.559 181.986 485.519 181.68 484.319 181.68C483.119 181.68 482.052 181.986 481.119 182.6C480.185 183.186 479.465 184.04 478.959 185.16C478.452 186.253 478.252 187.586 478.359 189.16C478.225 190.626 478.425 191.906 478.959 193C479.519 194.093 480.292 194.946 481.279 195.56C482.292 196.173 483.439 196.48 484.719 196.48C486.025 196.48 487.132 196.186 488.039 195.6C488.972 195.013 489.705 194.253 490.239 193.32L493.919 195.12C493.492 196.133 492.825 197.053 491.919 197.88C491.039 198.68 489.972 199.32 488.719 199.8C487.492 200.253 486.145 200.48 484.679 200.48Z" fill="black"/>
<path d="M499.05 200V178.36H503.37V182.6L502.85 182.04C503.383 180.68 504.237 179.653 505.41 178.96C506.583 178.24 507.943 177.88 509.49 177.88C511.09 177.88 512.503 178.226 513.73 178.92C514.957 179.613 515.917 180.573 516.61 181.8C517.303 183.026 517.65 184.44 517.65 186.04V200H513.17V187.24C513.17 186.146 512.97 185.226 512.57 184.48C512.17 183.706 511.597 183.12 510.85 182.72C510.13 182.293 509.303 182.08 508.37 182.08C507.437 182.08 506.597 182.293 505.85 182.72C505.13 183.12 504.57 183.706 504.17 184.48C503.77 185.253 503.57 186.173 503.57 187.24V200H499.05Z" fill="black"/>
<path d="M532.487 200.48C530.407 200.48 528.541 199.986 526.887 199C525.261 197.986 523.967 196.626 523.007 194.92C522.074 193.213 521.607 191.293 521.607 189.16C521.607 187.026 522.087 185.106 523.047 183.4C524.007 181.693 525.301 180.346 526.927 179.36C528.554 178.373 530.394 177.88 532.447 177.88C534.181 177.88 535.714 178.226 537.047 178.92C538.381 179.613 539.434 180.573 540.207 181.8L539.527 182.84V169.72H544.007V200H539.727V195.6L540.247 196.44C539.501 197.746 538.434 198.746 537.047 199.44C535.661 200.133 534.141 200.48 532.487 200.48ZM532.927 196.28C534.181 196.28 535.301 195.973 536.287 195.36C537.301 194.746 538.087 193.906 538.647 192.84C539.234 191.746 539.527 190.52 539.527 189.16C539.527 187.8 539.234 186.586 538.647 185.52C538.087 184.453 537.301 183.613 536.287 183C535.301 182.386 534.181 182.08 532.927 182.08C531.674 182.08 530.541 182.386 529.527 183C528.514 183.613 527.727 184.453 527.167 185.52C526.607 186.586 526.327 187.8 526.327 189.16C526.327 190.52 526.607 191.746 527.167 192.84C527.727 193.906 528.501 194.746 529.487 195.36C530.501 195.973 531.647 196.28 532.927 196.28Z" fill="black"/>
<path d="M565.637 200.24C563.37 200.24 561.61 199.6 560.357 198.32C559.103 197.04 558.477 195.24 558.477 192.92V182.44H554.677V178.36H555.277C556.29 178.36 557.077 178.066 557.637 177.48C558.197 176.893 558.477 176.093 558.477 175.08V173.4H562.997V178.36H567.917V182.44H562.997V192.72C562.997 193.466 563.117 194.106 563.357 194.64C563.597 195.146 563.983 195.546 564.517 195.84C565.05 196.106 565.743 196.24 566.597 196.24C566.81 196.24 567.05 196.226 567.317 196.2C567.583 196.173 567.837 196.146 568.077 196.12V200C567.703 200.053 567.29 200.106 566.837 200.16C566.383 200.213 565.983 200.24 565.637 200.24Z" fill="black"/>
<path d="M582.537 200.48C580.457 200.48 578.55 199.986 576.817 199C575.11 198.013 573.75 196.666 572.737 194.96C571.724 193.253 571.217 191.32 571.217 189.16C571.217 186.973 571.724 185.04 572.737 183.36C573.75 181.653 575.11 180.32 576.817 179.36C578.524 178.373 580.43 177.88 582.537 177.88C584.67 177.88 586.577 178.373 588.257 179.36C589.964 180.32 591.31 181.653 592.297 183.36C593.31 185.04 593.817 186.973 593.817 189.16C593.817 191.346 593.31 193.293 592.297 195C591.284 196.706 589.924 198.053 588.217 199.04C586.51 200 584.617 200.48 582.537 200.48ZM582.537 196.28C583.817 196.28 584.95 195.973 585.937 195.36C586.924 194.746 587.697 193.906 588.257 192.84C588.844 191.746 589.137 190.52 589.137 189.16C589.137 187.8 588.844 186.586 588.257 185.52C587.697 184.453 586.924 183.613 585.937 183C584.95 182.386 583.817 182.08 582.537 182.08C581.284 182.08 580.15 182.386 579.137 183C578.15 183.613 577.364 184.453 576.777 185.52C576.217 186.586 575.937 187.8 575.937 189.16C575.937 190.52 576.217 191.746 576.777 192.84C577.364 193.906 578.15 194.746 579.137 195.36C580.15 195.973 581.284 196.28 582.537 196.28Z" fill="black"/>
<path d="M612.663 200.48C610.45 200.48 608.503 199.933 606.823 198.84C605.17 197.746 604.01 196.28 603.343 194.44L606.823 192.8C607.41 194.026 608.21 195 609.223 195.72C610.263 196.44 611.41 196.8 612.663 196.8C613.73 196.8 614.597 196.56 615.263 196.08C615.93 195.6 616.263 194.946 616.263 194.12C616.263 193.586 616.117 193.16 615.823 192.84C615.53 192.493 615.157 192.213 614.703 192C614.277 191.786 613.837 191.626 613.383 191.52L609.983 190.56C608.117 190.026 606.717 189.226 605.783 188.16C604.877 187.066 604.423 185.8 604.423 184.36C604.423 183.053 604.757 181.92 605.423 180.96C606.09 179.973 607.01 179.213 608.183 178.68C609.357 178.146 610.677 177.88 612.143 177.88C614.117 177.88 615.877 178.373 617.423 179.36C618.97 180.32 620.063 181.666 620.703 183.4L617.223 185.04C616.797 184 616.117 183.173 615.183 182.56C614.277 181.946 613.25 181.64 612.103 181.64C611.117 181.64 610.33 181.88 609.743 182.36C609.157 182.813 608.863 183.413 608.863 184.16C608.863 184.666 608.997 185.093 609.263 185.44C609.53 185.76 609.877 186.026 610.303 186.24C610.73 186.426 611.17 186.586 611.623 186.72L615.143 187.76C616.93 188.266 618.303 189.066 619.263 190.16C620.223 191.226 620.703 192.506 620.703 194C620.703 195.28 620.357 196.413 619.663 197.4C618.997 198.36 618.063 199.12 616.863 199.68C615.663 200.213 614.263 200.48 612.663 200.48Z" fill="#FA8700"/>
<path d="M635.292 200.48C633.132 200.48 631.212 199.986 629.532 199C627.879 197.986 626.585 196.626 625.652 194.92C624.719 193.186 624.252 191.253 624.252 189.12C624.252 186.933 624.719 185 625.652 183.32C626.612 181.64 627.892 180.32 629.492 179.36C631.092 178.373 632.905 177.88 634.932 177.88C636.559 177.88 638.012 178.16 639.292 178.72C640.572 179.28 641.652 180.053 642.532 181.04C643.412 182 644.079 183.106 644.532 184.36C645.012 185.613 645.252 186.946 645.252 188.36C645.252 188.706 645.239 189.066 645.212 189.44C645.185 189.813 645.132 190.16 645.052 190.48H627.812V186.88H642.492L640.332 188.52C640.599 187.213 640.505 186.053 640.052 185.04C639.625 184 638.959 183.186 638.052 182.6C637.172 181.986 636.132 181.68 634.932 181.68C633.732 181.68 632.665 181.986 631.732 182.6C630.799 183.186 630.079 184.04 629.572 185.16C629.065 186.253 628.865 187.586 628.972 189.16C628.839 190.626 629.039 191.906 629.572 193C630.132 194.093 630.905 194.946 631.892 195.56C632.905 196.173 634.052 196.48 635.332 196.48C636.639 196.48 637.745 196.186 638.652 195.6C639.585 195.013 640.319 194.253 640.852 193.32L644.532 195.12C644.105 196.133 643.439 197.053 642.532 197.88C641.652 198.68 640.585 199.32 639.332 199.8C638.105 200.253 636.759 200.48 635.292 200.48Z" fill="#FA8700"/>
<path d="M659.943 200.48C657.783 200.48 655.863 199.986 654.183 199C652.53 197.986 651.21 196.626 650.223 194.92C649.263 193.213 648.783 191.28 648.783 189.12C648.783 186.986 649.263 185.066 650.223 183.36C651.183 181.653 652.503 180.32 654.183 179.36C655.863 178.373 657.783 177.88 659.943 177.88C661.41 177.88 662.783 178.146 664.063 178.68C665.343 179.186 666.45 179.893 667.383 180.8C668.343 181.706 669.05 182.76 669.503 183.96L665.543 185.8C665.09 184.68 664.357 183.786 663.343 183.12C662.357 182.426 661.223 182.08 659.943 182.08C658.717 182.08 657.61 182.386 656.623 183C655.663 183.586 654.903 184.426 654.343 185.52C653.783 186.586 653.503 187.8 653.503 189.16C653.503 190.52 653.783 191.746 654.343 192.84C654.903 193.906 655.663 194.746 656.623 195.36C657.61 195.973 658.717 196.28 659.943 196.28C661.25 196.28 662.383 195.946 663.343 195.28C664.33 194.586 665.063 193.666 665.543 192.52L669.503 194.4C669.077 195.546 668.383 196.586 667.423 197.52C666.49 198.426 665.383 199.146 664.103 199.68C662.823 200.213 661.437 200.48 659.943 200.48Z" fill="#FA8700"/>
<path d="M684.361 200.48C682.281 200.48 680.374 199.986 678.641 199C676.934 198.013 675.574 196.666 674.561 194.96C673.548 193.253 673.041 191.32 673.041 189.16C673.041 186.973 673.548 185.04 674.561 183.36C675.574 181.653 676.934 180.32 678.641 179.36C680.348 178.373 682.254 177.88 684.361 177.88C686.494 177.88 688.401 178.373 690.081 179.36C691.788 180.32 693.134 181.653 694.121 183.36C695.134 185.04 695.641 186.973 695.641 189.16C695.641 191.346 695.134 193.293 694.121 195C693.108 196.706 691.748 198.053 690.041 199.04C688.334 200 686.441 200.48 684.361 200.48ZM684.361 196.28C685.641 196.28 686.774 195.973 687.761 195.36C688.748 194.746 689.521 193.906 690.081 192.84C690.668 191.746 690.961 190.52 690.961 189.16C690.961 187.8 690.668 186.586 690.081 185.52C689.521 184.453 688.748 183.613 687.761 183C686.774 182.386 685.641 182.08 684.361 182.08C683.108 182.08 681.974 182.386 680.961 183C679.974 183.613 679.188 184.453 678.601 185.52C678.041 186.586 677.761 187.8 677.761 189.16C677.761 190.52 678.041 191.746 678.601 192.84C679.188 193.906 679.974 194.746 680.961 195.36C681.974 195.973 683.108 196.28 684.361 196.28Z" fill="#FA8700"/>
<path d="M700.054 200V178.36H704.374V182.6L703.854 182.04C704.387 180.68 705.241 179.653 706.414 178.96C707.587 178.24 708.947 177.88 710.494 177.88C712.094 177.88 713.507 178.226 714.734 178.92C715.961 179.613 716.921 180.573 717.614 181.8C718.307 183.026 718.654 184.44 718.654 186.04V200H714.174V187.24C714.174 186.146 713.974 185.226 713.574 184.48C713.174 183.706 712.601 183.12 711.854 182.72C711.134 182.293 710.307 182.08 709.374 182.08C708.441 182.08 707.601 182.293 706.854 182.72C706.134 183.12 705.574 183.706 705.174 184.48C704.774 185.253 704.574 186.173 704.574 187.24V200H700.054Z" fill="#FA8700"/>
<path d="M733.491 200.48C731.411 200.48 729.545 199.986 727.891 199C726.265 197.986 724.971 196.626 724.011 194.92C723.078 193.213 722.611 191.293 722.611 189.16C722.611 187.026 723.091 185.106 724.051 183.4C725.011 181.693 726.305 180.346 727.931 179.36C729.558 178.373 731.398 177.88 733.451 177.88C735.185 177.88 736.718 178.226 738.051 178.92C739.385 179.613 740.438 180.573 741.211 181.8L740.531 182.84V169.72H745.011V200H740.731V195.6L741.251 196.44C740.505 197.746 739.438 198.746 738.051 199.44C736.665 200.133 735.145 200.48 733.491 200.48ZM733.931 196.28C735.185 196.28 736.305 195.973 737.291 195.36C738.305 194.746 739.091 193.906 739.651 192.84C740.238 191.746 740.531 190.52 740.531 189.16C740.531 187.8 740.238 186.586 739.651 185.52C739.091 184.453 738.305 183.613 737.291 183C736.305 182.386 735.185 182.08 733.931 182.08C732.678 182.08 731.545 182.386 730.531 183C729.518 183.613 728.731 184.453 728.171 185.52C727.611 186.586 727.331 187.8 727.331 189.16C727.331 190.52 727.611 191.746 728.171 192.84C728.731 193.906 729.505 194.746 730.491 195.36C731.505 195.973 732.651 196.28 733.931 196.28Z" fill="#FA8700"/>
<path d="M750.288 200V169.72H754.808V200H750.288Z" fill="#FA8700"/>
<path d="M764.493 200V174.2H758.773V170.2H769.173V200H764.493Z" fill="#FA8700"/>
<path d="M786.197 208.8C784.624 208.8 783.17 208.546 781.837 208.04C780.504 207.533 779.357 206.826 778.397 205.92C777.437 205.04 776.717 204 776.237 202.8L780.397 201.08C780.77 202.093 781.45 202.933 782.437 203.6C783.45 204.266 784.69 204.6 786.157 204.6C787.304 204.6 788.33 204.373 789.237 203.92C790.144 203.493 790.864 202.853 791.397 202C791.93 201.173 792.197 200.173 792.197 199V194.12L792.997 195.04C792.25 196.426 791.21 197.48 789.877 198.2C788.57 198.92 787.09 199.28 785.437 199.28C783.437 199.28 781.637 198.813 780.037 197.88C778.437 196.946 777.17 195.666 776.237 194.04C775.33 192.413 774.877 190.586 774.877 188.56C774.877 186.506 775.33 184.68 776.237 183.08C777.17 181.48 778.424 180.213 779.997 179.28C781.57 178.346 783.37 177.88 785.397 177.88C787.05 177.88 788.517 178.24 789.797 178.96C791.104 179.653 792.17 180.666 792.997 182L792.397 183.12V178.36H796.677V199C796.677 200.866 796.224 202.533 795.317 204C794.437 205.493 793.21 206.666 791.637 207.52C790.064 208.373 788.25 208.8 786.197 208.8ZM785.957 195.08C787.157 195.08 788.224 194.8 789.157 194.24C790.09 193.653 790.824 192.88 791.357 191.92C791.917 190.933 792.197 189.826 792.197 188.6C792.197 187.373 791.917 186.266 791.357 185.28C790.797 184.293 790.05 183.52 789.117 182.96C788.184 182.373 787.13 182.08 785.957 182.08C784.73 182.08 783.637 182.373 782.677 182.96C781.717 183.52 780.957 184.293 780.397 185.28C779.864 186.24 779.597 187.346 779.597 188.6C779.597 189.8 779.864 190.893 780.397 191.88C780.957 192.866 781.717 193.653 782.677 194.24C783.637 194.8 784.73 195.08 785.957 195.08Z" fill="#FA8700"/>
<path d="M801.968 200V169.72H806.488V182.6L805.768 182.04C806.301 180.68 807.155 179.653 808.328 178.96C809.501 178.24 810.861 177.88 812.408 177.88C814.008 177.88 815.421 178.226 816.648 178.92C817.875 179.613 818.835 180.573 819.528 181.8C820.221 183.026 820.568 184.426 820.568 186V200H816.088V187.24C816.088 186.146 815.875 185.226 815.448 184.48C815.048 183.706 814.488 183.12 813.768 182.72C813.048 182.293 812.221 182.08 811.288 182.08C810.381 182.08 809.555 182.293 808.808 182.72C808.088 183.12 807.515 183.706 807.088 184.48C806.688 185.253 806.488 186.173 806.488 187.24V200H801.968Z" fill="#FA8700"/>
<path d="M834.765 200.24C832.499 200.24 830.739 199.6 829.485 198.32C828.232 197.04 827.605 195.24 827.605 192.92V182.44H823.805V178.36H824.405C825.419 178.36 826.205 178.066 826.765 177.48C827.325 176.893 827.605 176.093 827.605 175.08V173.4H832.125V178.36H837.045V182.44H832.125V192.72C832.125 193.466 832.245 194.106 832.485 194.64C832.725 195.146 833.112 195.546 833.645 195.84C834.179 196.106 834.872 196.24 835.725 196.24C835.939 196.24 836.179 196.226 836.445 196.2C836.712 196.173 836.965 196.146 837.205 196.12V200C836.832 200.053 836.419 200.106 835.965 200.16C835.512 200.213 835.112 200.24 834.765 200.24Z" fill="#FA8700"/>
<rect width="549.987" height="43.54" transform="translate(370 379)" fill="#F2F2F2"/>
<path d="M391.58 406.38C392.607 406.38 393.52 406.133 394.32 405.64C395.133 405.147 395.773 404.48 396.24 403.64C396.707 402.787 396.94 401.827 396.94 400.76C396.94 399.68 396.707 398.72 396.24 397.88C395.773 397.027 395.14 396.353 394.34 395.86C393.54 395.367 392.627 395.12 391.6 395.12C390.8 395.12 390.08 395.273 389.44 395.58C388.8 395.873 388.273 396.287 387.86 396.82V391H386V406.14H387.82V404.58C388.233 405.153 388.767 405.6 389.42 405.92C390.087 406.227 390.807 406.38 391.58 406.38ZM391.44 404.58C390.773 404.58 390.167 404.413 389.62 404.08C389.073 403.747 388.64 403.293 388.32 402.72C388.013 402.133 387.86 401.48 387.86 400.76C387.86 400.027 388.013 399.373 388.32 398.8C388.64 398.227 389.073 397.773 389.62 397.44C390.167 397.093 390.773 396.92 391.44 396.92C392.12 396.92 392.72 397.087 393.24 397.42C393.773 397.753 394.193 398.213 394.5 398.8C394.807 399.373 394.96 400.027 394.96 400.76C394.96 401.48 394.807 402.133 394.5 402.72C394.193 403.293 393.773 403.747 393.24 404.08C392.72 404.413 392.12 404.58 391.44 404.58Z" fill="black"/>
<path d="M405.179 406.38C405.886 406.38 406.546 406.253 407.159 406C407.786 405.747 408.326 405.4 408.779 404.96C409.232 404.52 409.572 404.027 409.799 403.48L408.139 402.64C407.886 403.227 407.499 403.7 406.979 404.06C406.472 404.407 405.872 404.58 405.179 404.58C404.526 404.58 403.932 404.413 403.399 404.08C402.879 403.747 402.466 403.293 402.159 402.72C401.852 402.133 401.699 401.48 401.699 400.76C401.699 400.013 401.852 399.353 402.159 398.78C402.466 398.207 402.879 397.753 403.399 397.42C403.932 397.087 404.526 396.92 405.179 396.92C405.859 396.92 406.459 397.1 406.979 397.46C407.499 397.807 407.886 398.26 408.139 398.82L409.799 398.02C409.572 397.46 409.226 396.96 408.759 396.52C408.306 396.08 407.772 395.74 407.159 395.5C406.546 395.247 405.886 395.12 405.179 395.12C404.126 395.12 403.186 395.367 402.359 395.86C401.546 396.34 400.906 397.007 400.439 397.86C399.972 398.7 399.739 399.66 399.739 400.74C399.739 401.807 399.972 402.767 400.439 403.62C400.906 404.473 401.546 405.147 402.359 405.64C403.186 406.133 404.126 406.38 405.179 406.38Z" fill="black"/>
<path d="M415.15 406.14H417.13V391.24H412.33V392.94H415.15V406.14Z" fill="black"/>
<path d="M430.086 410.14H431.966V395.36H430.146V396.88C429.733 396.333 429.2 395.907 428.546 395.6C427.906 395.28 427.18 395.12 426.366 395.12C425.353 395.12 424.44 395.367 423.626 395.86C422.826 396.353 422.193 397.027 421.726 397.88C421.26 398.72 421.026 399.68 421.026 400.76C421.026 401.827 421.26 402.787 421.726 403.64C422.193 404.48 422.826 405.147 423.626 405.64C424.44 406.133 425.353 406.38 426.366 406.38C427.14 406.38 427.853 406.233 428.506 405.94C429.16 405.633 429.686 405.2 430.086 404.64V410.14ZM426.526 404.58C425.846 404.58 425.24 404.413 424.706 404.08C424.173 403.747 423.753 403.293 423.446 402.72C423.14 402.133 422.986 401.48 422.986 400.76C422.986 400.027 423.14 399.373 423.446 398.8C423.753 398.213 424.173 397.753 424.706 397.42C425.253 397.087 425.86 396.92 426.526 396.92C427.206 396.92 427.813 397.093 428.346 397.44C428.88 397.773 429.3 398.227 429.606 398.8C429.926 399.373 430.086 400.027 430.086 400.76C430.086 401.48 429.926 402.133 429.606 402.72C429.3 403.293 428.88 403.747 428.346 404.08C427.813 404.413 427.206 404.58 426.526 404.58Z" fill="black"/>
<path d="M435.645 406.14H437.505V402.9L439.345 400.96L442.925 406.14H445.125L440.705 399.7L444.845 395.36H442.465L437.505 400.42V391H435.645V406.14Z" fill="black"/>
<path d="M448.178 410.54C448.884 410.54 449.484 410.4 449.978 410.12C450.484 409.84 450.911 409.46 451.258 408.98C451.618 408.513 451.911 407.993 452.138 407.42L456.998 395.36H454.938L451.678 403.78L448.398 395.36H446.378L450.658 406.16L450.338 406.94C450.044 407.607 449.731 408.08 449.398 408.36C449.078 408.64 448.604 408.78 447.978 408.78C447.764 408.78 447.544 408.76 447.318 408.72C447.104 408.693 446.924 408.667 446.778 408.64V410.3C446.991 410.393 447.218 410.453 447.458 410.48C447.698 410.52 447.938 410.54 448.178 410.54Z" fill="black"/>
<path d="M464.032 406.38C464.979 406.38 465.819 406.173 466.552 405.76C467.299 405.333 467.886 404.76 468.312 404.04C468.739 403.307 468.952 402.48 468.952 401.56C468.952 400.64 468.746 399.827 468.332 399.12C467.932 398.413 467.379 397.86 466.672 397.46C465.979 397.047 465.192 396.84 464.312 396.84C464.059 396.84 463.819 396.86 463.592 396.9C463.366 396.927 463.152 396.987 462.952 397.08L467.432 391.24H465.072L460.872 396.76C460.246 397.6 459.792 398.4 459.512 399.16C459.232 399.907 459.092 400.673 459.092 401.46C459.092 402.407 459.306 403.253 459.732 404C460.159 404.747 460.739 405.333 461.472 405.76C462.219 406.173 463.072 406.38 464.032 406.38ZM464.032 404.62C463.472 404.62 462.966 404.493 462.512 404.24C462.072 403.973 461.719 403.613 461.452 403.16C461.199 402.693 461.072 402.167 461.072 401.58C461.072 400.993 461.199 400.473 461.452 400.02C461.719 399.553 462.072 399.193 462.512 398.94C462.966 398.673 463.472 398.54 464.032 398.54C464.606 398.54 465.112 398.673 465.552 398.94C465.992 399.193 466.339 399.553 466.592 400.02C466.846 400.473 466.972 400.993 466.972 401.58C466.972 402.167 466.846 402.693 466.592 403.16C466.339 403.613 465.986 403.973 465.532 404.24C465.092 404.493 464.592 404.62 464.032 404.62Z" fill="black"/>
<path d="M474.345 406.14H476.325V391.24H471.525V392.94H474.345V406.14Z" fill="black"/>
<path d="M480.662 410.14H482.522V404.64C482.935 405.2 483.462 405.633 484.102 405.94C484.755 406.233 485.468 406.38 486.242 406.38C487.268 406.38 488.182 406.133 488.982 405.64C489.795 405.147 490.435 404.48 490.902 403.64C491.368 402.787 491.602 401.827 491.602 400.76C491.602 399.68 491.368 398.72 490.902 397.88C490.435 397.027 489.802 396.353 489.002 395.86C488.202 395.367 487.288 395.12 486.262 395.12C485.448 395.12 484.715 395.28 484.062 395.6C483.422 395.907 482.895 396.333 482.482 396.88V395.36H480.662V410.14ZM486.102 404.58C485.435 404.58 484.828 404.413 484.282 404.08C483.735 403.747 483.302 403.293 482.982 402.72C482.675 402.133 482.522 401.48 482.522 400.76C482.522 400.027 482.675 399.373 482.982 398.8C483.302 398.227 483.735 397.773 484.282 397.44C484.828 397.093 485.435 396.92 486.102 396.92C486.782 396.92 487.382 397.087 487.902 397.42C488.435 397.753 488.855 398.213 489.162 398.8C489.468 399.373 489.622 400.027 489.622 400.76C489.622 401.48 489.468 402.133 489.162 402.72C488.855 403.293 488.435 403.747 487.902 404.08C487.382 404.413 486.782 404.58 486.102 404.58Z" fill="black"/>
<path d="M499.281 406.38C500.281 406.38 501.167 406.167 501.941 405.74C502.714 405.313 503.321 404.733 503.761 404C504.201 403.267 504.421 402.447 504.421 401.54C504.421 400.727 504.247 400 503.901 399.36C503.567 398.72 503.094 398.207 502.481 397.82C501.881 397.42 501.187 397.173 500.401 397.08L503.801 392.88V391.24H494.981V392.94H501.581L497.601 397.8L498.021 398.7C498.181 398.66 498.374 398.627 498.601 398.6C498.827 398.56 499.047 398.54 499.261 398.54C500.194 398.54 500.961 398.807 501.561 399.34C502.161 399.86 502.461 400.607 502.461 401.58C502.461 402.54 502.161 403.287 501.561 403.82C500.974 404.353 500.214 404.62 499.281 404.62C498.507 404.62 497.814 404.413 497.201 404C496.601 403.573 496.161 402.993 495.881 402.26L494.221 402.94C494.567 404.007 495.201 404.847 496.121 405.46C497.054 406.073 498.107 406.38 499.281 406.38Z" fill="black"/>
<path d="M512.288 406.38C513.288 406.38 514.174 406.167 514.948 405.74C515.721 405.313 516.328 404.733 516.768 404C517.208 403.267 517.428 402.447 517.428 401.54C517.428 400.727 517.254 400 516.908 399.36C516.574 398.72 516.101 398.207 515.488 397.82C514.888 397.42 514.194 397.173 513.408 397.08L516.808 392.88V391.24H507.988V392.94H514.588L510.608 397.8L511.028 398.7C511.188 398.66 511.381 398.627 511.608 398.6C511.834 398.56 512.054 398.54 512.268 398.54C513.201 398.54 513.968 398.807 514.568 399.34C515.168 399.86 515.468 400.607 515.468 401.58C515.468 402.54 515.168 403.287 514.568 403.82C513.981 404.353 513.221 404.62 512.288 404.62C511.514 404.62 510.821 404.413 510.208 404C509.608 403.573 509.168 402.993 508.888 402.26L507.228 402.94C507.574 404.007 508.208 404.847 509.128 405.46C510.061 406.073 511.114 406.38 512.288 406.38Z" fill="black"/>
<path d="M520.855 406.14H522.715V402.9L524.555 400.96L528.135 406.14H530.335L525.915 399.7L530.055 395.36H527.675L522.715 400.42V391H520.855V406.14Z" fill="black"/>
<path d="M532.807 410.14H534.667V404.64C535.08 405.2 535.607 405.633 536.247 405.94C536.9 406.233 537.614 406.38 538.387 406.38C539.414 406.38 540.327 406.133 541.127 405.64C541.94 405.147 542.58 404.48 543.047 403.64C543.514 402.787 543.747 401.827 543.747 400.76C543.747 399.68 543.514 398.72 543.047 397.88C542.58 397.027 541.947 396.353 541.147 395.86C540.347 395.367 539.434 395.12 538.407 395.12C537.594 395.12 536.86 395.28 536.207 395.6C535.567 395.907 535.04 396.333 534.627 396.88V395.36H532.807V410.14ZM538.247 404.58C537.58 404.58 536.974 404.413 536.427 404.08C535.88 403.747 535.447 403.293 535.127 402.72C534.82 402.133 534.667 401.48 534.667 400.76C534.667 400.027 534.82 399.373 535.127 398.8C535.447 398.227 535.88 397.773 536.427 397.44C536.974 397.093 537.58 396.92 538.247 396.92C538.927 396.92 539.527 397.087 540.047 397.42C540.58 397.753 541 398.213 541.307 398.8C541.614 399.373 541.767 400.027 541.767 400.76C541.767 401.48 541.614 402.133 541.307 402.72C541 403.293 540.58 403.747 540.047 404.08C539.527 404.413 538.927 404.58 538.247 404.58Z" fill="black"/>
<path d="M547.086 406.14H549.206L555.686 392.92V391.22H546.326V392.92H553.626L547.086 406.14Z" fill="black"/>
<path d="M563.883 410.54C564.883 410.54 565.77 410.327 566.543 409.9C567.33 409.487 567.943 408.913 568.383 408.18C568.823 407.447 569.043 406.613 569.043 405.68V395.36H567.223V396.86C566.796 396.313 566.27 395.887 565.643 395.58C565.016 395.273 564.323 395.12 563.563 395.12C562.55 395.12 561.643 395.36 560.843 395.84C560.056 396.307 559.436 396.947 558.983 397.76C558.53 398.573 558.303 399.487 558.303 400.5C558.303 401.513 558.53 402.427 558.983 403.24C559.45 404.053 560.076 404.7 560.863 405.18C561.663 405.647 562.57 405.88 563.583 405.88C564.316 405.88 564.996 405.733 565.623 405.44C566.25 405.147 566.763 404.727 567.163 404.18V405.68C567.163 406.333 567.01 406.887 566.703 407.34C566.41 407.807 566.016 408.153 565.523 408.38C565.03 408.62 564.476 408.74 563.863 408.74C563.063 408.74 562.396 408.56 561.863 408.2C561.343 407.853 560.99 407.427 560.803 406.92L559.063 407.72C559.423 408.56 560.03 409.24 560.883 409.76C561.736 410.28 562.736 410.54 563.883 410.54ZM563.743 404.08C563.076 404.08 562.476 403.92 561.943 403.6C561.423 403.28 561.01 402.853 560.703 402.32C560.41 401.773 560.263 401.167 560.263 400.5C560.263 399.833 560.416 399.233 560.723 398.7C561.03 398.153 561.443 397.72 561.963 397.4C562.496 397.08 563.09 396.92 563.743 396.92C564.383 396.92 564.963 397.08 565.483 397.4C566.003 397.72 566.41 398.153 566.703 398.7C567.01 399.233 567.163 399.833 567.163 400.5C567.163 401.153 567.01 401.753 566.703 402.3C566.41 402.847 566.003 403.28 565.483 403.6C564.963 403.92 564.383 404.08 563.743 404.08Z" fill="black"/>
<path d="M575.207 406.14H576.987L579.547 398.02L582.107 406.14H583.887L587.587 395.36H585.547L582.947 403.26L580.427 395.36H578.667L576.147 403.26L573.567 395.36H571.507L575.207 406.14Z" fill="black"/>
<path d="M588.99 406.14H597.43V404.36H591.57L597.39 396.94V395.36H589.31V397.14H594.87L588.99 404.56V406.14Z" fill="black"/>
<path d="M604.489 406.38C605.489 406.38 606.376 406.167 607.149 405.74C607.923 405.313 608.529 404.733 608.969 404C609.409 403.267 609.629 402.447 609.629 401.54C609.629 400.727 609.456 400 609.109 399.36C608.776 398.72 608.303 398.207 607.689 397.82C607.089 397.42 606.396 397.173 605.609 397.08L609.009 392.88V391.24H600.189V392.94H606.789L602.809 397.8L603.229 398.7C603.389 398.66 603.583 398.627 603.809 398.6C604.036 398.56 604.256 398.54 604.469 398.54C605.403 398.54 606.169 398.807 606.769 399.34C607.369 399.86 607.669 400.607 607.669 401.58C607.669 402.54 607.369 403.287 606.769 403.82C606.183 404.353 605.423 404.62 604.489 404.62C603.716 404.62 603.023 404.413 602.409 404C601.809 403.573 601.369 402.993 601.089 402.26L599.429 402.94C599.776 404.007 600.409 404.847 601.329 405.46C602.263 406.073 603.316 406.38 604.489 406.38Z" fill="black"/>
<path d="M617.956 406.38C618.756 406.38 619.483 406.227 620.136 405.92C620.803 405.6 621.336 405.147 621.736 404.56V406.14H623.556V391H621.676V396.8C621.263 396.267 620.736 395.853 620.096 395.56C619.456 395.267 618.743 395.12 617.956 395.12C616.943 395.12 616.03 395.367 615.216 395.86C614.416 396.353 613.783 397.027 613.316 397.88C612.85 398.72 612.616 399.68 612.616 400.76C612.616 401.827 612.85 402.787 613.316 403.64C613.783 404.48 614.416 405.147 615.216 405.64C616.03 406.133 616.943 406.38 617.956 406.38ZM618.116 404.58C617.436 404.58 616.83 404.413 616.296 404.08C615.763 403.747 615.343 403.293 615.036 402.72C614.73 402.133 614.576 401.48 614.576 400.76C614.576 400.027 614.73 399.373 615.036 398.8C615.343 398.213 615.763 397.753 616.296 397.42C616.843 397.087 617.45 396.92 618.116 396.92C618.796 396.92 619.403 397.093 619.936 397.44C620.47 397.773 620.89 398.227 621.196 398.8C621.516 399.373 621.676 400.027 621.676 400.76C621.676 401.48 621.516 402.133 621.196 402.72C620.89 403.293 620.47 403.747 619.936 404.08C619.403 404.413 618.796 404.58 618.116 404.58Z" fill="black"/>
<path d="M627.235 406.14H629.095V391H627.235V406.14Z" fill="black"/>
<path d="M637.641 406.38C638.641 406.38 639.521 406.18 640.281 405.78C641.055 405.38 641.655 404.84 642.081 404.16C642.521 403.467 642.741 402.693 642.741 401.84C642.741 401 642.528 400.247 642.101 399.58C641.675 398.913 641.075 398.393 640.301 398.02C640.821 397.687 641.235 397.253 641.541 396.72C641.848 396.173 642.001 395.573 642.001 394.92C642.001 394.16 641.815 393.487 641.441 392.9C641.068 392.3 640.548 391.833 639.881 391.5C639.228 391.167 638.481 391 637.641 391C636.801 391 636.048 391.173 635.381 391.52C634.728 391.853 634.208 392.32 633.821 392.92C633.448 393.507 633.261 394.173 633.261 394.92C633.261 395.547 633.408 396.14 633.701 396.7C633.995 397.247 634.415 397.687 634.961 398.02C634.201 398.38 633.608 398.893 633.181 399.56C632.755 400.227 632.541 400.987 632.541 401.84C632.541 402.693 632.755 403.467 633.181 404.16C633.621 404.84 634.221 405.38 634.981 405.78C635.755 406.18 636.641 406.38 637.641 406.38ZM637.641 397.26C636.948 397.26 636.368 397.047 635.901 396.62C635.448 396.193 635.221 395.64 635.221 394.96C635.221 394.293 635.448 393.753 635.901 393.34C636.368 392.913 636.948 392.7 637.641 392.7C638.321 392.7 638.888 392.913 639.341 393.34C639.795 393.753 640.021 394.293 640.021 394.96C640.021 395.64 639.795 396.193 639.341 396.62C638.888 397.047 638.321 397.26 637.641 397.26ZM637.641 404.68C636.708 404.68 635.955 404.42 635.381 403.9C634.808 403.367 634.521 402.673 634.521 401.82C634.521 400.953 634.808 400.26 635.381 399.74C635.955 399.22 636.708 398.96 637.641 398.96C638.575 398.96 639.328 399.22 639.901 399.74C640.475 400.26 640.761 400.953 640.761 401.82C640.761 402.673 640.475 403.367 639.901 403.9C639.328 404.42 638.575 404.68 637.641 404.68Z" fill="black"/>
<path d="M651.059 406.38C651.859 406.38 652.586 406.227 653.239 405.92C653.906 405.6 654.439 405.147 654.839 404.56V406.14H656.659V391H654.779V396.8C654.366 396.267 653.839 395.853 653.199 395.56C652.559 395.267 651.846 395.12 651.059 395.12C650.046 395.12 649.133 395.367 648.319 395.86C647.519 396.353 646.886 397.027 646.419 397.88C645.953 398.72 645.719 399.68 645.719 400.76C645.719 401.827 645.953 402.787 646.419 403.64C646.886 404.48 647.519 405.147 648.319 405.64C649.133 406.133 650.046 406.38 651.059 406.38ZM651.219 404.58C650.539 404.58 649.933 404.413 649.399 404.08C648.866 403.747 648.446 403.293 648.139 402.72C647.833 402.133 647.679 401.48 647.679 400.76C647.679 400.027 647.833 399.373 648.139 398.8C648.446 398.213 648.866 397.753 649.399 397.42C649.946 397.087 650.553 396.92 651.219 396.92C651.899 396.92 652.506 397.093 653.039 397.44C653.573 397.773 653.993 398.227 654.299 398.8C654.619 399.373 654.779 400.027 654.779 400.76C654.779 401.48 654.619 402.133 654.299 402.72C653.993 403.293 653.573 403.747 653.039 404.08C652.506 404.413 651.899 404.58 651.219 404.58Z" fill="black"/>
<path d="M660.338 406.14H662.198V391H660.338V406.14Z" fill="black"/>
<path d="M668.364 406.14H670.144L672.704 398.02L675.264 406.14H677.044L680.744 395.36H678.704L676.104 403.26L673.584 395.36H671.824L669.304 403.26L666.724 395.36H664.664L668.364 406.14Z" fill="black"/>
<path d="M688.013 406.38C688.719 406.38 689.379 406.253 689.993 406C690.619 405.747 691.159 405.4 691.613 404.96C692.066 404.52 692.406 404.027 692.633 403.48L690.973 402.64C690.719 403.227 690.333 403.7 689.812 404.06C689.306 404.407 688.706 404.58 688.013 404.58C687.359 404.58 686.766 404.413 686.233 404.08C685.713 403.747 685.299 403.293 684.993 402.72C684.686 402.133 684.533 401.48 684.533 400.76C684.533 400.013 684.686 399.353 684.993 398.78C685.299 398.207 685.713 397.753 686.233 397.42C686.766 397.087 687.359 396.92 688.013 396.92C688.693 396.92 689.292 397.1 689.812 397.46C690.333 397.807 690.719 398.26 690.973 398.82L692.633 398.02C692.406 397.46 692.059 396.96 691.592 396.52C691.139 396.08 690.606 395.74 689.993 395.5C689.379 395.247 688.719 395.12 688.013 395.12C686.959 395.12 686.019 395.367 685.193 395.86C684.379 396.34 683.739 397.007 683.273 397.86C682.806 398.7 682.573 399.66 682.573 400.74C682.573 401.807 682.806 402.767 683.273 403.62C683.739 404.473 684.379 405.147 685.193 405.64C686.019 406.133 686.959 406.38 688.013 406.38Z" fill="black"/>
<path d="M695.863 406.14H697.723V399.76C697.723 398.88 697.97 398.187 698.463 397.68C698.97 397.173 699.597 396.92 700.343 396.92C701.09 396.92 701.703 397.173 702.183 397.68C702.677 398.173 702.923 398.867 702.923 399.76V406.14H704.803V399.16C704.803 398.387 704.623 397.7 704.263 397.1C703.917 396.487 703.437 396.007 702.823 395.66C702.223 395.3 701.537 395.12 700.763 395.12C700.11 395.12 699.517 395.253 698.983 395.52C698.463 395.773 698.043 396.14 697.723 396.62V391H695.863V406.14Z" fill="black"/>
<path d="M711.425 406.38C712.212 406.38 712.918 406.233 713.545 405.94C714.171 405.633 714.678 405.233 715.065 404.74V406.14H716.885V398.82C716.885 398.087 716.705 397.447 716.345 396.9C715.998 396.34 715.511 395.907 714.885 395.6C714.258 395.28 713.532 395.12 712.705 395.12C712.065 395.12 711.452 395.233 710.865 395.46C710.278 395.687 709.765 396 709.325 396.4C708.885 396.787 708.565 397.227 708.365 397.72L709.985 398.56C710.211 398.053 710.558 397.64 711.025 397.32C711.492 397 712.038 396.84 712.665 396.84C713.371 396.84 713.938 397.027 714.365 397.4C714.805 397.76 715.025 398.233 715.025 398.82V399.32L711.345 399.92C710.131 400.12 709.238 400.527 708.665 401.14C708.105 401.74 707.825 402.467 707.825 403.32C707.825 404.227 708.158 404.967 708.825 405.54C709.505 406.1 710.372 406.38 711.425 406.38ZM709.785 403.26C709.785 402.793 709.938 402.4 710.245 402.08C710.565 401.76 711.071 401.54 711.765 401.42L715.025 400.88V401.56C715.025 402.16 714.885 402.707 714.605 403.2C714.325 403.693 713.932 404.087 713.425 404.38C712.918 404.66 712.325 404.8 711.645 404.8C711.112 404.8 710.665 404.653 710.305 404.36C709.958 404.067 709.785 403.7 709.785 403.26Z" fill="black"/>
<path d="M723.729 406.38C724.515 406.38 725.222 406.233 725.849 405.94C726.475 405.633 726.982 405.233 727.369 404.74V406.14H729.189V398.82C729.189 398.087 729.009 397.447 728.649 396.9C728.302 396.34 727.815 395.907 727.189 395.6C726.562 395.28 725.835 395.12 725.009 395.12C724.369 395.12 723.755 395.233 723.169 395.46C722.582 395.687 722.069 396 721.629 396.4C721.189 396.787 720.869 397.227 720.669 397.72L722.289 398.56C722.515 398.053 722.862 397.64 723.329 397.32C723.795 397 724.342 396.84 724.969 396.84C725.675 396.84 726.242 397.027 726.669 397.4C727.109 397.76 727.329 398.233 727.329 398.82V399.32L723.649 399.92C722.435 400.12 721.542 400.527 720.969 401.14C720.409 401.74 720.129 402.467 720.129 403.32C720.129 404.227 720.462 404.967 721.129 405.54C721.809 406.1 722.675 406.38 723.729 406.38ZM722.089 403.26C722.089 402.793 722.242 402.4 722.549 402.08C722.869 401.76 723.375 401.54 724.069 401.42L727.329 400.88V401.56C727.329 402.16 727.189 402.707 726.909 403.2C726.629 403.693 726.235 404.087 725.729 404.38C725.222 404.66 724.629 404.8 723.949 404.8C723.415 404.8 722.969 404.653 722.609 404.36C722.262 404.067 722.089 403.7 722.089 403.26Z" fill="black"/>
<path d="M735.353 406.14H737.133L739.693 398.02L742.253 406.14H744.033L747.733 395.36H745.693L743.093 403.26L740.573 395.36H738.813L736.293 403.26L733.713 395.36H731.653L735.353 406.14Z" fill="black"/>
<path d="M754.636 406.38C755.636 406.38 756.523 406.167 757.296 405.74C758.069 405.313 758.676 404.733 759.116 404C759.556 403.267 759.776 402.447 759.776 401.54C759.776 400.727 759.603 400 759.256 399.36C758.923 398.72 758.449 398.207 757.836 397.82C757.236 397.42 756.543 397.173 755.756 397.08L759.156 392.88V391.24H750.336V392.94H756.936L752.956 397.8L753.376 398.7C753.536 398.66 753.729 398.627 753.956 398.6C754.183 398.56 754.403 398.54 754.616 398.54C755.549 398.54 756.316 398.807 756.916 399.34C757.516 399.86 757.816 400.607 757.816 401.58C757.816 402.54 757.516 403.287 756.916 403.82C756.329 404.353 755.569 404.62 754.636 404.62C753.863 404.62 753.169 404.413 752.556 404C751.956 403.573 751.516 402.993 751.236 402.26L749.576 402.94C749.923 404.007 750.556 404.847 751.476 405.46C752.409 406.073 753.463 406.38 754.636 406.38Z" fill="black"/>
<path d="M768.163 406.38C769.27 406.38 770.23 406.12 771.043 405.6C771.856 405.08 772.43 404.447 772.763 403.7L771.203 402.9C770.896 403.42 770.496 403.847 770.003 404.18C769.51 404.513 768.903 404.68 768.183 404.68C767.583 404.68 767.023 404.547 766.503 404.28C765.996 404 765.576 403.607 765.243 403.1C764.923 402.593 764.75 401.993 764.723 401.3H772.963C773.03 400.94 773.063 400.607 773.063 400.3C773.063 399.407 772.863 398.567 772.463 397.78C772.063 396.993 771.483 396.353 770.723 395.86C769.976 395.367 769.07 395.12 768.003 395.12C767.003 395.12 766.11 395.36 765.323 395.84C764.536 396.32 763.91 396.987 763.443 397.84C762.99 398.68 762.763 399.64 762.763 400.72C762.763 401.8 762.996 402.767 763.463 403.62C763.93 404.473 764.57 405.147 765.383 405.64C766.196 406.133 767.123 406.38 768.163 406.38ZM768.003 396.78C768.55 396.78 769.05 396.907 769.503 397.16C769.956 397.4 770.323 397.74 770.603 398.18C770.883 398.62 771.03 399.127 771.043 399.7H764.763C764.896 398.793 765.27 398.08 765.883 397.56C766.496 397.04 767.203 396.78 768.003 396.78Z" fill="black"/>
<path d="M784.908 410.14H786.788V395.36H784.968V396.88C784.555 396.333 784.022 395.907 783.368 395.6C782.728 395.28 782.002 395.12 781.188 395.12C780.175 395.12 779.262 395.367 778.448 395.86C777.648 396.353 777.015 397.027 776.548 397.88C776.082 398.72 775.848 399.68 775.848 400.76C775.848 401.827 776.082 402.787 776.548 403.64C777.015 404.48 777.648 405.147 778.448 405.64C779.262 406.133 780.175 406.38 781.188 406.38C781.962 406.38 782.675 406.233 783.328 405.94C783.982 405.633 784.508 405.2 784.908 404.64V410.14ZM781.348 404.58C780.668 404.58 780.062 404.413 779.528 404.08C778.995 403.747 778.575 403.293 778.268 402.72C777.962 402.133 777.808 401.48 777.808 400.76C777.808 400.027 777.962 399.373 778.268 398.8C778.575 398.213 778.995 397.753 779.528 397.42C780.075 397.087 780.682 396.92 781.348 396.92C782.028 396.92 782.635 397.093 783.168 397.44C783.702 397.773 784.122 398.227 784.428 398.8C784.748 399.373 784.908 400.027 784.908 400.76C784.908 401.48 784.748 402.133 784.428 402.72C784.122 403.293 783.702 403.747 783.168 404.08C782.635 404.413 782.028 404.58 781.348 404.58Z" fill="black"/>
<path d="M790.567 406.14H792.687L799.167 392.92V391.22H789.807V392.92H797.107L790.567 406.14Z" fill="black"/>
<path d="M802.224 406.14H804.084V391H802.224V406.14Z" fill="black"/>
<path d="M816.39 410.14H818.27V395.36H816.45V396.88C816.037 396.333 815.504 395.907 814.85 395.6C814.21 395.28 813.484 395.12 812.67 395.12C811.657 395.12 810.744 395.367 809.93 395.86C809.13 396.353 808.497 397.027 808.03 397.88C807.564 398.72 807.33 399.68 807.33 400.76C807.33 401.827 807.564 402.787 808.03 403.64C808.497 404.48 809.13 405.147 809.93 405.64C810.744 406.133 811.657 406.38 812.67 406.38C813.444 406.38 814.157 406.233 814.81 405.94C815.464 405.633 815.99 405.2 816.39 404.64V410.14ZM812.83 404.58C812.15 404.58 811.544 404.413 811.01 404.08C810.477 403.747 810.057 403.293 809.75 402.72C809.444 402.133 809.29 401.48 809.29 400.76C809.29 400.027 809.444 399.373 809.75 398.8C810.057 398.213 810.477 397.753 811.01 397.42C811.557 397.087 812.164 396.92 812.83 396.92C813.51 396.92 814.117 397.093 814.65 397.44C815.184 397.773 815.604 398.227 815.91 398.8C816.23 399.373 816.39 400.027 816.39 400.76C816.39 401.48 816.23 402.133 815.91 402.72C815.604 403.293 815.184 403.747 814.65 404.08C814.117 404.413 813.51 404.58 812.83 404.58Z" fill="black"/>
<path d="M822.529 410.54C823.236 410.54 823.836 410.4 824.329 410.12C824.836 409.84 825.263 409.46 825.609 408.98C825.969 408.513 826.263 407.993 826.489 407.42L831.349 395.36H829.289L826.029 403.78L822.749 395.36H820.729L825.009 406.16L824.689 406.94C824.396 407.607 824.083 408.08 823.749 408.36C823.429 408.64 822.956 408.78 822.329 408.78C822.116 408.78 821.896 408.76 821.669 408.72C821.456 408.693 821.276 408.667 821.129 408.64V410.3C821.343 410.393 821.569 410.453 821.809 410.48C822.049 410.52 822.289 410.54 822.529 410.54Z" fill="black"/>
<path d="M832.584 406.14H834.864L837.484 402.28L840.104 406.14H842.344L838.604 400.74L842.364 395.36H840.104L837.484 399.2L834.844 395.36H832.604L836.364 400.74L832.584 406.14Z" fill="black"/>
<path d="M844.819 410.14H846.679V404.64C847.092 405.2 847.619 405.633 848.259 405.94C848.912 406.233 849.625 406.38 850.399 406.38C851.425 406.38 852.339 406.133 853.139 405.64C853.952 405.147 854.592 404.48 855.059 403.64C855.525 402.787 855.759 401.827 855.759 400.76C855.759 399.68 855.525 398.72 855.059 397.88C854.592 397.027 853.959 396.353 853.159 395.86C852.359 395.367 851.445 395.12 850.419 395.12C849.605 395.12 848.872 395.28 848.219 395.6C847.579 395.907 847.052 396.333 846.639 396.88V395.36H844.819V410.14ZM850.259 404.58C849.592 404.58 848.985 404.413 848.439 404.08C847.892 403.747 847.459 403.293 847.139 402.72C846.832 402.133 846.679 401.48 846.679 400.76C846.679 400.027 846.832 399.373 847.139 398.8C847.459 398.227 847.892 397.773 848.439 397.44C848.985 397.093 849.592 396.92 850.259 396.92C850.939 396.92 851.539 397.087 852.059 397.42C852.592 397.753 853.012 398.213 853.319 398.8C853.625 399.373 853.779 400.027 853.779 400.76C853.779 401.48 853.625 402.133 853.319 402.72C853.012 403.293 852.592 403.747 852.059 404.08C851.539 404.413 850.939 404.58 850.259 404.58Z" fill="black"/>
<path d="M862.858 406.38C863.631 406.38 864.311 406.247 864.898 405.98C865.484 405.713 865.944 405.347 866.278 404.88C866.611 404.4 866.778 403.853 866.778 403.24C866.778 402.493 866.531 401.853 866.038 401.32C865.544 400.787 864.864 400.393 863.998 400.14L862.238 399.62C862.024 399.553 861.804 399.473 861.578 399.38C861.351 399.273 861.158 399.127 860.998 398.94C860.838 398.74 860.758 398.487 860.758 398.18C860.758 397.753 860.918 397.407 861.238 397.14C861.571 396.873 862.004 396.74 862.538 396.74C863.124 396.74 863.658 396.907 864.138 397.24C864.631 397.56 864.998 398 865.238 398.56L866.758 397.86C866.438 396.993 865.898 396.32 865.138 395.84C864.391 395.36 863.544 395.12 862.598 395.12C861.891 395.12 861.251 395.253 860.678 395.52C860.118 395.787 859.671 396.16 859.338 396.64C859.018 397.107 858.858 397.66 858.858 398.3C858.858 398.993 859.078 399.607 859.518 400.14C859.971 400.66 860.684 401.053 861.658 401.32L863.278 401.78C863.504 401.833 863.738 401.92 863.978 402.04C864.231 402.147 864.444 402.3 864.618 402.5C864.804 402.687 864.898 402.94 864.898 403.26C864.898 403.713 864.704 404.08 864.318 404.36C863.931 404.64 863.444 404.78 862.858 404.78C862.204 404.78 861.611 404.6 861.078 404.24C860.544 403.867 860.124 403.353 859.818 402.7L858.338 403.42C858.671 404.327 859.238 405.047 860.038 405.58C860.838 406.113 861.778 406.38 862.858 406.38Z" fill="black"/>
<path d="M870.013 406.14H871.872V399.76C871.872 398.88 872.119 398.187 872.613 397.68C873.119 397.173 873.746 396.92 874.493 396.92C875.239 396.92 875.853 397.173 876.333 397.68C876.826 398.173 877.073 398.867 877.073 399.76V406.14H878.953V399.16C878.953 398.387 878.773 397.7 878.413 397.1C878.066 396.487 877.586 396.007 876.973 395.66C876.373 395.3 875.686 395.12 874.913 395.12C874.259 395.12 873.666 395.253 873.133 395.52C872.613 395.773 872.192 396.14 871.872 396.62V391H870.013V406.14Z" fill="black"/>
<path d="M885.219 406.14H886.979L891.219 395.36H889.139L886.099 403.52L883.079 395.36H880.999L885.219 406.14Z" fill="black"/>
<path d="M902.108 410.14H903.987V395.36H902.168V396.88C901.754 396.333 901.221 395.907 900.568 395.6C899.928 395.28 899.201 395.12 898.388 395.12C897.374 395.12 896.461 395.367 895.647 395.86C894.847 396.353 894.214 397.027 893.747 397.88C893.281 398.72 893.047 399.68 893.047 400.76C893.047 401.827 893.281 402.787 893.747 403.64C894.214 404.48 894.847 405.147 895.647 405.64C896.461 406.133 897.374 406.38 898.388 406.38C899.161 406.38 899.874 406.233 900.528 405.94C901.181 405.633 901.708 405.2 902.108 404.64V410.14ZM898.548 404.58C897.868 404.58 897.261 404.413 896.728 404.08C896.194 403.747 895.774 403.293 895.467 402.72C895.161 402.133 895.007 401.48 895.007 400.76C895.007 400.027 895.161 399.373 895.467 398.8C895.774 398.213 896.194 397.753 896.728 397.42C897.274 397.087 897.881 396.92 898.548 396.92C899.228 396.92 899.834 397.093 900.367 397.44C900.901 397.773 901.321 398.227 901.628 398.8C901.948 399.373 902.108 400.027 902.108 400.76C902.108 401.48 901.948 402.133 901.628 402.72C901.321 403.293 900.901 403.747 900.367 404.08C899.834 404.413 899.228 404.58 898.548 404.58Z" fill="black"/>
<rect width="161.688" height="50" transform="translate(175 493)" fill="#FAADA9" fill-opacity="0.12"/>
<path d="M217.693 512.36L220.64 515.306M218.943 511.11C219.757 510.297 221.076 510.297 221.89 511.11C222.703 511.924 222.703 513.243 221.89 514.056L210.417 525.53H207.5V522.554L218.943 511.11Z" stroke="black" stroke-width="1.5" stroke-linecap="round" stroke-linejoin="round"/>
<path d="M233 523.96L237.192 512.04H239.528L243.72 523.96H241.704L240.792 521.288H235.944L235.016 523.96H233ZM236.488 519.608H240.216L238.104 513.368H238.632L236.488 519.608Z" fill="black"/>
<path d="M245.774 523.96V512.04H247.534L252.014 518.248H251.134L255.534 512.04H257.294V523.96H255.422V514.264L256.126 514.456L251.63 520.6H251.438L247.038 514.456L247.662 514.264V523.96H245.774Z" fill="black"/>
<path d="M266.191 524.152C265.327 524.152 264.521 523.997 263.774 523.688C263.038 523.378 262.388 522.946 261.823 522.392C261.268 521.837 260.83 521.186 260.51 520.44C260.201 519.693 260.046 518.877 260.046 517.992C260.046 517.106 260.201 516.29 260.51 515.544C260.83 514.786 261.268 514.136 261.823 513.592C262.377 513.037 263.028 512.61 263.774 512.312C264.521 512.002 265.327 511.848 266.191 511.848C267.065 511.848 267.871 512.002 268.607 512.312C269.353 512.61 270.004 513.037 270.559 513.592C271.124 514.146 271.561 514.797 271.871 515.544C272.18 516.29 272.335 517.106 272.335 517.992C272.335 518.877 272.175 519.693 271.855 520.44C271.545 521.186 271.113 521.837 270.559 522.392C270.004 522.946 269.353 523.378 268.607 523.688C267.86 523.997 267.055 524.152 266.191 524.152ZM266.191 522.424C266.809 522.424 267.375 522.312 267.887 522.088C268.409 521.864 268.863 521.554 269.247 521.16C269.631 520.754 269.929 520.285 270.143 519.752C270.356 519.208 270.463 518.621 270.463 517.992C270.463 517.362 270.356 516.781 270.143 516.248C269.929 515.714 269.631 515.245 269.247 514.84C268.863 514.434 268.409 514.12 267.887 513.896C267.375 513.672 266.809 513.56 266.191 513.56C265.572 513.56 265.001 513.672 264.479 513.896C263.967 514.12 263.519 514.434 263.135 514.84C262.751 515.245 262.452 515.714 262.239 516.248C262.036 516.781 261.934 517.362 261.934 517.992C261.934 518.621 262.036 519.208 262.239 519.752C262.452 520.285 262.751 520.754 263.135 521.16C263.519 521.554 263.972 521.864 264.495 522.088C265.017 522.312 265.583 522.424 266.191 522.424Z" fill="black"/>
<path d="M279.549 524.152C278.664 524.152 277.875 523.965 277.181 523.592C276.499 523.218 275.96 522.706 275.565 522.056C275.181 521.405 274.989 520.664 274.989 519.832V512.04H276.877V519.752C276.877 520.274 276.989 520.738 277.213 521.144C277.448 521.549 277.763 521.864 278.157 522.088C278.563 522.312 279.027 522.424 279.549 522.424C280.083 522.424 280.547 522.312 280.941 522.088C281.347 521.864 281.661 521.549 281.885 521.144C282.12 520.738 282.237 520.274 282.237 519.752V512.04H284.109V519.832C284.109 520.664 283.917 521.405 283.533 522.056C283.149 522.706 282.611 523.218 281.917 523.592C281.235 523.965 280.445 524.152 279.549 524.152Z" fill="black"/>
<path d="M287.116 523.96V512.04H288.636L295.324 521.272L294.604 521.384V512.04H296.476V523.96H294.956L288.316 514.664L289.004 514.536V523.96H287.116Z" fill="black"/>
<path d="M301.696 523.96V513.72H298.528V512.04H306.688V513.72H303.568V523.96H301.696Z" fill="black"/>
<rect width="157.434" height="50" transform="translate(368.688 493)" fill="#FAADA9" fill-opacity="0.12"/>
<path d="M413.521 514.666H421.855M413.521 518H416.855M417.688 524.666L414.355 521.333H411.855C410.934 521.333 410.188 520.587 410.188 519.666V513C410.188 512.079 410.934 511.333 411.855 511.333H423.521C424.442 511.333 425.188 512.079 425.188 513V519.666C425.188 520.587 424.442 521.333 423.521 521.333H421.021L417.688 524.666Z" stroke="black" stroke-width="1.5" stroke-linecap="round" stroke-linejoin="round"/>
<path d="M435.688 523.96V512.04H437.448L441.928 518.248H441.048L445.448 512.04H447.208V523.96H445.336V514.264L446.04 514.456L441.544 520.6H441.352L436.952 514.456L437.576 514.264V523.96H435.688Z" fill="black"/>
<path d="M450.312 523.96V512.04H458.168V513.72H452.2V517.144H457.848V518.824H452.2V522.28H458.168V523.96H450.312Z" fill="black"/>
<path d="M460.562 523.96V512.04H462.322L466.802 518.248H465.922L470.322 512.04H472.082V523.96H470.21V514.264L470.914 514.456L466.418 520.6H466.226L461.826 514.456L462.45 514.264V523.96H460.562Z" fill="black"/>
<path d="M480.978 524.152C480.114 524.152 479.309 523.997 478.562 523.688C477.826 523.378 477.175 522.946 476.61 522.392C476.055 521.837 475.618 521.186 475.298 520.44C474.989 519.693 474.834 518.877 474.834 517.992C474.834 517.106 474.989 516.29 475.298 515.544C475.618 514.786 476.055 514.136 476.61 513.592C477.165 513.037 477.815 512.61 478.562 512.312C479.309 512.002 480.114 511.848 480.978 511.848C481.853 511.848 482.658 512.002 483.394 512.312C484.141 512.61 484.791 513.037 485.346 513.592C485.911 514.146 486.349 514.797 486.658 515.544C486.967 516.29 487.122 517.106 487.122 517.992C487.122 518.877 486.962 519.693 486.642 520.44C486.333 521.186 485.901 521.837 485.346 522.392C484.791 522.946 484.141 523.378 483.394 523.688C482.647 523.997 481.842 524.152 480.978 524.152ZM480.978 522.424C481.597 522.424 482.162 522.312 482.674 522.088C483.197 521.864 483.65 521.554 484.034 521.16C484.418 520.754 484.717 520.285 484.93 519.752C485.143 519.208 485.25 518.621 485.25 517.992C485.25 517.362 485.143 516.781 484.93 516.248C484.717 515.714 484.418 515.245 484.034 514.84C483.65 514.434 483.197 514.12 482.674 513.896C482.162 513.672 481.597 513.56 480.978 513.56C480.359 513.56 479.789 513.672 479.266 513.896C478.754 514.12 478.306 514.434 477.922 514.84C477.538 515.245 477.239 515.714 477.026 516.248C476.823 516.781 476.722 517.362 476.722 517.992C476.722 518.621 476.823 519.208 477.026 519.752C477.239 520.285 477.538 520.754 477.922 521.16C478.306 521.554 478.759 521.864 479.282 522.088C479.805 522.312 480.37 522.424 480.978 522.424Z" fill="black"/>
<rect width="161.748" height="50" transform="translate(558.122 493)" fill="#FAADA9" fill-opacity="0.12"/>
<path d="M607.789 521.333H606.122C605.202 521.333 604.456 520.587 604.456 519.666V513C604.456 512.079 605.202 511.333 606.122 511.333H612.789C613.709 511.333 614.456 512.079 614.456 513V514.666M609.456 524.666H616.122C617.043 524.666 617.789 523.92 617.789 523V516.333C617.789 515.413 617.043 514.666 616.122 514.666H609.456C608.535 514.666 607.789 515.413 607.789 516.333V523C607.789 523.92 608.535 524.666 609.456 524.666Z" stroke="black" stroke-width="1.5" stroke-linecap="round" stroke-linejoin="round"/>
<path d="M635.026 524.152C634.183 524.152 633.399 523.997 632.674 523.688C631.959 523.378 631.335 522.952 630.802 522.408C630.279 521.853 629.869 521.202 629.57 520.456C629.271 519.709 629.122 518.888 629.122 517.992C629.122 517.106 629.266 516.29 629.554 515.544C629.853 514.786 630.269 514.136 630.802 513.592C631.335 513.037 631.959 512.61 632.674 512.312C633.389 512.002 634.173 511.848 635.026 511.848C635.869 511.848 636.621 511.992 637.282 512.28C637.954 512.568 638.519 512.946 638.978 513.416C639.437 513.874 639.767 514.376 639.97 514.92L638.274 515.72C638.018 515.08 637.607 514.562 637.042 514.168C636.487 513.762 635.815 513.56 635.026 513.56C634.237 513.56 633.538 513.746 632.93 514.12C632.322 514.493 631.847 515.01 631.506 515.672C631.175 516.333 631.01 517.106 631.01 517.992C631.01 518.877 631.175 519.656 631.506 520.328C631.847 520.989 632.322 521.506 632.93 521.88C633.538 522.242 634.237 522.424 635.026 522.424C635.815 522.424 636.487 522.226 637.042 521.832C637.607 521.437 638.018 520.92 638.274 520.28L639.97 521.08C639.767 521.613 639.437 522.114 638.978 522.584C638.519 523.053 637.954 523.432 637.282 523.72C636.621 524.008 635.869 524.152 635.026 524.152Z" fill="black"/>
<path d="M648.344 524.152C647.48 524.152 646.674 523.997 645.928 523.688C645.192 523.378 644.541 522.946 643.976 522.392C643.421 521.837 642.984 521.186 642.664 520.44C642.354 519.693 642.2 518.877 642.2 517.992C642.2 517.106 642.354 516.29 642.664 515.544C642.984 514.786 643.421 514.136 643.976 513.592C644.53 513.037 645.181 512.61 645.928 512.312C646.674 512.002 647.48 511.848 648.344 511.848C649.218 511.848 650.024 512.002 650.76 512.312C651.506 512.61 652.157 513.037 652.712 513.592C653.277 514.146 653.714 514.797 654.024 515.544C654.333 516.29 654.488 517.106 654.488 517.992C654.488 518.877 654.328 519.693 654.008 520.44C653.698 521.186 653.266 521.837 652.712 522.392C652.157 522.946 651.506 523.378 650.76 523.688C650.013 523.997 649.208 524.152 648.344 524.152ZM648.344 522.424C648.962 522.424 649.528 522.312 650.04 522.088C650.562 521.864 651.016 521.554 651.4 521.16C651.784 520.754 652.082 520.285 652.296 519.752C652.509 519.208 652.616 518.621 652.616 517.992C652.616 517.362 652.509 516.781 652.296 516.248C652.082 515.714 651.784 515.245 651.4 514.84C651.016 514.434 650.562 514.12 650.04 513.896C649.528 513.672 648.962 513.56 648.344 513.56C647.725 513.56 647.154 513.672 646.632 513.896C646.12 514.12 645.672 514.434 645.288 514.84C644.904 515.245 644.605 515.714 644.392 516.248C644.189 516.781 644.088 517.362 644.088 517.992C644.088 518.621 644.189 519.208 644.392 519.752C644.605 520.285 644.904 520.754 645.288 521.16C645.672 521.554 646.125 521.864 646.648 522.088C647.17 522.312 647.736 522.424 648.344 522.424Z" fill="black"/>
<path d="M657.238 523.96V512.04H661.574C662.374 512.04 663.078 512.189 663.686 512.488C664.305 512.776 664.785 513.202 665.126 513.768C665.468 514.322 665.638 514.989 665.638 515.768C665.638 516.536 665.462 517.197 665.11 517.752C664.769 518.306 664.294 518.733 663.686 519.032C663.078 519.33 662.374 519.48 661.574 519.48H659.126V523.96H657.238ZM659.126 517.8H661.622C662.049 517.8 662.422 517.714 662.742 517.544C663.062 517.373 663.313 517.138 663.494 516.84C663.676 516.53 663.766 516.168 663.766 515.752C663.766 515.336 663.676 514.978 663.494 514.68C663.313 514.37 663.062 514.136 662.742 513.976C662.422 513.805 662.049 513.72 661.622 513.72H659.126V517.8Z" fill="black"/>
<path d="M670.934 523.96V518.584L666.854 512.04H668.982L672.246 517.336H671.494L674.742 512.04H676.87L672.806 518.584V523.96H670.934Z" fill="black"/>
<rect width="162.06" height="50" transform="translate(751.87 493)" fill="#FAADA9" fill-opacity="0.12"/>
<path d="M788.62 511.333C788.62 510.919 788.284 510.583 787.87 510.583C787.456 510.583 787.12 510.919 787.12 511.333H788.62ZM787.12 512.166C787.12 512.581 787.456 512.916 787.87 512.916C788.284 512.916 788.62 512.581 788.62 512.166H787.12ZM792.87 520.583C792.456 520.583 792.12 520.919 792.12 521.333C792.12 521.747 792.456 522.083 792.87 522.083V520.583ZM794.537 522.083C794.951 522.083 795.287 521.747 795.287 521.333C795.287 520.919 794.951 520.583 794.537 520.583V522.083ZM787.87 521.333V520.583C787.456 520.583 787.12 520.919 787.12 521.333H787.87ZM789.537 522.083C789.951 522.083 790.287 521.747 790.287 521.333C790.287 520.919 789.951 520.583 789.537 520.583V522.083ZM787.12 524.666C787.12 525.081 787.456 525.416 787.87 525.416C788.284 525.416 788.62 525.081 788.62 524.666H787.12ZM788.62 515.5C788.62 515.085 788.284 514.75 787.87 514.75C787.456 514.75 787.12 515.085 787.12 515.5H788.62ZM787.87 518H787.12C787.12 518.414 787.456 518.75 787.87 518.75V518ZM791.204 523.916C790.789 523.916 790.454 524.252 790.454 524.666C790.454 525.081 790.789 525.416 791.204 525.416V523.916ZM794.537 525.416C794.951 525.416 795.287 525.081 795.287 524.666C795.287 524.252 794.951 523.916 794.537 523.916V525.416ZM781.204 517.25C780.789 517.25 780.454 517.585 780.454 518C780.454 518.414 780.789 518.75 781.204 518.75V517.25ZM784.537 518.75C784.951 518.75 785.287 518.414 785.287 518C785.287 517.585 784.951 517.25 784.537 517.25V518.75ZM787.879 518.75C788.293 518.75 788.629 518.414 788.629 518C788.629 517.585 788.293 517.25 787.879 517.25V518.75ZM791.212 518.75C791.626 518.75 791.962 518.414 791.962 518C791.962 517.585 791.626 517.25 791.212 517.25V518.75ZM794.537 517.25C794.123 517.25 793.787 517.585 793.787 518C793.787 518.414 794.123 518.75 794.537 518.75V517.25ZM794.545 518.75C794.959 518.75 795.295 518.414 795.295 518C795.295 517.585 794.959 517.25 794.545 517.25V518.75ZM782.037 512.083H783.704V510.583H782.037V512.083ZM783.787 512.166V513.833H785.287V512.166H783.787ZM783.704 513.916H782.037V515.416H783.704V513.916ZM781.954 513.833V512.166H780.454V513.833H781.954ZM782.037 513.916C781.991 513.916 781.954 513.879 781.954 513.833H780.454C780.454 514.707 781.162 515.416 782.037 515.416V513.916ZM783.787 513.833C783.787 513.879 783.75 513.916 783.704 513.916V515.416C784.578 515.416 785.287 514.707 785.287 513.833H783.787ZM783.704 512.083C783.75 512.083 783.787 512.12 783.787 512.166H785.287C785.287 511.292 784.578 510.583 783.704 510.583V512.083ZM782.037 510.583C781.162 510.583 780.454 511.292 780.454 512.166H781.954C781.954 512.12 781.991 512.083 782.037 512.083V510.583ZM792.037 512.083H793.704V510.583H792.037V512.083ZM793.787 512.166V513.833H795.287V512.166H793.787ZM793.704 513.916H792.037V515.416H793.704V513.916ZM791.954 513.833V512.166H790.454V513.833H791.954ZM792.037 513.916C791.991 513.916 791.954 513.879 791.954 513.833H790.454C790.454 514.707 791.162 515.416 792.037 515.416V513.916ZM793.787 513.833C793.787 513.879 793.75 513.916 793.704 513.916V515.416C794.578 515.416 795.287 514.707 795.287 513.833H793.787ZM793.704 512.083C793.75 512.083 793.787 512.12 793.787 512.166H795.287C795.287 511.292 794.578 510.583 793.704 510.583V512.083ZM792.037 510.583C791.162 510.583 790.454 511.292 790.454 512.166H791.954C791.954 512.12 791.991 512.083 792.037 512.083V510.583ZM782.037 522.083H783.704V520.583H782.037V522.083ZM783.787 522.166V523.833H785.287V522.166H783.787ZM783.704 523.916H782.037V525.416H783.704V523.916ZM781.954 523.833V522.166H780.454V523.833H781.954ZM782.037 523.916C781.991 523.916 781.954 523.879 781.954 523.833H780.454C780.454 524.707 781.162 525.416 782.037 525.416V523.916ZM783.787 523.833C783.787 523.879 783.75 523.916 783.704 523.916V525.416C784.578 525.416 785.287 524.707 785.287 523.833H783.787ZM783.704 522.083C783.75 522.083 783.787 522.12 783.787 522.166H785.287C785.287 521.292 784.578 520.583 783.704 520.583V522.083ZM782.037 520.583C781.162 520.583 780.454 521.292 780.454 522.166H781.954C781.954 522.12 781.991 522.083 782.037 522.083V520.583ZM787.12 511.333V512.166H788.62V511.333H787.12ZM792.87 522.083H794.537V520.583H792.87V522.083ZM787.87 522.083H789.537V520.583H787.87V522.083ZM787.12 521.333V524.666H788.62V521.333H787.12ZM787.12 515.5V518H788.62V515.5H787.12ZM791.204 525.416H794.537V523.916H791.204V525.416ZM781.204 518.75H784.537V517.25H781.204V518.75ZM787.87 518.75H787.879V517.25H787.87V518.75ZM794.537 518.75H794.545V517.25H794.537V518.75ZM787.87 518.75H791.212V517.25H787.87V518.75Z" fill="black"/>
<path d="M810.574 523.528C809.827 523.528 809.134 523.389 808.494 523.112C807.854 522.824 807.31 522.434 806.862 521.944C806.414 521.453 806.083 520.888 805.87 520.248L807.47 519.576C807.758 520.312 808.179 520.877 808.734 521.272C809.289 521.666 809.929 521.864 810.654 521.864C811.081 521.864 811.454 521.8 811.774 521.672C812.094 521.533 812.339 521.341 812.51 521.096C812.691 520.85 812.782 520.568 812.782 520.248C812.782 519.81 812.659 519.464 812.414 519.208C812.169 518.952 811.806 518.749 811.326 518.6L809.086 517.896C808.19 517.618 807.507 517.197 807.038 516.632C806.569 516.056 806.334 515.384 806.334 514.616C806.334 513.944 806.499 513.357 806.83 512.856C807.161 512.344 807.614 511.944 808.19 511.656C808.777 511.368 809.443 511.224 810.19 511.224C810.905 511.224 811.555 511.352 812.142 511.608C812.729 511.853 813.23 512.194 813.646 512.632C814.073 513.069 814.382 513.576 814.574 514.152L813.006 514.84C812.771 514.21 812.403 513.725 811.902 513.384C811.411 513.042 810.841 512.872 810.19 512.872C809.795 512.872 809.449 512.941 809.15 513.08C808.851 513.208 808.617 513.4 808.446 513.656C808.286 513.901 808.206 514.189 808.206 514.52C808.206 514.904 808.329 515.245 808.574 515.544C808.819 515.842 809.193 516.066 809.694 516.216L811.774 516.872C812.723 517.16 813.438 517.576 813.918 518.12C814.398 518.653 814.638 519.32 814.638 520.12C814.638 520.781 814.462 521.368 814.11 521.88C813.769 522.392 813.294 522.797 812.686 523.096C812.078 523.384 811.374 523.528 810.574 523.528Z" fill="black"/>
<path d="M817.397 523.336V511.416H819.285V516.664H824.805V511.416H826.677V523.336H824.805V518.344H819.285V523.336H817.397Z" fill="black"/>
<path d="M835.579 523.528C834.715 523.528 833.91 523.373 833.163 523.064C832.427 522.754 831.777 522.322 831.211 521.768C830.657 521.213 830.219 520.562 829.899 519.816C829.59 519.069 829.435 518.253 829.435 517.368C829.435 516.482 829.59 515.666 829.899 514.92C830.219 514.162 830.657 513.512 831.211 512.968C831.766 512.413 832.417 511.986 833.163 511.688C833.91 511.378 834.715 511.224 835.579 511.224C836.454 511.224 837.259 511.378 837.995 511.688C838.742 511.986 839.393 512.413 839.947 512.968C840.513 513.522 840.95 514.173 841.259 514.92C841.569 515.666 841.723 516.482 841.723 517.368C841.723 518.253 841.563 519.069 841.243 519.816C840.934 520.562 840.502 521.213 839.947 521.768C839.393 522.322 838.742 522.754 837.995 523.064C837.249 523.373 836.443 523.528 835.579 523.528ZM835.579 521.8C836.198 521.8 836.763 521.688 837.275 521.464C837.798 521.24 838.251 520.93 838.635 520.536C839.019 520.13 839.318 519.661 839.531 519.128C839.745 518.584 839.851 517.997 839.851 517.368C839.851 516.738 839.745 516.157 839.531 515.624C839.318 515.09 839.019 514.621 838.635 514.216C838.251 513.81 837.798 513.496 837.275 513.272C836.763 513.048 836.198 512.936 835.579 512.936C834.961 512.936 834.39 513.048 833.867 513.272C833.355 513.496 832.907 513.81 832.523 514.216C832.139 514.621 831.841 515.09 831.627 515.624C831.425 516.157 831.323 516.738 831.323 517.368C831.323 517.997 831.425 518.584 831.627 519.128C831.841 519.661 832.139 520.13 832.523 520.536C832.907 520.93 833.361 521.24 833.883 521.464C834.406 521.688 834.971 521.8 835.579 521.8Z" fill="black"/>
<path d="M846.386 523.336L843.106 511.416H845.106L847.762 521.736H847.266L850.018 511.416H851.986L854.738 521.736H854.226L856.898 511.416H858.882L855.618 523.336H853.49L850.722 513.176H851.282L848.498 523.336H846.386Z" fill="black"/>
<path d="M870.156 523.528C869.292 523.528 868.486 523.373 867.74 523.064C867.004 522.754 866.353 522.322 865.788 521.768C865.233 521.213 864.796 520.562 864.476 519.816C864.166 519.069 864.012 518.253 864.012 517.368C864.012 516.482 864.166 515.666 864.476 514.92C864.796 514.162 865.233 513.512 865.788 512.968C866.342 512.413 866.993 511.986 867.74 511.688C868.486 511.378 869.292 511.224 870.156 511.224C871.03 511.224 871.836 511.378 872.572 511.688C873.318 511.986 873.969 512.413 874.524 512.968C875.089 513.522 875.526 514.173 875.836 514.92C876.145 515.666 876.3 516.482 876.3 517.368C876.3 518.253 876.14 519.069 875.82 519.816C875.51 520.562 875.078 521.213 874.524 521.768C873.969 522.322 873.318 522.754 872.572 523.064C871.825 523.373 871.02 523.528 870.156 523.528ZM870.156 521.8C870.774 521.8 871.34 521.688 871.852 521.464C872.374 521.24 872.828 520.93 873.212 520.536C873.596 520.13 873.894 519.661 874.108 519.128C874.321 518.584 874.428 517.997 874.428 517.368C874.428 516.738 874.321 516.157 874.108 515.624C873.894 515.09 873.596 514.621 873.212 514.216C872.828 513.81 872.374 513.496 871.852 513.272C871.34 513.048 870.774 512.936 870.156 512.936C869.537 512.936 868.966 513.048 868.444 513.272C867.932 513.496 867.484 513.81 867.1 514.216C866.716 514.621 866.417 515.09 866.204 515.624C866.001 516.157 865.9 516.738 865.9 517.368C865.9 517.997 866.001 518.584 866.204 519.128C866.417 519.661 866.716 520.13 867.1 520.536C867.484 520.93 867.937 521.24 868.46 521.464C868.982 521.688 869.548 521.8 870.156 521.8ZM873.148 524.776L869.244 518.568H871.26L875.18 524.776H873.148Z" fill="black"/>
<path d="M879.051 523.336V511.416H883.387C884.187 511.416 884.891 511.565 885.499 511.864C886.107 512.152 886.581 512.578 886.923 513.144C887.275 513.698 887.451 514.365 887.451 515.144C887.451 515.965 887.243 516.669 886.827 517.256C886.421 517.842 885.872 518.269 885.179 518.536L887.931 523.336H885.787L882.859 518.136L884.091 518.856H880.939V523.336H879.051ZM880.939 517.176H883.419C883.856 517.176 884.235 517.09 884.555 516.92C884.875 516.749 885.12 516.514 885.291 516.216C885.472 515.906 885.563 515.544 885.563 515.128C885.563 514.712 885.472 514.354 885.291 514.056C885.12 513.746 884.875 513.512 884.555 513.352C884.235 513.181 883.856 513.096 883.419 513.096H880.939V517.176Z" fill="black"/>
<rect width="160.37" height="50" transform="translate(945.93 493)" fill="#FAADA9" fill-opacity="0.12"/>
<path d="M982.93 513V511.333M982.93 513C982.01 513 981.264 513.746 981.264 514.666C981.264 515.587 982.01 516.333 982.93 516.333M982.93 513C983.851 513 984.597 513.746 984.597 514.666C984.597 515.587 983.851 516.333 982.93 516.333M977.93 523C978.851 523 979.597 522.253 979.597 521.333C979.597 520.413 978.851 519.666 977.93 519.666M977.93 523C977.01 523 976.264 522.253 976.264 521.333C976.264 520.413 977.01 519.666 977.93 519.666M977.93 523V524.666M977.93 519.666V511.333M982.93 516.333V524.666M987.93 523C988.851 523 989.597 522.253 989.597 521.333C989.597 520.413 988.851 519.666 987.93 519.666M987.93 523C987.01 523 986.264 522.253 986.264 521.333C986.264 520.413 987.01 519.666 987.93 519.666M987.93 523V524.666M987.93 519.666V511.333" stroke="black" stroke-width="1.5" stroke-linecap="round" stroke-linejoin="round"/>
<path d="M1000.93 523.96L1005.12 512.04H1007.46L1011.65 523.96H1009.63L1008.72 521.288H1003.87L1002.95 523.96H1000.93ZM1004.42 519.608H1008.15L1006.03 513.368H1006.56L1004.42 519.608Z" fill="black"/>
<path d="M1013.7 523.96V512.04H1017.61C1018.85 512.04 1019.92 512.29 1020.82 512.792C1021.74 513.282 1022.45 513.976 1022.95 514.872C1023.45 515.768 1023.7 516.808 1023.7 517.992C1023.7 519.165 1023.45 520.205 1022.95 521.112C1022.45 522.008 1021.74 522.706 1020.82 523.208C1019.92 523.709 1018.85 523.96 1017.61 523.96H1013.7ZM1015.59 522.28H1017.64C1018.48 522.28 1019.21 522.104 1019.83 521.752C1020.46 521.4 1020.95 520.904 1021.29 520.264C1021.63 519.624 1021.8 518.866 1021.8 517.992C1021.8 517.117 1021.62 516.365 1021.27 515.736C1020.93 515.096 1020.45 514.6 1019.83 514.248C1019.21 513.896 1018.48 513.72 1017.64 513.72H1015.59V522.28Z" fill="black"/>
<path d="M1026.2 523.96V512.04H1030.11C1031.35 512.04 1032.42 512.29 1033.32 512.792C1034.24 513.282 1034.95 513.976 1035.45 514.872C1035.95 515.768 1036.2 516.808 1036.2 517.992C1036.2 519.165 1035.95 520.205 1035.45 521.112C1034.95 522.008 1034.24 522.706 1033.32 523.208C1032.42 523.709 1031.35 523.96 1030.11 523.96H1026.2ZM1028.09 522.28H1030.14C1030.98 522.28 1031.71 522.104 1032.33 521.752C1032.96 521.4 1033.45 520.904 1033.79 520.264C1034.13 519.624 1034.3 518.866 1034.3 517.992C1034.3 517.117 1034.12 516.365 1033.77 515.736C1033.43 515.096 1032.95 514.6 1032.33 514.248C1031.71 513.896 1030.98 513.72 1030.14 513.72H1028.09V522.28Z" fill="black"/>
<path d="M1038.7 523.96V512.04H1043.04C1043.84 512.04 1044.54 512.189 1045.15 512.488C1045.76 512.776 1046.23 513.202 1046.58 513.768C1046.93 514.322 1047.1 514.989 1047.1 515.768C1047.1 516.589 1046.9 517.293 1046.48 517.88C1046.07 518.466 1045.52 518.893 1044.83 519.16L1047.58 523.96H1045.44L1042.51 518.76L1043.74 519.48H1040.59V523.96H1038.7ZM1040.59 517.8H1043.07C1043.51 517.8 1043.89 517.714 1044.21 517.544C1044.53 517.373 1044.77 517.138 1044.94 516.84C1045.12 516.53 1045.22 516.168 1045.22 515.752C1045.22 515.336 1045.12 514.978 1044.94 514.68C1044.77 514.37 1044.53 514.136 1044.21 513.976C1043.89 513.805 1043.51 513.72 1043.07 513.72H1040.59V517.8Z" fill="black"/>
<path d="M1049.81 523.96V512.04H1057.67V513.72H1051.7V517.144H1057.35V518.824H1051.7V522.28H1057.67V523.96H1049.81Z" fill="black"/>
<path d="M1064.24 524.152C1063.49 524.152 1062.8 524.013 1062.16 523.736C1061.52 523.448 1060.97 523.058 1060.53 522.568C1060.08 522.077 1059.75 521.512 1059.53 520.872L1061.13 520.2C1061.42 520.936 1061.84 521.501 1062.4 521.896C1062.95 522.29 1063.59 522.488 1064.32 522.488C1064.74 522.488 1065.12 522.424 1065.44 522.296C1065.76 522.157 1066 521.965 1066.17 521.72C1066.35 521.474 1066.45 521.192 1066.45 520.872C1066.45 520.434 1066.32 520.088 1066.08 519.832C1065.83 519.576 1065.47 519.373 1064.99 519.224L1062.75 518.52C1061.85 518.242 1061.17 517.821 1060.7 517.256C1060.23 516.68 1060 516.008 1060 515.24C1060 514.568 1060.16 513.981 1060.49 513.48C1060.82 512.968 1061.28 512.568 1061.85 512.28C1062.44 511.992 1063.11 511.848 1063.85 511.848C1064.57 511.848 1065.22 511.976 1065.81 512.232C1066.39 512.477 1066.89 512.818 1067.31 513.256C1067.74 513.693 1068.05 514.2 1068.24 514.776L1066.67 515.464C1066.43 514.834 1066.07 514.349 1065.57 514.008C1065.07 513.666 1064.5 513.496 1063.85 513.496C1063.46 513.496 1063.11 513.565 1062.81 513.704C1062.51 513.832 1062.28 514.024 1062.11 514.28C1061.95 514.525 1061.87 514.813 1061.87 515.144C1061.87 515.528 1061.99 515.869 1062.24 516.168C1062.48 516.466 1062.86 516.69 1063.36 516.84L1065.44 517.496C1066.39 517.784 1067.1 518.2 1067.58 518.744C1068.06 519.277 1068.3 519.944 1068.3 520.744C1068.3 521.405 1068.13 521.992 1067.77 522.504C1067.43 523.016 1066.96 523.421 1066.35 523.72C1065.74 524.008 1065.04 524.152 1064.24 524.152Z" fill="black"/>
<path d="M1075.24 524.152C1074.49 524.152 1073.8 524.013 1073.16 523.736C1072.52 523.448 1071.97 523.058 1071.52 522.568C1071.08 522.077 1070.75 521.512 1070.53 520.872L1072.13 520.2C1072.42 520.936 1072.84 521.501 1073.4 521.896C1073.95 522.29 1074.59 522.488 1075.32 522.488C1075.74 522.488 1076.12 522.424 1076.44 522.296C1076.76 522.157 1077 521.965 1077.17 521.72C1077.35 521.474 1077.44 521.192 1077.44 520.872C1077.44 520.434 1077.32 520.088 1077.08 519.832C1076.83 519.576 1076.47 519.373 1075.99 519.224L1073.75 518.52C1072.85 518.242 1072.17 517.821 1071.7 517.256C1071.23 516.68 1071 516.008 1071 515.24C1071 514.568 1071.16 513.981 1071.49 513.48C1071.82 512.968 1072.28 512.568 1072.85 512.28C1073.44 511.992 1074.11 511.848 1074.85 511.848C1075.57 511.848 1076.22 511.976 1076.8 512.232C1077.39 512.477 1077.89 512.818 1078.31 513.256C1078.74 513.693 1079.04 514.2 1079.24 514.776L1077.67 515.464C1077.43 514.834 1077.07 514.349 1076.56 514.008C1076.07 513.666 1075.5 513.496 1074.85 513.496C1074.46 513.496 1074.11 513.565 1073.81 513.704C1073.51 513.832 1073.28 514.024 1073.11 514.28C1072.95 514.525 1072.87 514.813 1072.87 515.144C1072.87 515.528 1072.99 515.869 1073.24 516.168C1073.48 516.466 1073.86 516.69 1074.36 516.84L1076.44 517.496C1077.39 517.784 1078.1 518.2 1078.58 518.744C1079.06 519.277 1079.3 519.944 1079.3 520.744C1079.3 521.405 1079.12 521.992 1078.77 522.504C1078.43 523.016 1077.96 523.421 1077.35 523.72C1076.74 524.008 1076.04 524.152 1075.24 524.152Z" fill="black"/>
<rect width="132.754" height="50" transform="translate(437 257)" fill="#FA8700" fill-opacity="0.1"/>
<g clip-path="url(#clip0_144_7224)">
<path d="M474.701 284.418C473.365 289.778 467.934 293.037 462.582 291.7C457.222 290.364 453.963 284.934 455.3 279.582C456.636 274.222 462.058 270.963 467.419 272.3C472.771 273.628 476.037 279.058 474.701 284.418Z" fill="url(#paint0_linear_144_7224)"/>
<path d="M469.761 280.754C469.957 279.426 468.949 278.707 467.558 278.23L468.011 276.426L466.917 276.152L466.48 277.91C466.191 277.84 465.894 277.77 465.597 277.707L466.035 275.941L464.941 275.668L464.496 277.465C464.253 277.41 464.019 277.355 463.792 277.301V277.293L462.277 276.918L461.988 278.09C461.988 278.09 462.8 278.277 462.785 278.285C463.23 278.395 463.308 278.691 463.292 278.926L462.777 280.98C462.808 280.988 462.847 280.996 462.894 281.02C462.855 281.012 462.816 281.004 462.777 280.988L462.058 283.863C462.003 283.996 461.863 284.199 461.558 284.121C461.566 284.137 460.761 283.926 460.761 283.926L460.214 285.184L461.644 285.543C461.91 285.613 462.167 285.676 462.425 285.746L461.972 287.566L463.066 287.84L463.519 286.035C463.816 286.113 464.113 286.191 464.394 286.262L463.949 288.059L465.042 288.332L465.496 286.512C467.371 286.863 468.777 286.723 469.363 285.027C469.839 283.668 469.339 282.879 468.355 282.363C469.082 282.199 469.621 281.723 469.761 280.754V280.754ZM467.253 284.27C466.917 285.629 464.621 284.895 463.878 284.707L464.48 282.293C465.222 282.48 467.613 282.848 467.253 284.27ZM467.597 280.73C467.285 281.973 465.378 281.34 464.761 281.184L465.308 278.996C465.925 279.152 467.917 279.441 467.597 280.73Z" fill="black"/>
</g>
<path d="M484.242 288V276.08H489.266C490.012 276.08 490.658 276.213 491.202 276.48C491.746 276.736 492.162 277.109 492.45 277.6C492.738 278.08 492.882 278.65 492.882 279.312C492.882 279.888 492.732 280.416 492.434 280.896C492.146 281.365 491.692 281.738 491.074 282.016V281.216C491.618 281.429 492.06 281.701 492.402 282.032C492.743 282.352 492.988 282.714 493.138 283.12C493.298 283.525 493.378 283.952 493.378 284.4C493.378 285.52 493.01 286.4 492.274 287.04C491.548 287.68 490.551 288 489.282 288H484.242ZM486.13 286.32H489.426C490.055 286.32 490.556 286.149 490.93 285.808C491.303 285.456 491.49 284.992 491.49 284.416C491.49 283.829 491.303 283.365 490.93 283.024C490.556 282.672 490.055 282.496 489.426 282.496H486.13V286.32ZM486.13 280.832H489.314C489.826 280.832 490.236 280.688 490.546 280.4C490.855 280.101 491.01 279.712 491.01 279.232C491.01 278.752 490.855 278.378 490.546 278.112C490.236 277.845 489.826 277.712 489.314 277.712H486.13V280.832Z" fill="#FA8700"/>
<path d="M495.96 288V276.08H497.848V288H495.96Z" fill="#FA8700"/>
<path d="M503.071 288V277.76H499.903V276.08H508.063V277.76H504.943V288H503.071Z" fill="#FA8700"/>
<path d="M515.182 288.192C514.34 288.192 513.556 288.037 512.83 287.728C512.116 287.418 511.492 286.992 510.958 286.448C510.436 285.893 510.025 285.242 509.726 284.496C509.428 283.749 509.278 282.928 509.278 282.032C509.278 281.146 509.422 280.33 509.71 279.584C510.009 278.826 510.425 278.176 510.958 277.632C511.492 277.077 512.116 276.65 512.83 276.352C513.545 276.042 514.329 275.888 515.182 275.888C516.025 275.888 516.777 276.032 517.438 276.32C518.11 276.608 518.676 276.986 519.134 277.456C519.593 277.914 519.924 278.416 520.126 278.96L518.43 279.76C518.174 279.12 517.764 278.602 517.198 278.208C516.644 277.802 515.972 277.6 515.182 277.6C514.393 277.6 513.694 277.786 513.086 278.16C512.478 278.533 512.004 279.05 511.662 279.712C511.332 280.373 511.166 281.146 511.166 282.032C511.166 282.917 511.332 283.696 511.662 284.368C512.004 285.029 512.478 285.546 513.086 285.92C513.694 286.282 514.393 286.464 515.182 286.464C515.972 286.464 516.644 286.266 517.198 285.872C517.764 285.477 518.174 284.96 518.43 284.32L520.126 285.12C519.924 285.653 519.593 286.154 519.134 286.624C518.676 287.093 518.11 287.472 517.438 287.76C516.777 288.048 516.025 288.192 515.182 288.192Z" fill="#FA8700"/>
<path d="M528.5 288.192C527.636 288.192 526.831 288.037 526.084 287.728C525.348 287.418 524.697 286.986 524.132 286.432C523.577 285.877 523.14 285.226 522.82 284.48C522.511 283.733 522.356 282.917 522.356 282.032C522.356 281.146 522.511 280.33 522.82 279.584C523.14 278.826 523.577 278.176 524.132 277.632C524.687 277.077 525.337 276.65 526.084 276.352C526.831 276.042 527.636 275.888 528.5 275.888C529.375 275.888 530.18 276.042 530.916 276.352C531.663 276.65 532.313 277.077 532.868 277.632C533.433 278.186 533.871 278.837 534.18 279.584C534.489 280.33 534.644 281.146 534.644 282.032C534.644 282.917 534.484 283.733 534.164 284.48C533.855 285.226 533.423 285.877 532.868 286.432C532.313 286.986 531.663 287.418 530.916 287.728C530.169 288.037 529.364 288.192 528.5 288.192ZM528.5 286.464C529.119 286.464 529.684 286.352 530.196 286.128C530.719 285.904 531.172 285.594 531.556 285.2C531.94 284.794 532.239 284.325 532.452 283.792C532.665 283.248 532.772 282.661 532.772 282.032C532.772 281.402 532.665 280.821 532.452 280.288C532.239 279.754 531.94 279.285 531.556 278.88C531.172 278.474 530.719 278.16 530.196 277.936C529.684 277.712 529.119 277.6 528.5 277.6C527.881 277.6 527.311 277.712 526.788 277.936C526.276 278.16 525.828 278.474 525.444 278.88C525.06 279.285 524.761 279.754 524.548 280.288C524.345 280.821 524.244 281.402 524.244 282.032C524.244 282.661 524.345 283.248 524.548 283.792C524.761 284.325 525.06 284.794 525.444 285.2C525.828 285.594 526.281 285.904 526.804 286.128C527.327 286.352 527.892 286.464 528.5 286.464Z" fill="#FA8700"/>
<path d="M537.395 288V276.08H539.283V288H537.395Z" fill="#FA8700"/>
<path d="M542.394 288V276.08H543.914L550.602 285.312L549.882 285.424V276.08H551.754V288H550.234L543.594 278.704L544.282 278.576V288H542.394Z" fill="#FA8700"/>
<path d="M633.754 287.336V275.416H635.642V285.656H640.794V287.336H633.754Z" fill="black"/>
<path d="M643.019 287.336V275.416H644.907V287.336H643.019Z" fill="black"/>
<path d="M653.811 287.528C652.947 287.528 652.141 287.373 651.395 287.064C650.659 286.754 650.008 286.322 649.443 285.768C648.888 285.213 648.451 284.562 648.131 283.816C647.821 283.069 647.667 282.253 647.667 281.368C647.667 280.482 647.821 279.666 648.131 278.92C648.451 278.162 648.888 277.512 649.443 276.968C649.997 276.413 650.648 275.986 651.395 275.688C652.141 275.378 652.947 275.224 653.811 275.224C654.685 275.224 655.491 275.378 656.227 275.688C656.973 275.986 657.624 276.413 658.179 276.968C658.744 277.522 659.181 278.173 659.491 278.92C659.8 279.666 659.955 280.482 659.955 281.368C659.955 282.253 659.795 283.069 659.475 283.816C659.165 284.562 658.733 285.213 658.179 285.768C657.624 286.322 656.973 286.754 656.227 287.064C655.48 287.373 654.675 287.528 653.811 287.528ZM653.811 285.8C654.429 285.8 654.995 285.688 655.507 285.464C656.029 285.24 656.483 284.93 656.867 284.536C657.251 284.13 657.549 283.661 657.763 283.128C657.976 282.584 658.083 281.997 658.083 281.368C658.083 280.738 657.976 280.157 657.763 279.624C657.549 279.09 657.251 278.621 656.867 278.216C656.483 277.81 656.029 277.496 655.507 277.272C654.995 277.048 654.429 276.936 653.811 276.936C653.192 276.936 652.621 277.048 652.099 277.272C651.587 277.496 651.139 277.81 650.755 278.216C650.371 278.621 650.072 279.09 649.859 279.624C649.656 280.157 649.555 280.738 649.555 281.368C649.555 281.997 649.656 282.584 649.859 283.128C650.072 283.661 650.371 284.13 650.755 284.536C651.139 284.93 651.592 285.24 652.115 285.464C652.637 285.688 653.203 285.8 653.811 285.8ZM656.803 288.776L652.899 282.568H654.915L658.835 288.776H656.803Z" fill="black"/>
<path d="M667.17 287.528C666.284 287.528 665.495 287.341 664.802 286.968C664.119 286.594 663.58 286.082 663.186 285.432C662.802 284.781 662.61 284.04 662.61 283.208V275.416H664.498V283.128C664.498 283.65 664.61 284.114 664.834 284.52C665.068 284.925 665.383 285.24 665.778 285.464C666.183 285.688 666.647 285.8 667.17 285.8C667.703 285.8 668.167 285.688 668.562 285.464C668.967 285.24 669.282 284.925 669.506 284.52C669.74 284.114 669.858 283.65 669.858 283.128V275.416H671.73V283.208C671.73 284.04 671.538 284.781 671.154 285.432C670.77 286.082 670.231 286.594 669.538 286.968C668.855 287.341 668.066 287.528 667.17 287.528Z" fill="black"/>
<path d="M674.736 287.336V275.416H676.624V287.336H674.736Z" fill="black"/>
<path d="M679.736 287.336V275.416H683.64C684.877 275.416 685.949 275.666 686.856 276.168C687.773 276.658 688.482 277.352 688.984 278.248C689.485 279.144 689.736 280.184 689.736 281.368C689.736 282.541 689.485 283.581 688.984 284.488C688.482 285.384 687.773 286.082 686.856 286.584C685.949 287.085 684.877 287.336 683.64 287.336H679.736ZM681.624 285.656H683.672C684.514 285.656 685.245 285.48 685.864 285.128C686.493 284.776 686.978 284.28 687.32 283.64C687.661 283 687.832 282.242 687.832 281.368C687.832 280.493 687.656 279.741 687.304 279.112C686.962 278.472 686.482 277.976 685.864 277.624C685.245 277.272 684.514 277.096 683.672 277.096H681.624V285.656Z" fill="black"/>
<path d="M753.735 287.96V276.04H755.623V286.28H760.775V287.96H753.735Z" fill="black"/>
<path d="M763 287.96V276.04H764.888V287.96H763Z" fill="black"/>
<path d="M773.584 288.152C772.741 288.152 771.957 287.997 771.232 287.688C770.517 287.378 769.888 286.952 769.344 286.408C768.81 285.853 768.394 285.202 768.096 284.456C767.797 283.709 767.648 282.888 767.648 281.992C767.648 281.106 767.792 280.29 768.08 279.544C768.378 278.786 768.794 278.136 769.328 277.592C769.861 277.037 770.485 276.61 771.2 276.312C771.914 276.002 772.698 275.848 773.552 275.848C774.394 275.848 775.146 275.992 775.808 276.28C776.48 276.568 777.045 276.946 777.504 277.416C777.962 277.874 778.293 278.376 778.496 278.92L776.816 279.736C776.57 279.085 776.165 278.562 775.6 278.168C775.034 277.762 774.352 277.56 773.552 277.56C772.762 277.56 772.064 277.746 771.456 278.12C770.848 278.493 770.373 279.01 770.032 279.672C769.701 280.333 769.536 281.106 769.536 281.992C769.536 282.877 769.706 283.656 770.048 284.328C770.4 284.989 770.88 285.506 771.488 285.88C772.096 286.242 772.794 286.424 773.584 286.424C774.245 286.424 774.848 286.29 775.392 286.024C775.946 285.746 776.389 285.362 776.72 284.872C777.05 284.37 777.216 283.789 777.216 283.128V282.312L778.064 283.08H773.552V281.48H779.088V282.6C779.088 283.474 778.938 284.258 778.64 284.952C778.341 285.634 777.936 286.216 777.424 286.696C776.912 287.176 776.325 287.538 775.664 287.784C775.002 288.029 774.309 288.152 773.584 288.152Z" fill="black"/>
<path d="M781.655 287.96V276.04H783.543V281.288H789.063V276.04H790.935V287.96H789.063V282.968H783.543V287.96H781.655Z" fill="black"/>
<path d="M796.157 287.96V277.72H792.989V276.04H801.149V277.72H798.029V287.96H796.157Z" fill="black"/>
<path d="M803.201 287.96V276.04H804.721L811.409 285.272L810.689 285.384V276.04H812.561V287.96H811.041L804.401 278.664L805.089 278.536V287.96H803.201Z" fill="black"/>
<path d="M815.669 287.96V276.04H817.557V287.96H815.669Z" fill="black"/>
<path d="M820.668 287.96V276.04H822.188L828.876 285.272L828.156 285.384V276.04H830.028V287.96H828.508L821.868 278.664L822.556 278.536V287.96H820.668Z" fill="black"/>
<path d="M838.721 288.152C837.878 288.152 837.094 287.997 836.369 287.688C835.654 287.378 835.025 286.952 834.481 286.408C833.947 285.853 833.531 285.202 833.233 284.456C832.934 283.709 832.785 282.888 832.785 281.992C832.785 281.106 832.929 280.29 833.217 279.544C833.515 278.786 833.931 278.136 834.465 277.592C834.998 277.037 835.622 276.61 836.337 276.312C837.051 276.002 837.835 275.848 838.689 275.848C839.531 275.848 840.283 275.992 840.945 276.28C841.617 276.568 842.182 276.946 842.641 277.416C843.099 277.874 843.43 278.376 843.633 278.92L841.953 279.736C841.707 279.085 841.302 278.562 840.737 278.168C840.171 277.762 839.489 277.56 838.689 277.56C837.899 277.56 837.201 277.746 836.593 278.12C835.985 278.493 835.51 279.01 835.169 279.672C834.838 280.333 834.673 281.106 834.673 281.992C834.673 282.877 834.843 283.656 835.185 284.328C835.537 284.989 836.017 285.506 836.625 285.88C837.233 286.242 837.931 286.424 838.721 286.424C839.382 286.424 839.985 286.29 840.529 286.024C841.083 285.746 841.526 285.362 841.857 284.872C842.187 284.37 842.353 283.789 842.353 283.128V282.312L843.201 283.08H838.689V281.48H844.225V282.6C844.225 283.474 844.075 284.258 843.777 284.952C843.478 285.634 843.073 286.216 842.561 286.696C842.049 287.176 841.462 287.538 840.801 287.784C840.139 288.029 839.446 288.152 838.721 288.152Z" fill="black"/>
<path d="M0 8C0 3.58172 3.58172 0 8 0H1282C1286.42 0 1290 3.58172 1290 8V43H0V8Z" fill="white"/>
<circle cx="20" cy="22" r="5" fill="#F2F2F2"/>
<circle cx="39" cy="22" r="5" fill="#F2F2F2"/>
<circle cx="58" cy="22" r="5" fill="#F2F2F2"/>
<defs>
<linearGradient id="paint0_linear_144_7224" x1="464.995" y1="271.995" x2="464.995" y2="291.998" gradientUnits="userSpaceOnUse">
<stop stop-color="#F9AA4B"/>
<stop offset="1" stop-color="#F7931A"/>
</linearGradient>
<clipPath id="clip0_144_7224">
<rect width="20" height="20" fill="white" transform="translate(455 272)"/>
</clipPath>
</defs>
</svg>
