<svg width="1290" height="659" fill="none" xmlns="http://www.w3.org/2000/svg"><path d="M0 43h1290v608a8 8 0 0 1-8 8H8a8 8 0 0 1-8-8V43Z" fill="#F9F9F9"/><path d="M462.05 200.48c-2.213 0-4.16-.547-5.84-1.64-1.653-1.094-2.813-2.56-3.48-4.4l3.48-1.64c.587 1.226 1.387 2.2 2.4 2.92a5.913 5.913 0 0 0 3.44 1.08c1.067 0 1.933-.24 2.6-.72s1-1.134 1-1.96c0-.534-.147-.96-.44-1.28a3.251 3.251 0 0 0-1.12-.84 5.978 5.978 0 0 0-1.32-.48l-3.4-.96c-1.867-.534-3.267-1.334-4.2-2.4-.907-1.094-1.36-2.36-1.36-3.8 0-1.307.333-2.44 1-3.4.667-.987 1.587-1.747 2.76-2.28 1.173-.534 2.493-.8 3.96-.8 1.973 0 3.733.493 5.28 1.48 1.547.96 2.64 2.306 3.28 4.04l-3.48 1.64a5.316 5.316 0 0 0-2.04-2.48c-.907-.614-1.933-.92-3.08-.92-.987 0-1.773.24-2.36.72-.587.453-.88 1.053-.88 1.8 0 .506.133.933.4 1.28.267.32.613.586 1.04.8.427.186.867.346 1.32.48l3.52 1.04c1.787.506 3.16 1.306 4.12 2.4.96 1.066 1.44 2.346 1.44 3.84 0 1.28-.347 2.413-1.04 3.4-.667.96-1.6 1.72-2.8 2.28-1.2.533-2.6.8-4.2.8Zm22.629 0c-2.16 0-4.08-.494-5.76-1.48a10.761 10.761 0 0 1-3.88-4.08c-.934-1.734-1.4-3.667-1.4-5.8 0-2.187.466-4.12 1.4-5.8.96-1.68 2.24-3 3.84-3.96 1.6-.987 3.413-1.48 5.44-1.48 1.626 0 3.08.28 4.36.84 1.28.56 2.36 1.333 3.24 2.32a9.79 9.79 0 0 1 2 3.32c.48 1.253.72 2.586.72 4 0 .346-.014.706-.04 1.08-.027.373-.08.72-.16 1.04h-17.24v-3.6h14.68l-2.16 1.64c.266-1.307.173-2.467-.28-3.48-.427-1.04-1.094-1.854-2-2.44-.88-.614-1.92-.92-3.12-.92-1.2 0-2.267.306-3.2.92-.934.586-1.654 1.44-2.16 2.56-.507 1.093-.707 2.426-.6 4-.134 1.466.066 2.746.6 3.84.56 1.093 1.333 1.946 2.32 2.56 1.013.613 2.16.92 3.44.92 1.306 0 2.413-.294 3.32-.88a6.443 6.443 0 0 0 2.2-2.28l3.68 1.8c-.427 1.013-1.094 1.933-2 2.76-.88.8-1.947 1.44-3.2 1.92-1.227.453-2.574.68-4.04.68Zm14.371-.48v-21.64h4.32v4.24l-.52-.56c.533-1.36 1.387-2.387 2.56-3.08 1.173-.72 2.533-1.08 4.08-1.08 1.6 0 3.013.346 4.24 1.04a7.464 7.464 0 0 1 2.88 2.88c.693 1.226 1.04 2.64 1.04 4.24V200h-4.48v-12.76c0-1.094-.2-2.014-.6-2.76a4.057 4.057 0 0 0-1.72-1.76c-.72-.427-1.547-.64-2.48-.64s-1.773.213-2.52.64c-.72.4-1.28.986-1.68 1.76-.4.773-.6 1.693-.6 2.76V200h-4.52Zm33.437.48c-2.08 0-3.946-.494-5.6-1.48-1.626-1.014-2.92-2.374-3.88-4.08-.933-1.707-1.4-3.627-1.4-5.76 0-2.134.48-4.054 1.44-5.76.96-1.707 2.254-3.054 3.88-4.04 1.627-.987 3.467-1.48 5.52-1.48 1.734 0 3.267.346 4.6 1.04 1.334.693 2.387 1.653 3.16 2.88l-.68 1.04v-13.12h4.48V200h-4.28v-4.4l.52.84c-.746 1.306-1.813 2.306-3.2 3-1.386.693-2.906 1.04-4.56 1.04Zm.44-4.2c1.254 0 2.374-.307 3.36-.92a6.325 6.325 0 0 0 2.36-2.52c.587-1.094.88-2.32.88-3.68 0-1.36-.293-2.574-.88-3.64a6.312 6.312 0 0 0-2.36-2.52c-.986-.614-2.106-.92-3.36-.92-1.253 0-2.386.306-3.4.92a6.319 6.319 0 0 0-2.36 2.52c-.56 1.066-.84 2.28-.84 3.64 0 1.36.28 2.586.84 3.68a6.428 6.428 0 0 0 2.32 2.52c1.014.613 2.16.92 3.44.92Zm32.71 3.96c-2.267 0-4.027-.64-5.28-1.92-1.254-1.28-1.88-3.08-1.88-5.4v-10.48h-3.8v-4.08h.6c1.013 0 1.8-.294 2.36-.88.56-.587.84-1.387.84-2.4v-1.68h4.52v4.96h4.92v4.08h-4.92v10.28c0 .746.12 1.386.36 1.92.24.506.626.906 1.16 1.2.533.266 1.226.4 2.08.4.213 0 .453-.014.72-.04l.76-.08V200c-.374.053-.787.106-1.24.16-.454.053-.854.08-1.2.08Zm16.9.24c-2.08 0-3.987-.494-5.72-1.48a11.185 11.185 0 0 1-4.08-4.04c-1.013-1.707-1.52-3.64-1.52-5.8 0-2.187.507-4.12 1.52-5.8a10.867 10.867 0 0 1 4.08-4c1.707-.987 3.613-1.48 5.72-1.48 2.133 0 4.04.493 5.72 1.48a10.58 10.58 0 0 1 4.04 4c1.013 1.68 1.52 3.613 1.52 5.8 0 2.186-.507 4.133-1.52 5.84a11.185 11.185 0 0 1-4.08 4.04c-1.707.96-3.6 1.44-5.68 1.44Zm0-4.2c1.28 0 2.413-.307 3.4-.92a6.42 6.42 0 0 0 2.32-2.52c.587-1.094.88-2.32.88-3.68 0-1.36-.293-2.574-.88-3.64-.56-1.067-1.333-1.907-2.32-2.52-.987-.614-2.12-.92-3.4-.92-1.253 0-2.387.306-3.4.92-.987.613-1.773 1.453-2.36 2.52-.56 1.066-.84 2.28-.84 3.64 0 1.36.28 2.586.84 3.68.587 1.066 1.373 1.906 2.36 2.52 1.013.613 2.147.92 3.4.92Z" fill="#000"/><path d="M612.663 200.48c-2.213 0-4.16-.547-5.84-1.64-1.653-1.094-2.813-2.56-3.48-4.4l3.48-1.64c.587 1.226 1.387 2.2 2.4 2.92a5.913 5.913 0 0 0 3.44 1.08c1.067 0 1.934-.24 2.6-.72.667-.48 1-1.134 1-1.96 0-.534-.146-.96-.44-1.28a3.242 3.242 0 0 0-1.12-.84 5.941 5.941 0 0 0-1.32-.48l-3.4-.96c-1.866-.534-3.266-1.334-4.2-2.4-.906-1.094-1.36-2.36-1.36-3.8 0-1.307.334-2.44 1-3.4.667-.987 1.587-1.747 2.76-2.28 1.174-.534 2.494-.8 3.96-.8 1.974 0 3.734.493 5.28 1.48 1.547.96 2.64 2.306 3.28 4.04l-3.48 1.64a5.304 5.304 0 0 0-2.04-2.48c-.906-.614-1.933-.92-3.08-.92-.986 0-1.773.24-2.36.72-.586.453-.88 1.053-.88 1.8 0 .506.134.933.4 1.28.267.32.614.586 1.04.8.427.186.867.346 1.32.48l3.52 1.04c1.787.506 3.16 1.306 4.12 2.4.96 1.066 1.44 2.346 1.44 3.84 0 1.28-.346 2.413-1.04 3.4-.666.96-1.6 1.72-2.8 2.28-1.2.533-2.6.8-4.2.8Zm22.629 0c-2.16 0-4.08-.494-5.76-1.48a10.769 10.769 0 0 1-3.88-4.08c-.933-1.734-1.4-3.667-1.4-5.8 0-2.187.467-4.12 1.4-5.8.96-1.68 2.24-3 3.84-3.96 1.6-.987 3.413-1.48 5.44-1.48 1.627 0 3.08.28 4.36.84 1.28.56 2.36 1.333 3.24 2.32a9.774 9.774 0 0 1 2 3.32c.48 1.253.72 2.586.72 4 0 .346-.013.706-.04 1.08-.027.373-.08.72-.16 1.04h-17.24v-3.6h14.68l-2.16 1.64c.267-1.307.173-2.467-.28-3.48-.427-1.04-1.093-1.854-2-2.44-.88-.614-1.92-.92-3.12-.92-1.2 0-2.267.306-3.2.92-.933.586-1.653 1.44-2.16 2.56-.507 1.093-.707 2.426-.6 4-.133 1.466.067 2.746.6 3.84.56 1.093 1.333 1.946 2.32 2.56 1.013.613 2.16.92 3.44.92 1.307 0 2.413-.294 3.32-.88a6.435 6.435 0 0 0 2.2-2.28l3.68 1.8c-.427 1.013-1.093 1.933-2 2.76-.88.8-1.947 1.44-3.2 1.92-1.227.453-2.573.68-4.04.68Zm24.651 0c-2.16 0-4.08-.494-5.76-1.48a11.406 11.406 0 0 1-3.96-4.08c-.96-1.707-1.44-3.64-1.44-5.8 0-2.134.48-4.054 1.44-5.76.96-1.707 2.28-3.04 3.96-4 1.68-.987 3.6-1.48 5.76-1.48 1.467 0 2.84.266 4.12.8a9.953 9.953 0 0 1 3.32 2.12 8.362 8.362 0 0 1 2.12 3.16l-3.96 1.84a5.688 5.688 0 0 0-2.2-2.68c-.986-.694-2.12-1.04-3.4-1.04-1.226 0-2.333.306-3.32.92-.96.586-1.72 1.426-2.28 2.52-.56 1.066-.84 2.28-.84 3.64 0 1.36.28 2.586.84 3.68.56 1.066 1.32 1.906 2.28 2.52.987.613 2.094.92 3.32.92 1.307 0 2.44-.334 3.4-1 .987-.694 1.72-1.614 2.2-2.76l3.96 1.88c-.426 1.146-1.12 2.186-2.08 3.12-.933.906-2.04 1.626-3.32 2.16-1.28.533-2.666.8-4.16.8Zm24.418 0c-2.08 0-3.987-.494-5.72-1.48a11.185 11.185 0 0 1-4.08-4.04c-1.013-1.707-1.52-3.64-1.52-5.8 0-2.187.507-4.12 1.52-5.8a10.867 10.867 0 0 1 4.08-4c1.707-.987 3.613-1.48 5.72-1.48 2.133 0 4.04.493 5.72 1.48a10.58 10.58 0 0 1 4.04 4c1.013 1.68 1.52 3.613 1.52 5.8 0 2.186-.507 4.133-1.52 5.84a11.185 11.185 0 0 1-4.08 4.04c-1.707.96-3.6 1.44-5.68 1.44Zm0-4.2c1.28 0 2.413-.307 3.4-.92a6.42 6.42 0 0 0 2.32-2.52c.587-1.094.88-2.32.88-3.68 0-1.36-.293-2.574-.88-3.64-.56-1.067-1.333-1.907-2.32-2.52-.987-.614-2.12-.92-3.4-.92-1.253 0-2.387.306-3.4.92-.987.613-1.773 1.453-2.36 2.52-.56 1.066-.84 2.28-.84 3.64 0 1.36.28 2.586.84 3.68.587 1.066 1.373 1.906 2.36 2.52 1.013.613 2.147.92 3.4.92Zm15.693 3.72v-21.64h4.32v4.24l-.52-.56c.533-1.36 1.387-2.387 2.56-3.08 1.173-.72 2.533-1.08 4.08-1.08 1.6 0 3.013.346 4.24 1.04a7.464 7.464 0 0 1 2.88 2.88c.693 1.226 1.04 2.64 1.04 4.24V200h-4.48v-12.76c0-1.094-.2-2.014-.6-2.76a4.057 4.057 0 0 0-1.72-1.76c-.72-.427-1.547-.64-2.48-.64s-1.773.213-2.52.64c-.72.4-1.28.986-1.68 1.76-.4.773-.6 1.693-.6 2.76V200h-4.52Zm33.437.48c-2.08 0-3.946-.494-5.6-1.48-1.626-1.014-2.92-2.374-3.88-4.08-.933-1.707-1.4-3.627-1.4-5.76 0-2.134.48-4.054 1.44-5.76.96-1.707 2.254-3.054 3.88-4.04 1.627-.987 3.467-1.48 5.52-1.48 1.734 0 3.267.346 4.6 1.04 1.334.693 2.387 1.653 3.16 2.88l-.68 1.04v-13.12h4.48V200h-4.28v-4.4l.52.84c-.746 1.306-1.813 2.306-3.2 3-1.386.693-2.906 1.04-4.56 1.04Zm.44-4.2c1.254 0 2.374-.307 3.36-.92a6.325 6.325 0 0 0 2.36-2.52c.587-1.094.88-2.32.88-3.68 0-1.36-.293-2.574-.88-3.64a6.312 6.312 0 0 0-2.36-2.52c-.986-.614-2.106-.92-3.36-.92-1.253 0-2.386.306-3.4.92a6.319 6.319 0 0 0-2.36 2.52c-.56 1.066-.84 2.28-.84 3.64 0 1.36.28 2.586.84 3.68a6.428 6.428 0 0 0 2.32 2.52c1.014.613 2.16.92 3.44.92Zm16.357 3.72v-30.28h4.52V200h-4.52Zm14.205 0v-25.8h-5.72v-4h10.4V200h-4.68Zm21.704 8.8c-1.573 0-3.027-.254-4.36-.76-1.333-.507-2.48-1.214-3.44-2.12a8.43 8.43 0 0 1-2.16-3.12l4.16-1.72c.373 1.013 1.053 1.853 2.04 2.52 1.013.666 2.253 1 3.72 1 1.147 0 2.173-.227 3.08-.68a5.017 5.017 0 0 0 2.16-1.92c.533-.827.8-1.827.8-3v-4.88l.8.92c-.747 1.386-1.787 2.44-3.12 3.16-1.307.72-2.787 1.08-4.44 1.08-2 0-3.8-.467-5.4-1.4a10.305 10.305 0 0 1-3.8-3.84c-.907-1.627-1.36-3.454-1.36-5.48 0-2.054.453-3.88 1.36-5.48a10.482 10.482 0 0 1 3.76-3.8c1.573-.934 3.373-1.4 5.4-1.4 1.653 0 3.12.36 4.4 1.08 1.307.693 2.373 1.706 3.2 3.04l-.6 1.12v-4.76h4.28V199c0 1.866-.453 3.533-1.36 5-.88 1.493-2.107 2.666-3.68 3.52-1.573.853-3.387 1.28-5.44 1.28Zm-.24-13.72c1.2 0 2.267-.28 3.2-.84a6.333 6.333 0 0 0 2.2-2.32c.56-.987.84-2.094.84-3.32 0-1.227-.28-2.334-.84-3.32a6.242 6.242 0 0 0-2.24-2.32c-.933-.587-1.987-.88-3.16-.88-1.227 0-2.32.293-3.28.88a6.143 6.143 0 0 0-2.28 2.32c-.533.96-.8 2.066-.8 3.32 0 1.2.267 2.293.8 3.28a6.46 6.46 0 0 0 2.28 2.36c.96.56 2.053.84 3.28.84Zm16.011 4.92v-30.28h4.52v12.88l-.72-.56c.533-1.36 1.387-2.387 2.56-3.08 1.173-.72 2.533-1.08 4.08-1.08 1.6 0 3.013.346 4.24 1.04a7.464 7.464 0 0 1 2.88 2.88c.693 1.226 1.04 2.626 1.04 4.2v14h-4.48v-12.76c0-1.094-.213-2.014-.64-2.76-.4-.774-.96-1.36-1.68-1.76-.72-.427-1.547-.64-2.48-.64-.907 0-1.733.213-2.48.64-.72.4-1.293.986-1.72 1.76-.4.773-.6 1.693-.6 2.76V200h-4.52Zm32.797.24c-2.266 0-4.026-.64-5.28-1.92-1.253-1.28-1.88-3.08-1.88-5.4v-10.48h-3.8v-4.08h.6c1.014 0 1.8-.294 2.36-.88.56-.587.84-1.387.84-2.4v-1.68h4.52v4.96h4.92v4.08h-4.92v10.28c0 .746.12 1.386.36 1.92.24.506.627.906 1.16 1.2.534.266 1.227.4 2.08.4.214 0 .454-.014.72-.04.267-.027.52-.054.76-.08V200a55.46 55.46 0 0 1-1.24.16c-.453.053-.853.08-1.2.08Z" fill="#FA8700"/><path fill="#F2F2F2" d="M370 379h549.987v43.54H370z"/><path d="M391.58 406.38c1.027 0 1.94-.247 2.74-.74a5.322 5.322 0 0 0 1.92-2c.467-.853.7-1.813.7-2.88 0-1.08-.233-2.04-.7-2.88a5.331 5.331 0 0 0-1.9-2.02c-.8-.493-1.713-.74-2.74-.74-.8 0-1.52.153-2.16.46a4.149 4.149 0 0 0-1.58 1.24V391H386v15.14h1.82v-1.56c.413.573.947 1.02 1.6 1.34.667.307 1.387.46 2.16.46Zm-.14-1.8a3.43 3.43 0 0 1-1.82-.5 3.638 3.638 0 0 1-1.3-1.36 4.163 4.163 0 0 1-.46-1.96c0-.733.153-1.387.46-1.96a3.638 3.638 0 0 1 1.3-1.36 3.326 3.326 0 0 1 1.82-.52c.68 0 1.28.167 1.8.5.533.333.953.793 1.26 1.38.307.573.46 1.227.46 1.96 0 .72-.153 1.373-.46 1.96a3.545 3.545 0 0 1-1.26 1.36c-.52.333-1.12.5-1.8.5Zm13.739 1.8c.707 0 1.367-.127 1.98-.38a4.96 4.96 0 0 0 1.62-1.04c.453-.44.793-.933 1.02-1.48l-1.66-.84a3.264 3.264 0 0 1-1.16 1.42c-.507.347-1.107.52-1.8.52a3.293 3.293 0 0 1-1.78-.5 3.597 3.597 0 0 1-1.24-1.36 4.163 4.163 0 0 1-.46-1.96c0-.747.153-1.407.46-1.98a3.597 3.597 0 0 1 1.24-1.36 3.293 3.293 0 0 1 1.78-.5c.68 0 1.28.18 1.8.54.52.347.907.8 1.16 1.36l1.66-.8a4.23 4.23 0 0 0-1.04-1.5 4.76 4.76 0 0 0-1.6-1.02 5.139 5.139 0 0 0-1.98-.38c-1.053 0-1.993.247-2.82.74a5.14 5.14 0 0 0-1.92 2c-.467.84-.7 1.8-.7 2.88 0 1.067.233 2.027.7 2.88a5.284 5.284 0 0 0 1.92 2.02c.827.493 1.767.74 2.82.74Zm9.971-.24h1.98v-14.9h-4.8v1.7h2.82v13.2Zm14.936 4h1.88v-14.78h-1.82v1.52a4.204 4.204 0 0 0-1.6-1.28c-.64-.32-1.366-.48-2.18-.48-1.013 0-1.926.247-2.74.74a5.331 5.331 0 0 0-1.9 2.02c-.466.84-.7 1.8-.7 2.88 0 1.067.234 2.027.7 2.88a5.37 5.37 0 0 0 1.9 2c.814.493 1.727.74 2.74.74.774 0 1.487-.147 2.14-.44a3.978 3.978 0 0 0 1.58-1.3v5.5Zm-3.56-5.56c-.68 0-1.286-.167-1.82-.5a3.545 3.545 0 0 1-1.26-1.36 4.175 4.175 0 0 1-.46-1.96c0-.733.154-1.387.46-1.96a3.505 3.505 0 0 1 1.26-1.38 3.433 3.433 0 0 1 1.82-.5c.68 0 1.287.173 1.82.52a3.53 3.53 0 0 1 1.26 1.36c.32.573.48 1.227.48 1.96 0 .72-.16 1.373-.48 1.96a3.53 3.53 0 0 1-1.26 1.36c-.533.333-1.14.5-1.82.5Zm9.119 1.56h1.86v-3.24l1.84-1.94 3.58 5.18h2.2l-4.42-6.44 4.14-4.34h-2.38l-4.96 5.06V391h-1.86v15.14Zm12.533 4.4c.706 0 1.306-.14 1.8-.42.506-.28.933-.66 1.28-1.14.36-.467.653-.987.88-1.56l4.86-12.06h-2.06l-3.26 8.42-3.28-8.42h-2.02l4.28 10.8-.32.78c-.294.667-.607 1.14-.94 1.42-.32.28-.794.42-1.42.42-.214 0-.434-.02-.66-.06a9.885 9.885 0 0 1-.54-.08v1.66c.213.093.44.153.68.18.24.04.48.06.72.06Zm15.854-4.16c.947 0 1.787-.207 2.52-.62.747-.427 1.334-1 1.76-1.72.427-.733.64-1.56.64-2.48 0-.92-.206-1.733-.62-2.44a4.313 4.313 0 0 0-1.66-1.66c-.693-.413-1.48-.62-2.36-.62-.253 0-.493.02-.72.06a2.1 2.1 0 0 0-.64.18l4.48-5.84h-2.36l-4.2 5.52c-.626.84-1.08 1.64-1.36 2.4a6.5 6.5 0 0 0-.42 2.3c0 .947.214 1.793.64 2.54a4.696 4.696 0 0 0 1.74 1.76c.747.413 1.6.62 2.56.62Zm0-1.76c-.56 0-1.066-.127-1.52-.38a3.056 3.056 0 0 1-1.06-1.08 3.261 3.261 0 0 1-.38-1.58c0-.587.127-1.107.38-1.56.267-.467.62-.827 1.06-1.08.454-.267.96-.4 1.52-.4.574 0 1.08.133 1.52.4a2.7 2.7 0 0 1 1.04 1.08c.254.453.38.973.38 1.56a3.25 3.25 0 0 1-.38 1.58 2.84 2.84 0 0 1-1.06 1.08c-.44.253-.94.38-1.5.38Zm10.313 1.52h1.98v-14.9h-4.8v1.7h2.82v13.2Zm6.317 4h1.86v-5.5c.413.56.94.993 1.58 1.3.653.293 1.366.44 2.14.44 1.026 0 1.94-.247 2.74-.74a5.322 5.322 0 0 0 1.92-2c.466-.853.7-1.813.7-2.88 0-1.08-.234-2.04-.7-2.88a5.331 5.331 0 0 0-1.9-2.02c-.8-.493-1.714-.74-2.74-.74-.814 0-1.547.16-2.2.48a4.246 4.246 0 0 0-1.58 1.28v-1.52h-1.82v14.78Zm5.44-5.56a3.428 3.428 0 0 1-1.82-.5 3.638 3.638 0 0 1-1.3-1.36 4.163 4.163 0 0 1-.46-1.96c0-.733.153-1.387.46-1.96a3.638 3.638 0 0 1 1.3-1.36 3.324 3.324 0 0 1 1.82-.52c.68 0 1.28.167 1.8.5.533.333.953.793 1.26 1.38.306.573.46 1.227.46 1.96 0 .72-.154 1.373-.46 1.96a3.545 3.545 0 0 1-1.26 1.36c-.52.333-1.12.5-1.8.5Zm13.179 1.8c1 0 1.886-.213 2.66-.64a4.767 4.767 0 0 0 1.82-1.74c.44-.733.66-1.553.66-2.46 0-.813-.174-1.54-.52-2.18a3.954 3.954 0 0 0-1.42-1.54c-.6-.4-1.294-.647-2.08-.74l3.4-4.2v-1.64h-8.82v1.7h6.6l-3.98 4.86.42.9c.16-.04.353-.073.58-.1.226-.04.446-.06.66-.06.933 0 1.7.267 2.3.8.6.52.9 1.267.9 2.24 0 .96-.3 1.707-.9 2.24-.587.533-1.347.8-2.28.8a3.637 3.637 0 0 1-2.08-.62c-.6-.427-1.04-1.007-1.32-1.74l-1.66.68a4.675 4.675 0 0 0 1.9 2.52c.933.613 1.986.92 3.16.92Zm13.007 0c1 0 1.886-.213 2.66-.64a4.767 4.767 0 0 0 1.82-1.74c.44-.733.66-1.553.66-2.46 0-.813-.174-1.54-.52-2.18a3.954 3.954 0 0 0-1.42-1.54c-.6-.4-1.294-.647-2.08-.74l3.4-4.2v-1.64h-8.82v1.7h6.6l-3.98 4.86.42.9c.16-.04.353-.073.58-.1.226-.04.446-.06.66-.06.933 0 1.7.267 2.3.8.6.52.9 1.267.9 2.24 0 .96-.3 1.707-.9 2.24-.587.533-1.347.8-2.28.8a3.637 3.637 0 0 1-2.08-.62c-.6-.427-1.04-1.007-1.32-1.74l-1.66.68a4.675 4.675 0 0 0 1.9 2.52c.933.613 1.986.92 3.16.92Zm8.567-.24h1.86v-3.24l1.84-1.94 3.58 5.18h2.2l-4.42-6.44 4.14-4.34h-2.38l-4.96 5.06V391h-1.86v15.14Zm11.952 4h1.86v-5.5c.413.56.94.993 1.58 1.3a5.17 5.17 0 0 0 2.14.44c1.027 0 1.94-.247 2.74-.74a5.322 5.322 0 0 0 1.92-2c.467-.853.7-1.813.7-2.88 0-1.08-.233-2.04-.7-2.88a5.331 5.331 0 0 0-1.9-2.02c-.8-.493-1.713-.74-2.74-.74-.813 0-1.547.16-2.2.48a4.246 4.246 0 0 0-1.58 1.28v-1.52h-1.82v14.78Zm5.44-5.56a3.43 3.43 0 0 1-1.82-.5 3.638 3.638 0 0 1-1.3-1.36 4.163 4.163 0 0 1-.46-1.96c0-.733.153-1.387.46-1.96a3.638 3.638 0 0 1 1.3-1.36 3.326 3.326 0 0 1 1.82-.52c.68 0 1.28.167 1.8.5.533.333.953.793 1.26 1.38.307.573.46 1.227.46 1.96 0 .72-.153 1.373-.46 1.96a3.545 3.545 0 0 1-1.26 1.36c-.52.333-1.12.5-1.8.5Zm8.839 1.56h2.12l6.48-13.22v-1.7h-9.36v1.7h7.3l-6.54 13.22Zm16.797 4.4c1 0 1.887-.213 2.66-.64a4.58 4.58 0 0 0 1.84-1.72c.44-.733.66-1.567.66-2.5v-10.32h-1.82v1.5a4.47 4.47 0 0 0-1.58-1.28 4.664 4.664 0 0 0-2.08-.46c-1.013 0-1.92.24-2.72.72a5.046 5.046 0 0 0-1.86 1.92c-.453.813-.68 1.727-.68 2.74 0 1.013.227 1.927.68 2.74a5.357 5.357 0 0 0 1.88 1.94c.8.467 1.707.7 2.72.7.733 0 1.413-.147 2.04-.44a3.941 3.941 0 0 0 1.54-1.26v1.5c0 .653-.153 1.207-.46 1.66a2.7 2.7 0 0 1-1.18 1.04c-.493.24-1.047.36-1.66.36-.8 0-1.467-.18-2-.54-.52-.347-.873-.773-1.06-1.28l-1.74.8c.36.84.967 1.52 1.82 2.04.853.52 1.853.78 3 .78Zm-.14-6.46c-.667 0-1.267-.16-1.8-.48a3.571 3.571 0 0 1-1.24-1.28 3.791 3.791 0 0 1-.44-1.82c0-.667.153-1.267.46-1.8a3.52 3.52 0 0 1 1.24-1.3 3.393 3.393 0 0 1 1.78-.48c.64 0 1.22.16 1.74.48.52.32.927.753 1.22 1.3a3.54 3.54 0 0 1 .46 1.8c0 .653-.153 1.253-.46 1.8-.293.547-.7.98-1.22 1.3-.52.32-1.1.48-1.74.48Zm11.464 2.06h1.78l2.56-8.12 2.56 8.12h1.78l3.7-10.78h-2.04l-2.6 7.9-2.52-7.9h-1.76l-2.52 7.9-2.58-7.9h-2.06l3.7 10.78Zm13.783 0h8.44v-1.78h-5.86l5.82-7.42v-1.58h-8.08v1.78h5.56l-5.88 7.42v1.58Zm15.499.24c1 0 1.887-.213 2.66-.64a4.76 4.76 0 0 0 1.82-1.74c.44-.733.66-1.553.66-2.46 0-.813-.173-1.54-.52-2.18a3.94 3.94 0 0 0-1.42-1.54c-.6-.4-1.293-.647-2.08-.74l3.4-4.2v-1.64h-8.82v1.7h6.6l-3.98 4.86.42.9c.16-.04.354-.073.58-.1.227-.04.447-.06.66-.06.934 0 1.7.267 2.3.8.6.52.9 1.267.9 2.24 0 .96-.3 1.707-.9 2.24-.586.533-1.346.8-2.28.8a3.641 3.641 0 0 1-2.08-.62c-.6-.427-1.04-1.007-1.32-1.74l-1.66.68a4.68 4.68 0 0 0 1.9 2.52c.934.613 1.987.92 3.16.92Zm13.467 0c.8 0 1.527-.153 2.18-.46.667-.32 1.2-.773 1.6-1.36v1.58h1.82V391h-1.88v5.8a4.149 4.149 0 0 0-1.58-1.24c-.64-.293-1.353-.44-2.14-.44-1.013 0-1.926.247-2.74.74a5.331 5.331 0 0 0-1.9 2.02c-.466.84-.7 1.8-.7 2.88 0 1.067.234 2.027.7 2.88a5.37 5.37 0 0 0 1.9 2c.814.493 1.727.74 2.74.74Zm.16-1.8c-.68 0-1.286-.167-1.82-.5a3.545 3.545 0 0 1-1.26-1.36 4.175 4.175 0 0 1-.46-1.96c0-.733.154-1.387.46-1.96a3.505 3.505 0 0 1 1.26-1.38 3.433 3.433 0 0 1 1.82-.5c.68 0 1.287.173 1.82.52a3.53 3.53 0 0 1 1.26 1.36c.32.573.48 1.227.48 1.96 0 .72-.16 1.373-.48 1.96a3.53 3.53 0 0 1-1.26 1.36c-.533.333-1.14.5-1.82.5Zm9.119 1.56h1.86V391h-1.86v15.14Zm10.406.24c1 0 1.88-.2 2.64-.6.774-.4 1.374-.94 1.8-1.62a4.24 4.24 0 0 0 .66-2.32c0-.84-.213-1.593-.64-2.26-.426-.667-1.026-1.187-1.8-1.56.52-.333.934-.767 1.24-1.3.307-.547.46-1.147.46-1.8 0-.76-.186-1.433-.56-2.02a3.78 3.78 0 0 0-1.56-1.4c-.653-.333-1.4-.5-2.24-.5-.84 0-1.593.173-2.26.52-.653.333-1.173.8-1.56 1.4-.373.587-.56 1.253-.56 2 0 .627.147 1.22.44 1.78.294.547.714.987 1.26 1.32-.76.36-1.353.873-1.78 1.54-.426.667-.64 1.427-.64 2.28 0 .853.214 1.627.64 2.32.44.68 1.04 1.22 1.8 1.62.774.4 1.66.6 2.66.6Zm0-9.12c-.693 0-1.273-.213-1.74-.64-.453-.427-.68-.98-.68-1.66 0-.667.227-1.207.68-1.62.467-.427 1.047-.64 1.74-.64.68 0 1.247.213 1.7.64.454.413.68.953.68 1.62 0 .68-.226 1.233-.68 1.66-.453.427-1.02.64-1.7.64Zm0 7.42c-.933 0-1.686-.26-2.26-.78-.573-.533-.86-1.227-.86-2.08 0-.867.287-1.56.86-2.08.574-.52 1.327-.78 2.26-.78.934 0 1.687.26 2.26.78.574.52.86 1.213.86 2.08 0 .853-.286 1.547-.86 2.08-.573.52-1.326.78-2.26.78Zm13.418 1.7c.8 0 1.527-.153 2.18-.46.667-.32 1.2-.773 1.6-1.36v1.58h1.82V391h-1.88v5.8a4.149 4.149 0 0 0-1.58-1.24c-.64-.293-1.353-.44-2.14-.44-1.013 0-1.926.247-2.74.74a5.331 5.331 0 0 0-1.9 2.02c-.466.84-.7 1.8-.7 2.88 0 1.067.234 2.027.7 2.88a5.37 5.37 0 0 0 1.9 2c.814.493 1.727.74 2.74.74Zm.16-1.8c-.68 0-1.286-.167-1.82-.5a3.545 3.545 0 0 1-1.26-1.36 4.175 4.175 0 0 1-.46-1.96c0-.733.154-1.387.46-1.96a3.505 3.505 0 0 1 1.26-1.38 3.433 3.433 0 0 1 1.82-.5c.68 0 1.287.173 1.82.52a3.53 3.53 0 0 1 1.26 1.36c.32.573.48 1.227.48 1.96 0 .72-.16 1.373-.48 1.96a3.53 3.53 0 0 1-1.26 1.36c-.533.333-1.14.5-1.82.5Zm9.119 1.56h1.86V391h-1.86v15.14Zm8.026 0h1.78l2.56-8.12 2.56 8.12h1.78l3.7-10.78h-2.04l-2.6 7.9-2.52-7.9h-1.76l-2.52 7.9-2.58-7.9h-2.06l3.7 10.78Zm19.649.24c.706 0 1.366-.127 1.98-.38a4.981 4.981 0 0 0 1.62-1.04c.453-.44.793-.933 1.02-1.48l-1.66-.84a3.266 3.266 0 0 1-1.161 1.42c-.506.347-1.106.52-1.799.52a3.291 3.291 0 0 1-1.78-.5 3.59 3.59 0 0 1-1.24-1.36 4.163 4.163 0 0 1-.46-1.96c0-.747.153-1.407.46-1.98a3.59 3.59 0 0 1 1.24-1.36 3.291 3.291 0 0 1 1.78-.5c.68 0 1.279.18 1.799.54.521.347.907.8 1.161 1.36l1.66-.8a4.233 4.233 0 0 0-1.041-1.5 4.756 4.756 0 0 0-1.599-1.02 5.146 5.146 0 0 0-1.98-.38c-1.054 0-1.994.247-2.82.74a5.125 5.125 0 0 0-1.92 2c-.467.84-.7 1.8-.7 2.88 0 1.067.233 2.027.7 2.88a5.269 5.269 0 0 0 1.92 2.02c.826.493 1.766.74 2.82.74Zm7.85-.24h1.86v-6.38c0-.88.247-1.573.74-2.08.507-.507 1.134-.76 1.88-.76.747 0 1.36.253 1.84.76.494.493.74 1.187.74 2.08v6.38h1.88v-6.98c0-.773-.18-1.46-.54-2.06a3.732 3.732 0 0 0-1.44-1.44c-.6-.36-1.286-.54-2.06-.54-.653 0-1.246.133-1.78.4-.52.253-.94.62-1.26 1.1V391h-1.86v15.14Zm15.562.24c.787 0 1.493-.147 2.12-.44.626-.307 1.133-.707 1.52-1.2v1.4h1.82v-7.32c0-.733-.18-1.373-.54-1.92a3.471 3.471 0 0 0-1.46-1.3c-.627-.32-1.353-.48-2.18-.48-.64 0-1.253.113-1.84.34a4.88 4.88 0 0 0-1.54.94c-.44.387-.76.827-.96 1.32l1.62.84c.226-.507.573-.92 1.04-1.24.467-.32 1.013-.48 1.64-.48.706 0 1.273.187 1.7.56.44.36.66.833.66 1.42v.5l-3.68.6c-1.214.2-2.107.607-2.68 1.22-.56.6-.84 1.327-.84 2.18 0 .907.333 1.647 1 2.22.68.56 1.547.84 2.6.84Zm-1.64-3.12c0-.467.153-.86.46-1.18.32-.32.826-.54 1.52-.66l3.26-.54v.68c0 .6-.14 1.147-.42 1.64a3.13 3.13 0 0 1-1.18 1.18c-.507.28-1.1.42-1.78.42-.533 0-.98-.147-1.34-.44a1.381 1.381 0 0 1-.52-1.1Zm13.944 3.12c.786 0 1.493-.147 2.12-.44.626-.307 1.133-.707 1.52-1.2v1.4h1.82v-7.32c0-.733-.18-1.373-.54-1.92a3.471 3.471 0 0 0-1.46-1.3c-.627-.32-1.354-.48-2.18-.48-.64 0-1.254.113-1.84.34a4.88 4.88 0 0 0-1.54.94c-.44.387-.76.827-.96 1.32l1.62.84c.226-.507.573-.92 1.04-1.24.466-.32 1.013-.48 1.64-.48.706 0 1.273.187 1.7.56.44.36.66.833.66 1.42v.5l-3.68.6c-1.214.2-2.107.607-2.68 1.22-.56.6-.84 1.327-.84 2.18 0 .907.333 1.647 1 2.22.68.56 1.546.84 2.6.84Zm-1.64-3.12c0-.467.153-.86.46-1.18.32-.32.826-.54 1.52-.66l3.26-.54v.68c0 .6-.14 1.147-.42 1.64-.28.493-.674.887-1.18 1.18-.507.28-1.1.42-1.78.42-.534 0-.98-.147-1.34-.44a1.381 1.381 0 0 1-.52-1.1Zm13.264 2.88h1.78l2.56-8.12 2.56 8.12h1.78l3.7-10.78h-2.04l-2.6 7.9-2.52-7.9h-1.76l-2.52 7.9-2.58-7.9h-2.06l3.7 10.78Zm19.283.24c1 0 1.887-.213 2.66-.64a4.767 4.767 0 0 0 1.82-1.74c.44-.733.66-1.553.66-2.46 0-.813-.173-1.54-.52-2.18a3.947 3.947 0 0 0-1.42-1.54c-.6-.4-1.293-.647-2.08-.74l3.4-4.2v-1.64h-8.82v1.7h6.6l-3.98 4.86.42.9c.16-.04.353-.073.58-.1.227-.04.447-.06.66-.06.933 0 1.7.267 2.3.8.6.52.9 1.267.9 2.24 0 .96-.3 1.707-.9 2.24-.587.533-1.347.8-2.28.8a3.639 3.639 0 0 1-2.08-.62c-.6-.427-1.04-1.007-1.32-1.74l-1.66.68a4.68 4.68 0 0 0 1.9 2.52c.933.613 1.987.92 3.16.92Zm13.527 0c1.107 0 2.067-.26 2.88-.78.813-.52 1.387-1.153 1.72-1.9l-1.56-.8c-.307.52-.707.947-1.2 1.28-.493.333-1.1.5-1.82.5-.6 0-1.16-.133-1.68-.4a3.543 3.543 0 0 1-1.26-1.18c-.32-.507-.493-1.107-.52-1.8h8.24c.067-.36.1-.693.1-1 0-.893-.2-1.733-.6-2.52a4.908 4.908 0 0 0-1.74-1.92c-.747-.493-1.653-.74-2.72-.74-1 0-1.893.24-2.68.72-.787.48-1.413 1.147-1.88 2-.453.84-.68 1.8-.68 2.88 0 1.08.233 2.047.7 2.9a5.284 5.284 0 0 0 1.92 2.02c.813.493 1.74.74 2.78.74Zm-.16-9.6c.547 0 1.047.127 1.5.38.453.24.82.58 1.1 1.02.28.44.427.947.44 1.52h-6.28c.133-.907.507-1.62 1.12-2.14.613-.52 1.32-.78 2.12-.78Zm16.905 13.36h1.88v-14.78h-1.82v1.52a4.204 4.204 0 0 0-1.6-1.28c-.64-.32-1.366-.48-2.18-.48-1.013 0-1.926.247-2.74.74a5.331 5.331 0 0 0-1.9 2.02c-.466.84-.7 1.8-.7 2.88 0 1.067.234 2.027.7 2.88a5.37 5.37 0 0 0 1.9 2c.814.493 1.727.74 2.74.74.774 0 1.487-.147 2.14-.44a3.978 3.978 0 0 0 1.58-1.3v5.5Zm-3.56-5.56c-.68 0-1.286-.167-1.82-.5a3.545 3.545 0 0 1-1.26-1.36 4.175 4.175 0 0 1-.46-1.96c0-.733.154-1.387.46-1.96a3.505 3.505 0 0 1 1.26-1.38 3.433 3.433 0 0 1 1.82-.5c.68 0 1.287.173 1.82.52a3.53 3.53 0 0 1 1.26 1.36c.32.573.48 1.227.48 1.96 0 .72-.16 1.373-.48 1.96a3.53 3.53 0 0 1-1.26 1.36c-.533.333-1.14.5-1.82.5Zm9.219 1.56h2.12l6.48-13.22v-1.7h-9.36v1.7h7.3l-6.54 13.22Zm11.657 0h1.86V391h-1.86v15.14Zm14.166 4h1.88v-14.78h-1.82v1.52a4.204 4.204 0 0 0-1.6-1.28c-.64-.32-1.366-.48-2.18-.48-1.013 0-1.926.247-2.74.74a5.331 5.331 0 0 0-1.9 2.02c-.466.84-.7 1.8-.7 2.88 0 1.067.234 2.027.7 2.88a5.37 5.37 0 0 0 1.9 2c.814.493 1.727.74 2.74.74.774 0 1.487-.147 2.14-.44a3.978 3.978 0 0 0 1.58-1.3v5.5Zm-3.56-5.56c-.68 0-1.286-.167-1.82-.5a3.545 3.545 0 0 1-1.26-1.36 4.175 4.175 0 0 1-.46-1.96c0-.733.154-1.387.46-1.96a3.505 3.505 0 0 1 1.26-1.38 3.433 3.433 0 0 1 1.82-.5c.68 0 1.287.173 1.82.52a3.53 3.53 0 0 1 1.26 1.36c.32.573.48 1.227.48 1.96 0 .72-.16 1.373-.48 1.96a3.53 3.53 0 0 1-1.26 1.36c-.533.333-1.14.5-1.82.5Zm9.699 5.96c.707 0 1.307-.14 1.8-.42.507-.28.934-.66 1.28-1.14.36-.467.654-.987.88-1.56l4.86-12.06h-2.06l-3.26 8.42-3.28-8.42h-2.02l4.28 10.8-.32.78c-.293.667-.606 1.14-.94 1.42-.32.28-.793.42-1.42.42-.213 0-.433-.02-.66-.06a10.19 10.19 0 0 1-.54-.08v1.66c.214.093.44.153.68.18.24.04.48.06.72.06Zm10.055-4.4h2.28l2.62-3.86 2.62 3.86h2.24l-3.74-5.4 3.76-5.38h-2.26l-2.62 3.84-2.64-3.84h-2.24l3.76 5.38-3.78 5.4Zm12.235 4h1.86v-5.5c.413.56.94.993 1.58 1.3.653.293 1.366.44 2.14.44 1.026 0 1.94-.247 2.74-.74a5.322 5.322 0 0 0 1.92-2c.466-.853.7-1.813.7-2.88 0-1.08-.234-2.04-.7-2.88a5.331 5.331 0 0 0-1.9-2.02c-.8-.493-1.714-.74-2.74-.74-.814 0-1.547.16-2.2.48a4.246 4.246 0 0 0-1.58 1.28v-1.52h-1.82v14.78Zm5.44-5.56a3.428 3.428 0 0 1-1.82-.5 3.638 3.638 0 0 1-1.3-1.36 4.163 4.163 0 0 1-.46-1.96c0-.733.153-1.387.46-1.96a3.638 3.638 0 0 1 1.3-1.36 3.324 3.324 0 0 1 1.82-.52c.68 0 1.28.167 1.8.5.533.333.953.793 1.26 1.38.306.573.46 1.227.46 1.96 0 .72-.154 1.373-.46 1.96a3.545 3.545 0 0 1-1.26 1.36c-.52.333-1.12.5-1.8.5Zm12.599 1.8c.773 0 1.453-.133 2.04-.4.586-.267 1.046-.633 1.38-1.1.333-.48.5-1.027.5-1.64 0-.747-.247-1.387-.74-1.92-.494-.533-1.174-.927-2.04-1.18l-1.76-.52a8.085 8.085 0 0 1-.66-.24 1.714 1.714 0 0 1-.58-.44c-.16-.2-.24-.453-.24-.76 0-.427.16-.773.48-1.04.333-.267.766-.4 1.3-.4.586 0 1.12.167 1.6.5.493.32.86.76 1.1 1.32l1.52-.7a3.928 3.928 0 0 0-1.62-2.02c-.747-.48-1.594-.72-2.54-.72-.707 0-1.347.133-1.92.4-.56.267-1.007.64-1.34 1.12-.32.467-.48 1.02-.48 1.66 0 .693.22 1.307.66 1.84.453.52 1.166.913 2.14 1.18l1.62.46c.226.053.46.14.7.26.253.107.466.26.64.46.186.187.28.44.28.76 0 .453-.194.82-.58 1.1-.387.28-.874.42-1.46.42a3.11 3.11 0 0 1-1.78-.54c-.534-.373-.954-.887-1.26-1.54l-1.48.72c.333.907.9 1.627 1.7 2.16.8.533 1.74.8 2.82.8Zm7.155-.24h1.859v-6.38c0-.88.247-1.573.741-2.08.506-.507 1.133-.76 1.88-.76.746 0 1.36.253 1.84.76.493.493.74 1.187.74 2.08v6.38h1.88v-6.98c0-.773-.18-1.46-.54-2.06a3.745 3.745 0 0 0-1.44-1.44c-.6-.36-1.287-.54-2.06-.54-.654 0-1.247.133-1.78.4-.52.253-.941.62-1.261 1.1V391h-1.859v15.14Zm15.206 0h1.76l4.24-10.78h-2.08l-3.04 8.16-3.02-8.16h-2.08l4.22 10.78Zm16.889 4h1.879v-14.78h-1.819v1.52a4.219 4.219 0 0 0-1.6-1.28c-.64-.32-1.367-.48-2.18-.48-1.014 0-1.927.247-2.741.74a5.331 5.331 0 0 0-1.9 2.02c-.466.84-.7 1.8-.7 2.88 0 1.067.234 2.027.7 2.88a5.37 5.37 0 0 0 1.9 2c.814.493 1.727.74 2.741.74.773 0 1.486-.147 2.14-.44a3.985 3.985 0 0 0 1.58-1.3v5.5Zm-3.56-5.56c-.68 0-1.287-.167-1.82-.5a3.54 3.54 0 0 1-1.261-1.36 4.175 4.175 0 0 1-.46-1.96c0-.733.154-1.387.46-1.96a3.5 3.5 0 0 1 1.261-1.38 3.428 3.428 0 0 1 1.82-.5c.68 0 1.286.173 1.819.52a3.54 3.54 0 0 1 1.261 1.36c.32.573.48 1.227.48 1.96 0 .72-.16 1.373-.48 1.96a3.54 3.54 0 0 1-1.261 1.36c-.533.333-1.139.5-1.819.5Z" fill="#000"/><path fill="#FAADA9" fill-opacity=".12" d="M175 493h161.688v50H175z"/><path d="m217.693 512.36 2.947 2.946m-1.697-4.196a2.084 2.084 0 0 1 2.947 2.946l-11.473 11.474H207.5v-2.976l11.443-11.444Z" stroke="#000" stroke-width="1.5" stroke-linecap="round" stroke-linejoin="round"/><path d="m233 523.96 4.192-11.92h2.336l4.192 11.92h-2.016l-.912-2.672h-4.848l-.928 2.672H233Zm3.488-4.352h3.728l-2.112-6.24h.528l-2.144 6.24Zm9.286 4.352v-11.92h1.76l4.48 6.208h-.88l4.4-6.208h1.76v11.92h-1.872v-9.696l.704.192-4.496 6.144h-.192l-4.4-6.144.624-.192v9.696h-1.888Zm20.417.192c-.864 0-1.67-.155-2.417-.464a6.195 6.195 0 0 1-1.951-1.296 6.173 6.173 0 0 1-1.313-1.952 6.342 6.342 0 0 1-.464-2.448c0-.886.155-1.702.464-2.448a5.925 5.925 0 0 1 1.313-1.952 5.728 5.728 0 0 1 1.951-1.28 6.243 6.243 0 0 1 2.417-.464c.874 0 1.68.154 2.416.464a5.742 5.742 0 0 1 1.952 1.28 5.834 5.834 0 0 1 1.312 1.952c.309.746.464 1.562.464 2.448 0 .885-.16 1.701-.48 2.448a5.981 5.981 0 0 1-1.296 1.952 5.981 5.981 0 0 1-1.952 1.296 6.257 6.257 0 0 1-2.416.464Zm0-1.728c.618 0 1.184-.112 1.696-.336a4.182 4.182 0 0 0 1.36-.928c.384-.406.682-.875.896-1.408.213-.544.32-1.131.32-1.76 0-.63-.107-1.211-.32-1.744a4.405 4.405 0 0 0-.896-1.408 4.046 4.046 0 0 0-1.36-.944 4.188 4.188 0 0 0-1.696-.336c-.619 0-1.19.112-1.712.336-.512.224-.96.538-1.344.944a4.388 4.388 0 0 0-.896 1.408 4.86 4.86 0 0 0-.305 1.744c0 .629.102 1.216.305 1.76a4.41 4.41 0 0 0 .896 1.408c.384.394.837.704 1.36.928a4.257 4.257 0 0 0 1.696.336Zm13.358 1.728c-.885 0-1.674-.187-2.368-.56a4.24 4.24 0 0 1-1.616-1.536c-.384-.651-.576-1.392-.576-2.224v-7.792h1.888v7.712c0 .522.112.986.336 1.392.235.405.55.72.944.944.406.224.87.336 1.392.336.534 0 .998-.112 1.392-.336.406-.224.72-.539.944-.944.235-.406.352-.87.352-1.392v-7.712h1.872v7.792c0 .832-.192 1.573-.576 2.224a4.083 4.083 0 0 1-1.616 1.536c-.682.373-1.472.56-2.368.56Zm7.567-.192v-11.92h1.52l6.688 9.232-.72.112v-9.344h1.872v11.92h-1.52l-6.64-9.296.688-.128v9.424h-1.888Zm14.58 0v-10.24h-3.168v-1.68h8.16v1.68h-3.12v10.24h-1.872Z" fill="#000"/><path fill="#FAADA9" fill-opacity=".12" d="M368.688 493h157.434v50H368.688z"/><path d="M413.521 514.666h8.334M413.521 518h3.334m.833 6.666-3.333-3.333h-2.5a1.667 1.667 0 0 1-1.667-1.667V513c0-.921.746-1.667 1.667-1.667h11.666c.921 0 1.667.746 1.667 1.667v6.666c0 .921-.746 1.667-1.667 1.667h-2.5l-3.333 3.333Z" stroke="#000" stroke-width="1.5" stroke-linecap="round" stroke-linejoin="round"/><path d="M435.688 523.96v-11.92h1.76l4.48 6.208h-.88l4.4-6.208h1.76v11.92h-1.872v-9.696l.704.192-4.496 6.144h-.192l-4.4-6.144.624-.192v9.696h-1.888Zm14.624 0v-11.92h7.856v1.68H452.2v3.424h5.648v1.68H452.2v3.456h5.968v1.68h-7.856Zm10.25 0v-11.92h1.76l4.48 6.208h-.88l4.4-6.208h1.76v11.92h-1.872v-9.696l.704.192-4.496 6.144h-.192l-4.4-6.144.624-.192v9.696h-1.888Zm20.416.192a6.257 6.257 0 0 1-2.416-.464 6.2 6.2 0 0 1-1.952-1.296 6.17 6.17 0 0 1-1.312-1.952 6.342 6.342 0 0 1-.464-2.448c0-.886.155-1.702.464-2.448a5.922 5.922 0 0 1 1.312-1.952 5.732 5.732 0 0 1 1.952-1.28 6.238 6.238 0 0 1 2.416-.464c.875 0 1.68.154 2.416.464a5.732 5.732 0 0 1 1.952 1.28 5.82 5.82 0 0 1 1.312 1.952c.309.746.464 1.562.464 2.448 0 .885-.16 1.701-.48 2.448a5.95 5.95 0 0 1-1.296 1.952 5.97 5.97 0 0 1-1.952 1.296 6.257 6.257 0 0 1-2.416.464Zm0-1.728c.619 0 1.184-.112 1.696-.336a4.171 4.171 0 0 0 1.36-.928 4.41 4.41 0 0 0 .896-1.408c.213-.544.32-1.131.32-1.76 0-.63-.107-1.211-.32-1.744a4.388 4.388 0 0 0-.896-1.408 4.036 4.036 0 0 0-1.36-.944 4.185 4.185 0 0 0-1.696-.336 4.3 4.3 0 0 0-1.712.336c-.512.224-.96.538-1.344.944a4.388 4.388 0 0 0-.896 1.408 4.86 4.86 0 0 0-.304 1.744c0 .629.101 1.216.304 1.76a4.41 4.41 0 0 0 .896 1.408c.384.394.837.704 1.36.928a4.26 4.26 0 0 0 1.696.336Z" fill="#000"/><path fill="#FAADA9" fill-opacity=".12" d="M558.122 493H719.87v50H558.122z"/><path d="M607.789 521.333h-1.667c-.92 0-1.666-.746-1.666-1.667V513c0-.921.746-1.667 1.666-1.667h6.667c.92 0 1.667.746 1.667 1.667v1.666m-5 10h6.666c.921 0 1.667-.746 1.667-1.666v-6.667c0-.92-.746-1.667-1.667-1.667h-6.666c-.921 0-1.667.747-1.667 1.667V523c0 .92.746 1.666 1.667 1.666Z" stroke="#000" stroke-width="1.5" stroke-linecap="round" stroke-linejoin="round"/><path d="M635.026 524.152a5.936 5.936 0 0 1-2.352-.464 5.849 5.849 0 0 1-1.872-1.28 6.149 6.149 0 0 1-1.232-1.952c-.299-.747-.448-1.568-.448-2.464 0-.886.144-1.702.432-2.448a5.784 5.784 0 0 1 1.248-1.952 5.503 5.503 0 0 1 1.872-1.28c.715-.31 1.499-.464 2.352-.464.843 0 1.595.144 2.256.432a5.196 5.196 0 0 1 1.696 1.136c.459.458.789.96.992 1.504l-1.696.8a3.388 3.388 0 0 0-1.232-1.552c-.555-.406-1.227-.608-2.016-.608-.789 0-1.488.186-2.096.56a3.844 3.844 0 0 0-1.424 1.552c-.331.661-.496 1.434-.496 2.32 0 .885.165 1.664.496 2.336a3.857 3.857 0 0 0 1.424 1.552c.608.362 1.307.544 2.096.544.789 0 1.461-.198 2.016-.592a3.393 3.393 0 0 0 1.232-1.552l1.696.8c-.203.533-.533 1.034-.992 1.504a5.211 5.211 0 0 1-1.696 1.136c-.661.288-1.413.432-2.256.432Zm13.318 0c-.864 0-1.67-.155-2.416-.464a6.2 6.2 0 0 1-1.952-1.296 6.17 6.17 0 0 1-1.312-1.952 6.324 6.324 0 0 1-.464-2.448c0-.886.154-1.702.464-2.448a5.922 5.922 0 0 1 1.312-1.952 5.722 5.722 0 0 1 1.952-1.28 6.235 6.235 0 0 1 2.416-.464c.874 0 1.68.154 2.416.464a5.742 5.742 0 0 1 1.952 1.28 5.834 5.834 0 0 1 1.312 1.952c.309.746.464 1.562.464 2.448 0 .885-.16 1.701-.48 2.448a5.981 5.981 0 0 1-1.296 1.952 5.981 5.981 0 0 1-1.952 1.296 6.257 6.257 0 0 1-2.416.464Zm0-1.728c.618 0 1.184-.112 1.696-.336a4.182 4.182 0 0 0 1.36-.928c.384-.406.682-.875.896-1.408.213-.544.32-1.131.32-1.76 0-.63-.107-1.211-.32-1.744a4.405 4.405 0 0 0-.896-1.408 4.046 4.046 0 0 0-1.36-.944 4.188 4.188 0 0 0-1.696-.336c-.619 0-1.19.112-1.712.336-.512.224-.96.538-1.344.944a4.388 4.388 0 0 0-.896 1.408 4.86 4.86 0 0 0-.304 1.744c0 .629.101 1.216.304 1.76a4.41 4.41 0 0 0 .896 1.408c.384.394.837.704 1.36.928a4.257 4.257 0 0 0 1.696.336Zm8.894 1.536v-11.92h4.336c.8 0 1.504.149 2.112.448a3.226 3.226 0 0 1 1.44 1.28c.342.554.512 1.221.512 2 0 .768-.176 1.429-.528 1.984a3.388 3.388 0 0 1-1.424 1.28c-.608.298-1.312.448-2.112.448h-2.448v4.48h-1.888Zm1.888-6.16h2.496c.427 0 .8-.086 1.12-.256a1.92 1.92 0 0 0 .752-.704c.182-.31.272-.672.272-1.088 0-.416-.09-.774-.272-1.072a1.768 1.768 0 0 0-.752-.704c-.32-.171-.693-.256-1.12-.256h-2.496v4.08Zm11.808 6.16v-5.376l-4.08-6.544h2.128l3.264 5.296h-.752l3.248-5.296h2.128l-4.064 6.544v5.376h-1.872Z" fill="#000"/><path fill="#FAADA9" fill-opacity=".12" d="M751.87 493h162.06v50H751.87z"/><path d="M788.62 511.333a.75.75 0 0 0-1.5 0h1.5Zm-1.5.833a.75.75 0 1 0 1.5 0h-1.5Zm5.75 8.417a.75.75 0 0 0 0 1.5v-1.5Zm1.667 1.5a.75.75 0 0 0 0-1.5v1.5Zm-6.667-.75v-.75a.75.75 0 0 0-.75.75h.75Zm1.667.75a.75.75 0 0 0 0-1.5v1.5Zm-2.417 2.583a.75.75 0 1 0 1.5 0h-1.5Zm1.5-9.166a.75.75 0 1 0-1.5 0h1.5Zm-.75 2.5h-.75c0 .414.336.75.75.75V518Zm3.334 5.916a.75.75 0 1 0 0 1.5v-1.5Zm3.333 1.5a.75.75 0 1 0 0-1.5v1.5Zm-13.333-8.166a.749.749 0 1 0 0 1.5v-1.5Zm3.333 1.5a.75.75 0 0 0 0-1.5v1.5Zm3.342 0a.75.75 0 0 0 0-1.5v1.5Zm3.333 0a.75.75 0 0 0 0-1.5v1.5Zm3.325-1.5a.75.75 0 1 0 0 1.5v-1.5Zm.008 1.5a.75.75 0 0 0 0-1.5v1.5Zm-12.508-6.667h1.667v-1.5h-1.667v1.5Zm1.75.083v1.667h1.5v-1.667h-1.5Zm-.083 1.75h-1.667v1.5h1.667v-1.5Zm-1.75-.083v-1.667h-1.5v1.667h1.5Zm.083.083a.083.083 0 0 1-.083-.083h-1.5c0 .874.708 1.583 1.583 1.583v-1.5Zm1.75-.083a.083.083 0 0 1-.083.083v1.5c.874 0 1.583-.709 1.583-1.583h-1.5Zm-.083-1.75c.046 0 .083.037.083.083h1.5c0-.874-.709-1.583-1.583-1.583v1.5Zm-1.667-1.5c-.875 0-1.583.709-1.583 1.583h1.5c0-.046.037-.083.083-.083v-1.5Zm10 1.5h1.667v-1.5h-1.667v1.5Zm1.75.083v1.667h1.5v-1.667h-1.5Zm-.083 1.75h-1.667v1.5h1.667v-1.5Zm-1.75-.083v-1.667h-1.5v1.667h1.5Zm.083.083a.083.083 0 0 1-.083-.083h-1.5c0 .874.708 1.583 1.583 1.583v-1.5Zm1.75-.083a.083.083 0 0 1-.083.083v1.5c.874 0 1.583-.709 1.583-1.583h-1.5Zm-.083-1.75c.046 0 .083.037.083.083h1.5c0-.874-.709-1.583-1.583-1.583v1.5Zm-1.667-1.5c-.875 0-1.583.709-1.583 1.583h1.5c0-.046.037-.083.083-.083v-1.5Zm-10 11.5h1.667v-1.5h-1.667v1.5Zm1.75.083v1.667h1.5v-1.667h-1.5Zm-.083 1.75h-1.667v1.5h1.667v-1.5Zm-1.75-.083v-1.667h-1.5v1.667h1.5Zm.083.083a.083.083 0 0 1-.083-.083h-1.5c0 .874.708 1.583 1.583 1.583v-1.5Zm1.75-.083a.083.083 0 0 1-.083.083v1.5c.874 0 1.583-.709 1.583-1.583h-1.5Zm-.083-1.75c.046 0 .083.037.083.083h1.5c0-.874-.709-1.583-1.583-1.583v1.5Zm-1.667-1.5c-.875 0-1.583.709-1.583 1.583h1.5c0-.046.037-.083.083-.083v-1.5Zm5.083-9.25v.833h1.5v-.833h-1.5Zm5.75 10.75h1.667v-1.5h-1.667v1.5Zm-5 0h1.667v-1.5h-1.667v1.5Zm-.75-.75v3.333h1.5v-3.333h-1.5Zm0-5.833v2.5h1.5v-2.5h-1.5Zm4.084 9.916h3.333v-1.5h-3.333v1.5Zm-10-6.666h3.333v-1.5h-3.333v1.5Zm6.666 0h.009v-1.5h-.009v1.5Zm6.667 0h.008v-1.5h-.008v1.5Zm-6.667 0h3.342v-1.5h-3.342v1.5Zm22.704 4.778c-.747 0-1.44-.139-2.08-.416a4.915 4.915 0 0 1-1.632-1.168 4.68 4.68 0 0 1-.992-1.696l1.6-.672c.288.736.709 1.301 1.264 1.696.555.394 1.195.592 1.92.592.427 0 .8-.064 1.12-.192a1.69 1.69 0 0 0 .736-.576c.181-.246.272-.528.272-.848 0-.438-.123-.784-.368-1.04s-.608-.459-1.088-.608l-2.24-.704c-.896-.278-1.579-.699-2.048-1.264a3.098 3.098 0 0 1-.704-2.016c0-.672.165-1.259.496-1.76a3.383 3.383 0 0 1 1.36-1.2c.587-.288 1.253-.432 2-.432a4.83 4.83 0 0 1 1.952.384 4.362 4.362 0 0 1 1.504 1.024c.427.437.736.944.928 1.52l-1.568.688c-.235-.63-.603-1.115-1.104-1.456-.491-.342-1.061-.512-1.712-.512a2.44 2.44 0 0 0-1.04.208c-.299.128-.533.32-.704.576-.16.245-.24.533-.24.864 0 .384.123.725.368 1.024.245.298.619.522 1.12.672l2.08.656c.949.288 1.664.704 2.144 1.248.48.533.72 1.2.72 2 0 .661-.176 1.248-.528 1.76-.341.512-.816.917-1.424 1.216-.608.288-1.312.432-2.112.432Zm6.823-.192v-11.92h1.888v5.248h5.52v-5.248h1.872v11.92h-1.872v-4.992h-5.52v4.992h-1.888Zm18.182.192a6.257 6.257 0 0 1-2.416-.464 6.21 6.21 0 0 1-1.952-1.296 6.187 6.187 0 0 1-1.312-1.952 6.342 6.342 0 0 1-.464-2.448c0-.886.155-1.702.464-2.448a5.937 5.937 0 0 1 1.312-1.952 5.742 5.742 0 0 1 1.952-1.28 6.238 6.238 0 0 1 2.416-.464c.875 0 1.68.154 2.416.464a5.722 5.722 0 0 1 1.952 1.28 5.805 5.805 0 0 1 1.312 1.952c.31.746.464 1.562.464 2.448 0 .885-.16 1.701-.48 2.448a5.95 5.95 0 0 1-1.296 1.952 5.96 5.96 0 0 1-1.952 1.296 6.253 6.253 0 0 1-2.416.464Zm0-1.728c.619 0 1.184-.112 1.696-.336a4.171 4.171 0 0 0 1.36-.928 4.41 4.41 0 0 0 .896-1.408c.214-.544.32-1.131.32-1.76 0-.63-.106-1.211-.32-1.744a4.388 4.388 0 0 0-.896-1.408 4.036 4.036 0 0 0-1.36-.944 4.185 4.185 0 0 0-1.696-.336c-.618 0-1.189.112-1.712.336-.512.224-.96.538-1.344.944a4.405 4.405 0 0 0-.896 1.408 4.881 4.881 0 0 0-.304 1.744c0 .629.102 1.216.304 1.76.214.533.512 1.002.896 1.408.384.394.838.704 1.36.928a4.26 4.26 0 0 0 1.696.336Zm10.807 1.536-3.28-11.92h2l2.656 10.32h-.496l2.752-10.32h1.968l2.752 10.32h-.512l2.672-10.32h1.984l-3.264 11.92h-2.128l-2.768-10.16h.56l-2.784 10.16h-2.112Zm23.77.192c-.864 0-1.67-.155-2.416-.464a6.2 6.2 0 0 1-1.952-1.296 6.17 6.17 0 0 1-1.312-1.952 6.324 6.324 0 0 1-.464-2.448c0-.886.154-1.702.464-2.448a5.922 5.922 0 0 1 1.312-1.952 5.722 5.722 0 0 1 1.952-1.28 6.235 6.235 0 0 1 2.416-.464c.874 0 1.68.154 2.416.464a5.742 5.742 0 0 1 1.952 1.28 5.834 5.834 0 0 1 1.312 1.952c.309.746.464 1.562.464 2.448 0 .885-.16 1.701-.48 2.448a5.981 5.981 0 0 1-1.296 1.952 5.981 5.981 0 0 1-1.952 1.296 6.257 6.257 0 0 1-2.416.464Zm0-1.728c.618 0 1.184-.112 1.696-.336a4.182 4.182 0 0 0 1.36-.928c.384-.406.682-.875.896-1.408.213-.544.32-1.131.32-1.76 0-.63-.107-1.211-.32-1.744a4.405 4.405 0 0 0-.896-1.408 4.046 4.046 0 0 0-1.36-.944 4.188 4.188 0 0 0-1.696-.336c-.619 0-1.19.112-1.712.336-.512.224-.96.538-1.344.944a4.388 4.388 0 0 0-.896 1.408 4.86 4.86 0 0 0-.304 1.744c0 .629.101 1.216.304 1.76a4.41 4.41 0 0 0 .896 1.408c.384.394.837.704 1.36.928a4.257 4.257 0 0 0 1.696.336Zm2.992 2.976-3.904-6.208h2.016l3.92 6.208h-2.032Zm5.903-1.44v-11.92h4.336c.8 0 1.504.149 2.112.448a3.25 3.25 0 0 1 1.424 1.28c.352.554.528 1.221.528 2 0 .821-.208 1.525-.624 2.112a3.471 3.471 0 0 1-1.648 1.28l2.752 4.8h-2.144l-2.928-5.2 1.232.72h-3.152v4.48h-1.888Zm1.888-6.16h2.48c.437 0 .816-.086 1.136-.256.32-.171.565-.406.736-.704.181-.31.272-.672.272-1.088 0-.416-.091-.774-.272-1.072a1.675 1.675 0 0 0-.736-.704c-.32-.171-.699-.256-1.136-.256h-2.48v4.08Z" fill="#000"/><path fill="#FAADA9" fill-opacity=".12" d="M945.93 493h160.37v50H945.93z"/><path d="M982.93 513v-1.667m0 1.667a1.666 1.666 0 0 0 0 3.333m0-3.333a1.666 1.666 0 1 1 0 3.333m-5 6.667a1.667 1.667 0 0 0 0-3.334m0 3.334a1.667 1.667 0 0 1 0-3.334m0 3.334v1.666m0-5v-8.333m5 5v8.333m5-1.666a1.667 1.667 0 0 0 0-3.334m0 3.334a1.667 1.667 0 0 1 0-3.334m0 3.334v1.666m0-5v-8.333" stroke="#000" stroke-width="1.5" stroke-linecap="round" stroke-linejoin="round"/><path d="m1000.93 523.96 4.19-11.92h2.34l4.19 11.92h-2.02l-.91-2.672h-4.85l-.92 2.672h-2.02Zm3.49-4.352h3.73l-2.12-6.24h.53l-2.14 6.24Zm9.28 4.352v-11.92h3.91c1.24 0 2.31.25 3.21.752a5.17 5.17 0 0 1 2.13 2.08c.5.896.75 1.936.75 3.12 0 1.173-.25 2.213-.75 3.12a5.28 5.28 0 0 1-2.13 2.096c-.9.501-1.97.752-3.21.752h-3.91Zm1.89-1.68h2.05c.84 0 1.57-.176 2.19-.528a3.621 3.621 0 0 0 1.46-1.488c.34-.64.51-1.398.51-2.272 0-.875-.18-1.627-.53-2.256a3.635 3.635 0 0 0-1.44-1.488c-.62-.352-1.35-.528-2.19-.528h-2.05v8.56Zm10.61 1.68v-11.92h3.91c1.24 0 2.31.25 3.21.752a5.17 5.17 0 0 1 2.13 2.08c.5.896.75 1.936.75 3.12 0 1.173-.25 2.213-.75 3.12a5.28 5.28 0 0 1-2.13 2.096c-.9.501-1.97.752-3.21.752h-3.91Zm1.89-1.68h2.05c.84 0 1.57-.176 2.19-.528a3.621 3.621 0 0 0 1.46-1.488c.34-.64.51-1.398.51-2.272 0-.875-.18-1.627-.53-2.256a3.635 3.635 0 0 0-1.44-1.488c-.62-.352-1.35-.528-2.19-.528h-2.05v8.56Zm10.61 1.68v-11.92h4.34c.8 0 1.5.149 2.11.448.61.288 1.08.714 1.43 1.28.35.554.52 1.221.52 2 0 .821-.2 1.525-.62 2.112a3.51 3.51 0 0 1-1.65 1.28l2.75 4.8h-2.14l-2.93-5.2 1.23.72h-3.15v4.48h-1.89Zm1.89-6.16h2.48c.44 0 .82-.086 1.14-.256.32-.171.56-.406.73-.704.18-.31.28-.672.28-1.088 0-.416-.1-.774-.28-1.072-.17-.31-.41-.544-.73-.704-.32-.171-.7-.256-1.14-.256h-2.48v4.08Zm9.22 6.16v-11.92h7.86v1.68h-5.97v3.424h5.65v1.68h-5.65v3.456h5.97v1.68h-7.86Zm14.43.192c-.75 0-1.44-.139-2.08-.416a4.827 4.827 0 0 1-1.63-1.168 4.77 4.77 0 0 1-1-1.696l1.6-.672c.29.736.71 1.301 1.27 1.696.55.394 1.19.592 1.92.592.42 0 .8-.064 1.12-.192.32-.139.56-.331.73-.576.18-.246.28-.528.28-.848 0-.438-.13-.784-.37-1.04-.25-.256-.61-.459-1.09-.608l-2.24-.704c-.9-.278-1.58-.699-2.05-1.264-.47-.576-.7-1.248-.7-2.016 0-.672.16-1.259.49-1.76.33-.512.79-.912 1.36-1.2.59-.288 1.26-.432 2-.432.72 0 1.37.128 1.96.384.58.245 1.08.586 1.5 1.024.43.437.74.944.93 1.52l-1.57.688c-.24-.63-.6-1.115-1.1-1.456-.5-.342-1.07-.512-1.72-.512-.39 0-.74.069-1.04.208-.3.128-.53.32-.7.576-.16.245-.24.533-.24.864 0 .384.12.725.37 1.024.24.298.62.522 1.12.672l2.08.656c.95.288 1.66.704 2.14 1.248.48.533.72 1.2.72 2 0 .661-.17 1.248-.53 1.76-.34.512-.81.917-1.42 1.216-.61.288-1.31.432-2.11.432Zm11 0c-.75 0-1.44-.139-2.08-.416a4.969 4.969 0 0 1-1.64-1.168 4.898 4.898 0 0 1-.99-1.696l1.6-.672c.29.736.71 1.301 1.27 1.696.55.394 1.19.592 1.92.592.42 0 .8-.064 1.12-.192.32-.139.56-.331.73-.576.18-.246.27-.528.27-.848 0-.438-.12-.784-.36-1.04-.25-.256-.61-.459-1.09-.608l-2.24-.704c-.9-.278-1.58-.699-2.05-1.264-.47-.576-.7-1.248-.7-2.016 0-.672.16-1.259.49-1.76.33-.512.79-.912 1.36-1.2.59-.288 1.26-.432 2-.432.72 0 1.37.128 1.95.384.59.245 1.09.586 1.51 1.024.43.437.73.944.93 1.52l-1.57.688c-.24-.63-.6-1.115-1.11-1.456-.49-.342-1.06-.512-1.71-.512-.39 0-.74.069-1.04.208-.3.128-.53.32-.7.576-.16.245-.24.533-.24.864 0 .384.12.725.37 1.024.24.298.62.522 1.12.672l2.08.656c.95.288 1.66.704 2.14 1.248.48.533.72 1.2.72 2 0 .661-.18 1.248-.53 1.76-.34.512-.81.917-1.42 1.216-.61.288-1.31.432-2.11.432Z" fill="#000"/><path fill="#FA8700" fill-opacity=".1" d="M437 257h132.754v50H437z"/><g clip-path="url(#a)"><path d="M474.701 284.418c-1.336 5.36-6.767 8.619-12.119 7.282-5.36-1.336-8.619-6.766-7.282-12.118a9.993 9.993 0 0 1 12.119-7.282c5.352 1.328 8.618 6.758 7.282 12.118Z" fill="url(#b)"/><path d="M469.761 280.754c.196-1.328-.812-2.047-2.203-2.524l.453-1.804-1.094-.274-.437 1.758c-.289-.07-.586-.14-.883-.203l.438-1.766-1.094-.273-.445 1.797c-.243-.055-.477-.11-.704-.164v-.008l-1.515-.375-.289 1.172s.812.187.797.195c.445.11.523.406.507.641l-.515 2.054c.031.008.07.016.117.04-.039-.008-.078-.016-.117-.032l-.719 2.875c-.055.133-.195.336-.5.258.008.016-.797-.195-.797-.195l-.547 1.258 1.43.359c.266.07.523.133.781.203l-.453 1.82 1.094.274.453-1.805c.297.078.594.156.875.227l-.445 1.797 1.093.273.454-1.82c1.875.351 3.281.211 3.867-1.485.476-1.359-.024-2.148-1.008-2.664.727-.164 1.266-.64 1.406-1.609Zm-2.508 3.516c-.336 1.359-2.632.625-3.375.437l.602-2.414c.742.187 3.133.555 2.773 1.977Zm.344-3.54c-.312 1.243-2.219.61-2.836.454l.547-2.188c.617.156 2.609.445 2.289 1.734Z" fill="#000"/></g><path d="M484.242 288v-11.92h5.024c.746 0 1.392.133 1.936.4.544.256.96.629 1.248 1.12.288.48.432 1.05.432 1.712 0 .576-.15 1.104-.448 1.584-.288.469-.742.842-1.36 1.12v-.8c.544.213.986.485 1.328.816.341.32.586.682.736 1.088.16.405.24.832.24 1.28 0 1.12-.368 2-1.104 2.64-.726.64-1.723.96-2.992.96h-5.04Zm1.888-1.68h3.296c.629 0 1.13-.171 1.504-.512.373-.352.56-.816.56-1.392 0-.587-.187-1.051-.56-1.392-.374-.352-.875-.528-1.504-.528h-3.296v3.824Zm0-5.488h3.184c.512 0 .922-.144 1.232-.432.309-.299.464-.688.464-1.168s-.155-.854-.464-1.12c-.31-.267-.72-.4-1.232-.4h-3.184v3.12Zm9.83 7.168v-11.92h1.888V288h-1.888Zm7.111 0v-10.24h-3.168v-1.68h8.16v1.68h-3.12V288h-1.872Zm12.111.192a5.943 5.943 0 0 1-2.352-.464 5.87 5.87 0 0 1-1.872-1.28 6.167 6.167 0 0 1-1.232-1.952c-.298-.747-.448-1.568-.448-2.464 0-.886.144-1.702.432-2.448a5.784 5.784 0 0 1 1.248-1.952 5.523 5.523 0 0 1 1.872-1.28c.715-.31 1.499-.464 2.352-.464.843 0 1.595.144 2.256.432a5.185 5.185 0 0 1 1.696 1.136c.459.458.79.96.992 1.504l-1.696.8a3.381 3.381 0 0 0-1.232-1.552c-.554-.406-1.226-.608-2.016-.608-.789 0-1.488.186-2.096.56a3.851 3.851 0 0 0-1.424 1.552c-.33.661-.496 1.434-.496 2.32 0 .885.166 1.664.496 2.336a3.864 3.864 0 0 0 1.424 1.552c.608.362 1.307.544 2.096.544.79 0 1.462-.198 2.016-.592a3.387 3.387 0 0 0 1.232-1.552l1.696.8c-.202.533-.533 1.034-.992 1.504a5.2 5.2 0 0 1-1.696 1.136c-.661.288-1.413.432-2.256.432Zm13.318 0a6.257 6.257 0 0 1-2.416-.464 6.2 6.2 0 0 1-1.952-1.296 6.17 6.17 0 0 1-1.312-1.952 6.342 6.342 0 0 1-.464-2.448c0-.886.155-1.702.464-2.448a5.922 5.922 0 0 1 1.312-1.952 5.732 5.732 0 0 1 1.952-1.28 6.238 6.238 0 0 1 2.416-.464c.875 0 1.68.154 2.416.464a5.732 5.732 0 0 1 1.952 1.28 5.82 5.82 0 0 1 1.312 1.952c.309.746.464 1.562.464 2.448 0 .885-.16 1.701-.48 2.448a5.95 5.95 0 0 1-1.296 1.952 5.97 5.97 0 0 1-1.952 1.296 6.257 6.257 0 0 1-2.416.464Zm0-1.728c.619 0 1.184-.112 1.696-.336a4.171 4.171 0 0 0 1.36-.928 4.41 4.41 0 0 0 .896-1.408c.213-.544.32-1.131.32-1.76 0-.63-.107-1.211-.32-1.744a4.388 4.388 0 0 0-.896-1.408 4.036 4.036 0 0 0-1.36-.944 4.185 4.185 0 0 0-1.696-.336 4.3 4.3 0 0 0-1.712.336c-.512.224-.96.538-1.344.944a4.388 4.388 0 0 0-.896 1.408 4.86 4.86 0 0 0-.304 1.744c0 .629.101 1.216.304 1.76a4.41 4.41 0 0 0 .896 1.408c.384.394.837.704 1.36.928a4.26 4.26 0 0 0 1.696.336Zm8.895 1.536v-11.92h1.888V288h-1.888Zm4.999 0v-11.92h1.52l6.688 9.232-.72.112v-9.344h1.872V288h-1.52l-6.64-9.296.688-.128V288h-1.888Z" fill="#FA8700"/><path d="M633.754 287.336v-11.92h1.888v10.24h5.152v1.68h-7.04Zm9.265 0v-11.92h1.888v11.92h-1.888Zm10.792.192c-.864 0-1.67-.155-2.416-.464a6.2 6.2 0 0 1-1.952-1.296 6.17 6.17 0 0 1-1.312-1.952 6.324 6.324 0 0 1-.464-2.448c0-.886.154-1.702.464-2.448a5.922 5.922 0 0 1 1.312-1.952 5.722 5.722 0 0 1 1.952-1.28 6.235 6.235 0 0 1 2.416-.464c.874 0 1.68.154 2.416.464a5.742 5.742 0 0 1 1.952 1.28 5.834 5.834 0 0 1 1.312 1.952c.309.746.464 1.562.464 2.448 0 .885-.16 1.701-.48 2.448a5.981 5.981 0 0 1-1.296 1.952 5.981 5.981 0 0 1-1.952 1.296 6.257 6.257 0 0 1-2.416.464Zm0-1.728c.618 0 1.184-.112 1.696-.336a4.182 4.182 0 0 0 1.36-.928c.384-.406.682-.875.896-1.408.213-.544.32-1.131.32-1.76 0-.63-.107-1.211-.32-1.744a4.405 4.405 0 0 0-.896-1.408 4.046 4.046 0 0 0-1.36-.944 4.188 4.188 0 0 0-1.696-.336c-.619 0-1.19.112-1.712.336-.512.224-.96.538-1.344.944a4.388 4.388 0 0 0-.896 1.408 4.86 4.86 0 0 0-.304 1.744c0 .629.101 1.216.304 1.76a4.41 4.41 0 0 0 .896 1.408c.384.394.837.704 1.36.928a4.257 4.257 0 0 0 1.696.336Zm2.992 2.976-3.904-6.208h2.016l3.92 6.208h-2.032Zm10.367-1.248c-.886 0-1.675-.187-2.368-.56a4.226 4.226 0 0 1-1.616-1.536c-.384-.651-.576-1.392-.576-2.224v-7.792h1.888v7.712c0 .522.112.986.336 1.392.234.405.549.72.944.944.405.224.869.336 1.392.336.533 0 .997-.112 1.392-.336.405-.224.72-.539.944-.944.234-.406.352-.87.352-1.392v-7.712h1.872v7.792c0 .832-.192 1.573-.576 2.224a4.09 4.09 0 0 1-1.616 1.536c-.683.373-1.472.56-2.368.56Zm7.566-.192v-11.92h1.888v11.92h-1.888Zm5 0v-11.92h3.904c1.237 0 2.309.25 3.216.752a5.194 5.194 0 0 1 2.128 2.08c.501.896.752 1.936.752 3.12 0 1.173-.251 2.213-.752 3.12a5.307 5.307 0 0 1-2.128 2.096c-.907.501-1.979.752-3.216.752h-3.904Zm1.888-1.68h2.048c.842 0 1.573-.176 2.192-.528a3.63 3.63 0 0 0 1.456-1.488c.341-.64.512-1.398.512-2.272 0-.875-.176-1.627-.528-2.256a3.66 3.66 0 0 0-1.44-1.488c-.619-.352-1.35-.528-2.192-.528h-2.048v8.56Zm72.111 2.304v-11.92h1.888v10.24h5.152v1.68h-7.04Zm9.265 0v-11.92h1.888v11.92H763Zm10.584.192a5.936 5.936 0 0 1-2.352-.464 6.042 6.042 0 0 1-1.888-1.28 5.986 5.986 0 0 1-1.248-1.952c-.299-.747-.448-1.568-.448-2.464 0-.886.144-1.702.432-2.448a5.754 5.754 0 0 1 1.248-1.952 5.503 5.503 0 0 1 1.872-1.28c.714-.31 1.498-.464 2.352-.464.842 0 1.594.144 2.256.432a5.196 5.196 0 0 1 1.696 1.136c.458.458.789.96.992 1.504l-1.68.816a3.281 3.281 0 0 0-1.216-1.568c-.566-.406-1.248-.608-2.048-.608-.79 0-1.488.186-2.096.56a3.844 3.844 0 0 0-1.424 1.552c-.331.661-.496 1.434-.496 2.32 0 .885.17 1.664.512 2.336a3.974 3.974 0 0 0 1.44 1.552c.608.362 1.306.544 2.096.544.661 0 1.264-.134 1.808-.4a3.42 3.42 0 0 0 1.328-1.152c.33-.502.496-1.083.496-1.744v-.816l.848.768h-4.512v-1.6h5.536v1.12c0 .874-.15 1.658-.448 2.352a5.244 5.244 0 0 1-1.216 1.744 5.197 5.197 0 0 1-1.76 1.088 5.944 5.944 0 0 1-2.08.368Zm8.071-.192v-11.92h1.888v5.248h5.52v-5.248h1.872v11.92h-1.872v-4.992h-5.52v4.992h-1.888Zm14.502 0v-10.24h-3.168v-1.68h8.16v1.68h-3.12v10.24h-1.872Zm7.044 0v-11.92h1.52l6.688 9.232-.72.112v-9.344h1.872v11.92h-1.52l-6.64-9.296.688-.128v9.424h-1.888Zm12.468 0v-11.92h1.888v11.92h-1.888Zm4.999 0v-11.92h1.52l6.688 9.232-.72.112v-9.344h1.872v11.92h-1.52l-6.64-9.296.688-.128v9.424h-1.888Zm18.053.192a5.936 5.936 0 0 1-2.352-.464 6.042 6.042 0 0 1-1.888-1.28 5.986 5.986 0 0 1-1.248-1.952c-.299-.747-.448-1.568-.448-2.464 0-.886.144-1.702.432-2.448a5.754 5.754 0 0 1 1.248-1.952 5.503 5.503 0 0 1 1.872-1.28c.714-.31 1.498-.464 2.352-.464.842 0 1.594.144 2.256.432a5.196 5.196 0 0 1 1.696 1.136c.458.458.789.96.992 1.504l-1.68.816a3.281 3.281 0 0 0-1.216-1.568c-.566-.406-1.248-.608-2.048-.608-.79 0-1.488.186-2.096.56a3.844 3.844 0 0 0-1.424 1.552c-.331.661-.496 1.434-.496 2.32 0 .885.17 1.664.512 2.336a3.974 3.974 0 0 0 1.44 1.552c.608.362 1.306.544 2.096.544.661 0 1.264-.134 1.808-.4a3.42 3.42 0 0 0 1.328-1.152c.33-.502.496-1.083.496-1.744v-.816l.848.768h-4.512v-1.6h5.536v1.12c0 .874-.15 1.658-.448 2.352a5.244 5.244 0 0 1-1.216 1.744 5.197 5.197 0 0 1-1.76 1.088 5.944 5.944 0 0 1-2.08.368Z" fill="#000"/><path d="M0 8a8 8 0 0 1 8-8h1274a8 8 0 0 1 8 8v35H0V8Z" fill="#fff"/><circle cx="20" cy="22" r="5" fill="#F2F2F2"/><circle cx="39" cy="22" r="5" fill="#F2F2F2"/><circle cx="58" cy="22" r="5" fill="#F2F2F2"/><defs><linearGradient id="b" x1="464.995" y1="271.995" x2="464.995" y2="291.998" gradientUnits="userSpaceOnUse"><stop stop-color="#F9AA4B"/><stop offset="1" stop-color="#F7931A"/></linearGradient><clipPath id="a"><path fill="#fff" transform="translate(455 272)" d="M0 0h20v20H0z"/></clipPath></defs></svg>